<mxfile host="Electron" agent="Mozilla/5.0 (Windows NT 10.0; Win64; x64) AppleWebKit/537.36 (KHTML, like Gecko) draw.io/24.7.5 Chrome/126.0.6478.183 Electron/31.3.0 Safari/537.36" version="24.7.5">
  <diagram name="第 1 页" id="UoyoFzyVEP5PiOd5T74g">
    <mxGraphModel dx="944" dy="775" grid="1" gridSize="10" guides="1" tooltips="1" connect="1" arrows="1" fold="1" page="1" pageScale="1" pageWidth="827" pageHeight="1169" math="0" shadow="0">
      <root>
        <mxCell id="0" />
        <mxCell id="1" parent="0" />
        <mxCell id="YotZ0koV3t7qqxBNDabI-1" value="TCP超时重传机制是为了解决什么问题？" style="text;whiteSpace=wrap;fontSize=18;fillColor=#ffe6cc;strokeColor=#d79b00;" vertex="1" parent="1">
          <mxGeometry x="10" y="10" width="350" height="40" as="geometry" />
        </mxCell>
        <mxCell id="YotZ0koV3t7qqxBNDabI-3" value="&lt;section id=&quot;markdown-section--6&quot; class=&quot;markdown-section&quot; data-markdown-raw=&quot;因为 TCP (传输控制协议) 是一种面向连接的协议，需要保证数据可靠传输。&quot; data-section-index=&quot;6&quot; style=&quot;border-radius: 4px; margin: 6px 0px; padding: 4px; position: relative; scroll-margin-bottom: 40px; scroll-margin-top: 40px; color: rgb(20, 20, 20); font-family: &amp;quot;Segoe WPC&amp;quot;, &amp;quot;Segoe UI&amp;quot;, &amp;quot;Microsoft YaHei&amp;quot;, sans-serif; font-size: 13px; font-style: normal; font-variant-ligatures: normal; font-variant-caps: normal; font-weight: 400; letter-spacing: normal; orphans: 2; text-align: start; text-indent: 0px; text-transform: none; widows: 2; word-spacing: 0px; -webkit-text-stroke-width: 0px; white-space: normal; background-color: rgb(235, 235, 235); text-decoration-thickness: initial; text-decoration-style: initial; text-decoration-color: initial;&quot;&gt;&lt;span style=&quot;margin-top: 0px;&quot;&gt;因为 TCP (传输控制协议&lt;/span&gt;&lt;span&gt;) 是一种面向连接的协&lt;/span&gt;&lt;span&gt;议，需要保证数据可&lt;/span&gt;&lt;span style=&quot;margin-bottom: 0px;&quot;&gt;靠传输。&lt;/span&gt;&lt;/section&gt;&lt;section id=&quot;markdown-section--8&quot; class=&quot;markdown-section&quot; data-markdown-raw=&quot;而在数据传输过程中，由于网络拥塞、链路错误、路由器或主机故障等原因，数据包可能会丢失或延迟到达目的地。&quot; data-section-index=&quot;8&quot; style=&quot;border-radius: 4px; margin: 6px 0px; padding: 4px; position: relative; scroll-margin-bottom: 40px; scroll-margin-top: 40px; color: rgb(20, 20, 20); font-family: &amp;quot;Segoe WPC&amp;quot;, &amp;quot;Segoe UI&amp;quot;, &amp;quot;Microsoft YaHei&amp;quot;, sans-serif; font-size: 13px; font-style: normal; font-variant-ligatures: normal; font-variant-caps: normal; font-weight: 400; letter-spacing: normal; orphans: 2; text-align: start; text-indent: 0px; text-transform: none; widows: 2; word-spacing: 0px; -webkit-text-stroke-width: 0px; white-space: normal; background-color: rgb(235, 235, 235); text-decoration-thickness: initial; text-decoration-style: initial; text-decoration-color: initial;&quot;&gt;&lt;div class=&quot;markdown-section-toolbar&quot; style=&quot;animation: auto ease 0s 1 normal none running none !important;&quot;&gt;&lt;div style=&quot;animation: auto ease 0s 1 normal none running none !important; height: 0px; width: 948px;&quot;&gt;&lt;div class=&quot;markdown-section-toolbar-internal&quot; style=&quot;border-radius: 4px; display: flex; gap: 4px; opacity: 0; position: absolute; right: 8px; top: 0px; transform: translateY(-55%); z-index: 303; animation: auto ease 0s 1 normal none running none !important;&quot;&gt;&lt;div class=&quot;markdown-section-toolbar-item light&quot; style=&quot;align-items: center; border-radius: 3px; color: var(--vscode-foreground); cursor: pointer; display: flex; height: 20px; justify-content: center; opacity: 0.3; position: relative; width: 20px; animation: auto ease 0s 1 normal none running none !important;&quot;&gt;&lt;span class=&quot;codicon codicon-reply&quot; style=&quot;animation: auto ease 0s 1 normal none running none !important; display: inline-block; font: 14px / 1 codicon; text-align: center; text-decoration: none; text-rendering: auto; text-transform: none; -webkit-font-smoothing: antialiased; user-select: none;&quot;&gt;&lt;/span&gt;&lt;/div&gt;&lt;div class=&quot;markdown-section-toolbar-item markdown-section-toolbar-copy light&quot; style=&quot;align-items: center; border-radius: 3px; color: var(--vscode-foreground); cursor: pointer; display: flex; height: 20px; justify-content: center; opacity: 0.3; position: relative; width: 20px; animation: auto ease 0s 1 normal none running none !important; pointer-events: auto;&quot;&gt;&lt;span class=&quot;codicon codicon-copy&quot; style=&quot;animation: auto ease 0s 1 normal none running none !important; display: inline-block; font: 14px / 1 codicon; text-align: center; text-decoration: none; text-rendering: auto; text-transform: none; -webkit-font-smoothing: antialiased; user-select: none;&quot;&gt;&lt;/span&gt;&lt;/div&gt;&lt;/div&gt;&lt;/div&gt;&lt;/div&gt;&lt;span style=&quot;margin-top: 0px;&quot;&gt;而在数据传输过程&lt;/span&gt;&lt;span&gt;中，由于网络拥塞、链&lt;/span&gt;&lt;span&gt;路错误、路由器或主机故&lt;/span&gt;&lt;span&gt;障等原因，数据包可能会丢&lt;/span&gt;&lt;span&gt;失或延迟到达目的地&lt;/span&gt;&lt;span style=&quot;margin-bottom: 0px;&quot;&gt;。&lt;/span&gt;&lt;/section&gt;&lt;section id=&quot;markdown-section--10&quot; class=&quot;markdown-section&quot; data-markdown-raw=&quot;因此若未在指定时间内收到对方的确认应答 (ACK)，则认为该数据包可能已经丢失，此时会触发超时重传机制，重新发送该数据包，以确保数据的可靠到达。&quot; data-section-index=&quot;10&quot; style=&quot;border-radius: 4px; margin: 6px 0px; padding: 4px; position: relative; scroll-margin-bottom: 40px; scroll-margin-top: 40px; color: rgb(20, 20, 20); font-family: &amp;quot;Segoe WPC&amp;quot;, &amp;quot;Segoe UI&amp;quot;, &amp;quot;Microsoft YaHei&amp;quot;, sans-serif; font-size: 13px; font-style: normal; font-variant-ligatures: normal; font-variant-caps: normal; font-weight: 400; letter-spacing: normal; orphans: 2; text-align: start; text-indent: 0px; text-transform: none; widows: 2; word-spacing: 0px; -webkit-text-stroke-width: 0px; white-space: normal; background-color: rgb(235, 235, 235); text-decoration-thickness: initial; text-decoration-style: initial; text-decoration-color: initial;&quot;&gt;&lt;div class=&quot;markdown-section-toolbar&quot; style=&quot;animation: auto ease 0s 1 normal none running none !important;&quot;&gt;&lt;div style=&quot;animation: auto ease 0s 1 normal none running none !important; height: 0px; width: 948px;&quot;&gt;&lt;div class=&quot;markdown-section-toolbar-internal&quot; style=&quot;border-radius: 4px; display: flex; gap: 4px; opacity: 0; position: absolute; right: 8px; top: 0px; transform: translateY(-55%); z-index: 303; animation: auto ease 0s 1 normal none running none !important;&quot;&gt;&lt;div class=&quot;markdown-section-toolbar-item light&quot; style=&quot;align-items: center; border-radius: 3px; color: var(--vscode-foreground); cursor: pointer; display: flex; height: 20px; justify-content: center; opacity: 0.3; position: relative; width: 20px; animation: auto ease 0s 1 normal none running none !important;&quot;&gt;&lt;span class=&quot;codicon codicon-reply&quot; style=&quot;animation: auto ease 0s 1 normal none running none !important; display: inline-block; font: 14px / 1 codicon; text-align: center; text-decoration: none; text-rendering: auto; text-transform: none; -webkit-font-smoothing: antialiased; user-select: none;&quot;&gt;&lt;/span&gt;&lt;/div&gt;&lt;div class=&quot;markdown-section-toolbar-item markdown-section-toolbar-copy light&quot; style=&quot;align-items: center; border-radius: 3px; color: var(--vscode-foreground); cursor: pointer; display: flex; height: 20px; justify-content: center; opacity: 0.3; position: relative; width: 20px; animation: auto ease 0s 1 normal none running none !important; pointer-events: auto;&quot;&gt;&lt;span class=&quot;codicon codicon-copy&quot; style=&quot;animation: auto ease 0s 1 normal none running none !important; display: inline-block; font: 14px / 1 codicon; text-align: center; text-decoration: none; text-rendering: auto; text-transform: none; -webkit-font-smoothing: antialiased; user-select: none;&quot;&gt;&lt;/span&gt;&lt;/div&gt;&lt;/div&gt;&lt;/div&gt;&lt;/div&gt;&lt;span style=&quot;margin-top: 0px;&quot;&gt;因此若未在指定时间内&lt;/span&gt;&lt;span&gt;收到对方的确认应答 (ACK)&lt;/span&gt;&lt;span&gt;，则认为该数据包可能已&lt;/span&gt;&lt;span&gt;经丢失，此时会触发超&lt;/span&gt;&lt;span&gt;时重传机制，重新发送该数&lt;/span&gt;&lt;span&gt;据包，以确保数据的可靠到&lt;/span&gt;&lt;span style=&quot;margin-bottom: 0px;&quot;&gt;达。&lt;/span&gt;&lt;/section&gt;" style="text;whiteSpace=wrap;html=1;" vertex="1" parent="1">
          <mxGeometry x="10" y="50" width="880" height="160" as="geometry" />
        </mxCell>
        <mxCell id="YotZ0koV3t7qqxBNDabI-4" value="TCP ACK确认号" style="text;whiteSpace=wrap;fontSize=18;fillColor=#fff2cc;strokeColor=#d6b656;" vertex="1" parent="1">
          <mxGeometry x="10" y="160" width="150" height="40" as="geometry" />
        </mxCell>
        <mxCell id="YotZ0koV3t7qqxBNDabI-6" value="超时重传的时间RTO" style="text;whiteSpace=wrap;fontFamily=Helvetica;fontSize=18;fillColor=#fff2cc;strokeColor=#d6b656;" vertex="1" parent="1">
          <mxGeometry x="10" y="320" width="170" height="40" as="geometry" />
        </mxCell>
        <mxCell id="YotZ0koV3t7qqxBNDabI-7" value="&lt;section id=&quot;markdown-section--3&quot; class=&quot;markdown-section&quot; data-markdown-raw=&quot;TCP 的可靠性是靠确认号的，比如我发给你1、2、3、4这4个包，你告诉我你现在要 5，那说明前面四个包你都收到了，就是这么回事儿。&quot; data-section-index=&quot;3&quot; style=&quot;border-radius: 4px; margin: 6px 0px; padding: 4px; position: relative; scroll-margin-bottom: 40px; scroll-margin-top: 40px; color: rgb(20, 20, 20); font-family: &amp;quot;Segoe WPC&amp;quot;, &amp;quot;Segoe UI&amp;quot;, &amp;quot;Microsoft YaHei&amp;quot;, sans-serif; font-size: 13px; font-style: normal; font-variant-ligatures: normal; font-variant-caps: normal; font-weight: 400; letter-spacing: normal; orphans: 2; text-align: start; text-indent: 0px; text-transform: none; widows: 2; word-spacing: 0px; -webkit-text-stroke-width: 0px; white-space: normal; background-color: rgb(235, 235, 235); text-decoration-thickness: initial; text-decoration-style: initial; text-decoration-color: initial;&quot;&gt;&lt;span style=&quot;margin-top: 0px;&quot;&gt;TCP&lt;/span&gt;&lt;span&gt;&lt;span&gt;&amp;nbsp;&lt;/span&gt;的可靠性是靠确认号的&lt;/span&gt;&lt;span&gt;，比如我发给你1、2、3&lt;/span&gt;&lt;span&gt;、4这4个包，你告诉我你&lt;/span&gt;&lt;span&gt;现在要 5，那说明前面四&lt;/span&gt;&lt;span&gt;个包你都收到了，就是这&lt;/span&gt;&lt;span style=&quot;margin-bottom: 0px;&quot;&gt;么回事儿。&lt;/span&gt;&lt;/section&gt;&lt;section id=&quot;markdown-section--5&quot; class=&quot;markdown-section&quot; data-markdown-raw=&quot;不过这里要注意，SeqNum 和 ACK 都是以字节数为单位的，也就是说假设你收到了1、2、4但是 3 没有收到你不能 ACK 5，如果你回了5，那么发送方就以为你 5 之前的都收到了。&quot; data-section-index=&quot;5&quot; style=&quot;border-radius: 4px; margin: 6px 0px; padding: 4px; position: relative; scroll-margin-bottom: 40px; scroll-margin-top: 40px; color: rgb(20, 20, 20); font-family: &amp;quot;Segoe WPC&amp;quot;, &amp;quot;Segoe UI&amp;quot;, &amp;quot;Microsoft YaHei&amp;quot;, sans-serif; font-size: 13px; font-style: normal; font-variant-ligatures: normal; font-variant-caps: normal; font-weight: 400; letter-spacing: normal; orphans: 2; text-align: start; text-indent: 0px; text-transform: none; widows: 2; word-spacing: 0px; -webkit-text-stroke-width: 0px; white-space: normal; background-color: rgb(235, 235, 235); text-decoration-thickness: initial; text-decoration-style: initial; text-decoration-color: initial;&quot;&gt;&lt;div class=&quot;markdown-section-toolbar&quot; style=&quot;animation: auto ease 0s 1 normal none running none !important;&quot;&gt;&lt;div style=&quot;animation: auto ease 0s 1 normal none running none !important; height: 0px; width: 948px;&quot;&gt;&lt;div class=&quot;markdown-section-toolbar-internal&quot; style=&quot;border-radius: 4px; display: flex; gap: 4px; opacity: 0; position: absolute; right: 8px; top: 0px; transform: translateY(-55%); z-index: 303; animation: auto ease 0s 1 normal none running none !important;&quot;&gt;&lt;div class=&quot;markdown-section-toolbar-item light&quot; style=&quot;align-items: center; border-radius: 3px; color: var(--vscode-foreground); cursor: pointer; display: flex; height: 20px; justify-content: center; opacity: 0.3; position: relative; width: 20px; animation: auto ease 0s 1 normal none running none !important;&quot;&gt;&lt;span class=&quot;codicon codicon-reply&quot; style=&quot;animation: auto ease 0s 1 normal none running none !important; display: inline-block; font: 14px / 1 codicon; text-align: center; text-decoration: none; text-rendering: auto; text-transform: none; -webkit-font-smoothing: antialiased; user-select: none;&quot;&gt;&lt;/span&gt;&lt;/div&gt;&lt;div class=&quot;markdown-section-toolbar-item markdown-section-toolbar-copy light&quot; style=&quot;align-items: center; border-radius: 3px; color: var(--vscode-foreground); cursor: pointer; display: flex; height: 20px; justify-content: center; opacity: 0.3; position: relative; width: 20px; animation: auto ease 0s 1 normal none running none !important; pointer-events: auto;&quot;&gt;&lt;span class=&quot;codicon codicon-copy&quot; style=&quot;animation: auto ease 0s 1 normal none running none !important; display: inline-block; font: 14px / 1 codicon; text-align: center; text-decoration: none; text-rendering: auto; text-transform: none; -webkit-font-smoothing: antialiased; user-select: none;&quot;&gt;&lt;/span&gt;&lt;/div&gt;&lt;/div&gt;&lt;/div&gt;&lt;/div&gt;&lt;span style=&quot;margin-top: 0px;&quot;&gt;不过这&lt;/span&gt;&lt;span&gt;里要注意，SeqNum 和 ACK&lt;/span&gt;&lt;span&gt;&lt;span&gt;&amp;nbsp;&lt;/span&gt;都是以字节数为单位的&lt;/span&gt;&lt;span&gt;，也就是说假设你收到了1&lt;/span&gt;&lt;span&gt;、2、4但是 3 没有收到你&lt;/span&gt;&lt;span&gt;不能 ACK 5，如果你回&lt;/span&gt;&lt;span&gt;了5，那么发送方就以为你&lt;/span&gt;&lt;span style=&quot;margin-bottom: 0px;&quot;&gt;&lt;span&gt;&amp;nbsp;&lt;/span&gt;5 之前的都收到了。&lt;/span&gt;&lt;/section&gt;&lt;section id=&quot;markdown-section--7&quot; class=&quot;markdown-section&quot; data-markdown-raw=&quot;所以只能回复确认最大连续收到包，也就是 3。&quot; data-section-index=&quot;7&quot; style=&quot;border-radius: 4px; margin: 6px 0px; padding: 4px; position: relative; scroll-margin-bottom: 40px; scroll-margin-top: 40px; color: rgb(20, 20, 20); font-family: &amp;quot;Segoe WPC&amp;quot;, &amp;quot;Segoe UI&amp;quot;, &amp;quot;Microsoft YaHei&amp;quot;, sans-serif; font-size: 13px; font-style: normal; font-variant-ligatures: normal; font-variant-caps: normal; font-weight: 400; letter-spacing: normal; orphans: 2; text-align: start; text-indent: 0px; text-transform: none; widows: 2; word-spacing: 0px; -webkit-text-stroke-width: 0px; white-space: normal; background-color: rgb(235, 235, 235); text-decoration-thickness: initial; text-decoration-style: initial; text-decoration-color: initial;&quot;&gt;&lt;div class=&quot;markdown-section-toolbar&quot; style=&quot;animation: auto ease 0s 1 normal none running none !important;&quot;&gt;&lt;div style=&quot;animation: auto ease 0s 1 normal none running none !important; height: 0px; width: 948px;&quot;&gt;&lt;div class=&quot;markdown-section-toolbar-internal&quot; style=&quot;border-radius: 4px; display: flex; gap: 4px; opacity: 0; position: absolute; right: 8px; top: 0px; transform: translateY(-55%); z-index: 303; animation: auto ease 0s 1 normal none running none !important;&quot;&gt;&lt;div class=&quot;markdown-section-toolbar-item light&quot; style=&quot;align-items: center; border-radius: 3px; color: var(--vscode-foreground); cursor: pointer; display: flex; height: 20px; justify-content: center; opacity: 0.3; position: relative; width: 20px; animation: auto ease 0s 1 normal none running none !important;&quot;&gt;&lt;span class=&quot;codicon codicon-reply&quot; style=&quot;animation: auto ease 0s 1 normal none running none !important; display: inline-block; font: 14px / 1 codicon; text-align: center; text-decoration: none; text-rendering: auto; text-transform: none; -webkit-font-smoothing: antialiased; user-select: none;&quot;&gt;&lt;/span&gt;&lt;/div&gt;&lt;div class=&quot;markdown-section-toolbar-item markdown-section-toolbar-copy light&quot; style=&quot;align-items: center; border-radius: 3px; color: var(--vscode-foreground); cursor: pointer; display: flex; height: 20px; justify-content: center; opacity: 0.3; position: relative; width: 20px; animation: auto ease 0s 1 normal none running none !important; pointer-events: auto;&quot;&gt;&lt;span class=&quot;codicon codicon-copy&quot; style=&quot;animation: auto ease 0s 1 normal none running none !important; display: inline-block; font: 14px / 1 codicon; text-align: center; text-decoration: none; text-rendering: auto; text-transform: none; -webkit-font-smoothing: antialiased; user-select: none;&quot;&gt;&lt;/span&gt;&lt;/div&gt;&lt;/div&gt;&lt;/div&gt;&lt;/div&gt;&lt;span style=&quot;margin-top: 0px;&quot;&gt;所&lt;/span&gt;&lt;span&gt;以只能回复确认最大连续收&lt;/span&gt;&lt;span style=&quot;margin-bottom: 0px;&quot;&gt;到包，也就是 3。&lt;/span&gt;&lt;/section&gt;" style="text;whiteSpace=wrap;html=1;fontFamily=Helvetica;fontSize=18;fontColor=default;" vertex="1" parent="1">
          <mxGeometry x="10" y="200" width="560" height="170" as="geometry" />
        </mxCell>
        <mxCell id="YotZ0koV3t7qqxBNDabI-8" value="&lt;section id=&quot;markdown-section--3&quot; class=&quot;markdown-section&quot; data-markdown-raw=&quot;接着上面的例子说，发送方不清楚 3、4 这两个包到底是还没到呢还是已经丢了，于是发送方需要等待，这等待的时间就比较讲究了。&quot; data-section-index=&quot;3&quot; style=&quot;border-radius: 4px; margin: 6px 0px; padding: 4px; position: relative; scroll-margin-bottom: 40px; scroll-margin-top: 40px; color: rgb(20, 20, 20); font-family: &amp;quot;Segoe WPC&amp;quot;, &amp;quot;Segoe UI&amp;quot;, &amp;quot;Microsoft YaHei&amp;quot;, sans-serif; font-size: 13px; font-style: normal; font-variant-ligatures: normal; font-variant-caps: normal; font-weight: 400; letter-spacing: normal; orphans: 2; text-align: start; text-indent: 0px; text-transform: none; widows: 2; word-spacing: 0px; -webkit-text-stroke-width: 0px; white-space: normal; background-color: rgb(235, 235, 235); text-decoration-thickness: initial; text-decoration-style: initial; text-decoration-color: initial;&quot;&gt;&lt;span style=&quot;margin-top: 0px;&quot;&gt;接着上面的例子说&lt;/span&gt;&lt;span&gt;，发送方不清楚&lt;span&gt;&amp;nbsp;&lt;/span&gt;&lt;/span&gt;&lt;span&gt;3、4 这两个包到底是&lt;/span&gt;&lt;span&gt;还没到呢还是已经&lt;/span&gt;&lt;span&gt;丢了，于是发送方需要等&lt;/span&gt;&lt;span&gt;待，这等待的时间就比&lt;/span&gt;&lt;span style=&quot;margin-bottom: 0px;&quot;&gt;较讲究了。&lt;/span&gt;&lt;/section&gt;&lt;section id=&quot;markdown-section--5&quot; class=&quot;markdown-section&quot; data-markdown-raw=&quot;如果太心急可能 ACK 已经在路上了，你这重传就是浪费资源了；如果太散漫，那么接收方急死了，这死鬼怎么还不发包来，我等的花儿都谢了。&quot; data-section-index=&quot;5&quot; style=&quot;border-radius: 4px; margin: 6px 0px; padding: 4px; position: relative; scroll-margin-bottom: 40px; scroll-margin-top: 40px; color: rgb(20, 20, 20); font-family: &amp;quot;Segoe WPC&amp;quot;, &amp;quot;Segoe UI&amp;quot;, &amp;quot;Microsoft YaHei&amp;quot;, sans-serif; font-size: 13px; font-style: normal; font-variant-ligatures: normal; font-variant-caps: normal; font-weight: 400; letter-spacing: normal; orphans: 2; text-align: start; text-indent: 0px; text-transform: none; widows: 2; word-spacing: 0px; -webkit-text-stroke-width: 0px; white-space: normal; background-color: rgb(235, 235, 235); text-decoration-thickness: initial; text-decoration-style: initial; text-decoration-color: initial;&quot;&gt;&lt;div class=&quot;markdown-section-toolbar&quot; style=&quot;animation: auto ease 0s 1 normal none running none !important;&quot;&gt;&lt;div style=&quot;animation: auto ease 0s 1 normal none running none !important; height: 0px; width: 948px;&quot;&gt;&lt;div class=&quot;markdown-section-toolbar-internal&quot; style=&quot;border-radius: 4px; display: flex; gap: 4px; opacity: 0; position: absolute; right: 8px; top: 0px; transform: translateY(-55%); z-index: 303; animation: auto ease 0s 1 normal none running none !important;&quot;&gt;&lt;div class=&quot;markdown-section-toolbar-item light&quot; style=&quot;align-items: center; border-radius: 3px; color: var(--vscode-foreground); cursor: pointer; display: flex; height: 20px; justify-content: center; opacity: 0.3; position: relative; width: 20px; animation: auto ease 0s 1 normal none running none !important;&quot;&gt;&lt;span class=&quot;codicon codicon-reply&quot; style=&quot;animation: auto ease 0s 1 normal none running none !important; display: inline-block; font: 14px / 1 codicon; text-align: center; text-decoration: none; text-rendering: auto; text-transform: none; -webkit-font-smoothing: antialiased; user-select: none;&quot;&gt;&lt;/span&gt;&lt;/div&gt;&lt;div class=&quot;markdown-section-toolbar-item markdown-section-toolbar-copy light&quot; style=&quot;align-items: center; border-radius: 3px; color: var(--vscode-foreground); cursor: pointer; display: flex; height: 20px; justify-content: center; opacity: 0.3; position: relative; width: 20px; animation: auto ease 0s 1 normal none running none !important; pointer-events: auto;&quot;&gt;&lt;span class=&quot;codicon codicon-copy&quot; style=&quot;animation: auto ease 0s 1 normal none running none !important; display: inline-block; font: 14px / 1 codicon; text-align: center; text-decoration: none; text-rendering: auto; text-transform: none; -webkit-font-smoothing: antialiased; user-select: none;&quot;&gt;&lt;/span&gt;&lt;/div&gt;&lt;/div&gt;&lt;/div&gt;&lt;/div&gt;&lt;span style=&quot;margin-top: 0px;&quot;&gt;如果太&lt;/span&gt;&lt;span&gt;心急可能 ACK 已经在&lt;/span&gt;&lt;span&gt;路上了，你这重传就是浪费资源了；如果太散漫，那么接收方急死&lt;/span&gt;&lt;span&gt;了，这死鬼怎么还&lt;/span&gt;&lt;span&gt;不发包来，我等的花儿都谢&lt;/span&gt;&lt;span style=&quot;margin-bottom: 0px;&quot;&gt;了。&lt;/span&gt;&lt;/section&gt;&lt;section id=&quot;markdown-section--7&quot; class=&quot;markdown-section&quot; data-markdown-raw=&quot;所以这个等待超时重传的时间很关键，怎么搞？聪明的小伙伴可能一下就想到了，你估摸着正常来回一趟时间是多少不就好了，我就等这么长。&quot; data-section-index=&quot;7&quot; style=&quot;border-radius: 4px; margin: 6px 0px; padding: 4px; position: relative; scroll-margin-bottom: 40px; scroll-margin-top: 40px; color: rgb(20, 20, 20); font-family: &amp;quot;Segoe WPC&amp;quot;, &amp;quot;Segoe UI&amp;quot;, &amp;quot;Microsoft YaHei&amp;quot;, sans-serif; font-size: 13px; font-style: normal; font-variant-ligatures: normal; font-variant-caps: normal; font-weight: 400; letter-spacing: normal; orphans: 2; text-align: start; text-indent: 0px; text-transform: none; widows: 2; word-spacing: 0px; -webkit-text-stroke-width: 0px; white-space: normal; background-color: rgb(235, 235, 235); text-decoration-thickness: initial; text-decoration-style: initial; text-decoration-color: initial;&quot;&gt;&lt;div class=&quot;markdown-section-toolbar&quot; style=&quot;animation: auto ease 0s 1 normal none running none !important;&quot;&gt;&lt;div style=&quot;animation: auto ease 0s 1 normal none running none !important; height: 0px; width: 948px;&quot;&gt;&lt;div class=&quot;markdown-section-toolbar-internal&quot; style=&quot;border-radius: 4px; display: flex; gap: 4px; opacity: 0; position: absolute; right: 8px; top: 0px; transform: translateY(-55%); z-index: 303; animation: auto ease 0s 1 normal none running none !important;&quot;&gt;&lt;div class=&quot;markdown-section-toolbar-item light&quot; style=&quot;align-items: center; border-radius: 3px; color: var(--vscode-foreground); cursor: pointer; display: flex; height: 20px; justify-content: center; opacity: 0.3; position: relative; width: 20px; animation: auto ease 0s 1 normal none running none !important;&quot;&gt;&lt;span class=&quot;codicon codicon-reply&quot; style=&quot;animation: auto ease 0s 1 normal none running none !important; display: inline-block; font: 14px / 1 codicon; text-align: center; text-decoration: none; text-rendering: auto; text-transform: none; -webkit-font-smoothing: antialiased; user-select: none;&quot;&gt;&lt;/span&gt;&lt;/div&gt;&lt;div class=&quot;markdown-section-toolbar-item markdown-section-toolbar-copy light&quot; style=&quot;align-items: center; border-radius: 3px; color: var(--vscode-foreground); cursor: pointer; display: flex; height: 20px; justify-content: center; opacity: 0.3; position: relative; width: 20px; animation: auto ease 0s 1 normal none running none !important; pointer-events: auto;&quot;&gt;&lt;span class=&quot;codicon codicon-copy&quot; style=&quot;animation: auto ease 0s 1 normal none running none !important; display: inline-block; font: 14px / 1 codicon; text-align: center; text-decoration: none; text-rendering: auto; text-transform: none; -webkit-font-smoothing: antialiased; user-select: none;&quot;&gt;&lt;/span&gt;&lt;/div&gt;&lt;/div&gt;&lt;/div&gt;&lt;/div&gt;&lt;span style=&quot;margin-top: 0px;&quot;&gt;所以这个等待超时重&lt;/span&gt;&lt;span&gt;传的时间很关键，怎么&lt;/span&gt;&lt;span&gt;搞？聪明的小伙伴可&lt;/span&gt;&lt;span&gt;能一下就想到了，你估&lt;/span&gt;&lt;span&gt;摸着正常来回一趟时&lt;/span&gt;&lt;span&gt;间是多少不就好了，我&lt;/span&gt;&lt;span style=&quot;margin-bottom: 0px;&quot;&gt;就等这么长。&lt;/span&gt;&lt;/section&gt;&lt;section id=&quot;markdown-section--9&quot; class=&quot;markdown-section&quot; data-markdown-raw=&quot;这就来到一趟的时间就叫 RTT，即 Round Trip Time，然后根据这个时间制定超时重传的时间 RTO，即 Retransmission Timeout。&quot; data-section-index=&quot;9&quot; style=&quot;border-radius: 4px; margin: 6px 0px; padding: 4px; position: relative; scroll-margin-bottom: 40px; scroll-margin-top: 40px; color: rgb(20, 20, 20); font-family: &amp;quot;Segoe WPC&amp;quot;, &amp;quot;Segoe UI&amp;quot;, &amp;quot;Microsoft YaHei&amp;quot;, sans-serif; font-size: 13px; font-style: normal; font-variant-ligatures: normal; font-variant-caps: normal; font-weight: 400; letter-spacing: normal; orphans: 2; text-align: start; text-indent: 0px; text-transform: none; widows: 2; word-spacing: 0px; -webkit-text-stroke-width: 0px; white-space: normal; background-color: rgb(235, 235, 235); text-decoration-thickness: initial; text-decoration-style: initial; text-decoration-color: initial;&quot;&gt;&lt;div class=&quot;markdown-section-toolbar&quot; style=&quot;animation: auto ease 0s 1 normal none running none !important;&quot;&gt;&lt;div style=&quot;animation: auto ease 0s 1 normal none running none !important; height: 0px; width: 948px;&quot;&gt;&lt;div class=&quot;markdown-section-toolbar-internal&quot; style=&quot;border-radius: 4px; display: flex; gap: 4px; opacity: 0; position: absolute; right: 8px; top: 0px; transform: translateY(-55%); z-index: 303; animation: auto ease 0s 1 normal none running none !important;&quot;&gt;&lt;div class=&quot;markdown-section-toolbar-item light&quot; style=&quot;align-items: center; border-radius: 3px; color: var(--vscode-foreground); cursor: pointer; display: flex; height: 20px; justify-content: center; opacity: 0.3; position: relative; width: 20px; animation: auto ease 0s 1 normal none running none !important;&quot;&gt;&lt;span class=&quot;codicon codicon-reply&quot; style=&quot;animation: auto ease 0s 1 normal none running none !important; display: inline-block; font: 14px / 1 codicon; text-align: center; text-decoration: none; text-rendering: auto; text-transform: none; -webkit-font-smoothing: antialiased; user-select: none;&quot;&gt;&lt;/span&gt;&lt;/div&gt;&lt;div class=&quot;markdown-section-toolbar-item markdown-section-toolbar-copy light&quot; style=&quot;align-items: center; border-radius: 3px; color: var(--vscode-foreground); cursor: pointer; display: flex; height: 20px; justify-content: center; opacity: 0.3; position: relative; width: 20px; animation: auto ease 0s 1 normal none running none !important; pointer-events: auto;&quot;&gt;&lt;span class=&quot;codicon codicon-copy&quot; style=&quot;animation: auto ease 0s 1 normal none running none !important; display: inline-block; font: 14px / 1 codicon; text-align: center; text-decoration: none; text-rendering: auto; text-transform: none; -webkit-font-smoothing: antialiased; user-select: none;&quot;&gt;&lt;/span&gt;&lt;/div&gt;&lt;/div&gt;&lt;/div&gt;&lt;/div&gt;&lt;span style=&quot;margin-top: 0px;&quot;&gt;这就来&lt;/span&gt;&lt;span&gt;到一趟的时间就&lt;/span&gt;&lt;span&gt;叫 RTT，即 Round Trip Time，然&lt;/span&gt;&lt;span&gt;后根据这个时间制定超&lt;/span&gt;&lt;span&gt;时重传的时间 RTO，即&lt;/span&gt;&lt;span&gt;&lt;span&gt;&amp;nbsp;&lt;/span&gt;Retransmission Timeout&lt;/span&gt;&lt;span style=&quot;margin-bottom: 0px;&quot;&gt;。&lt;/span&gt;&lt;/section&gt;&lt;section id=&quot;markdown-section--11&quot; class=&quot;markdown-section&quot; data-markdown-raw=&quot;TCP 的超时重传机制是网络可靠传输的重要保障，它通过精确计算往返时间来平衡传输效率与可靠性。这种机制确保了即使在网络不稳定的情况下，数据也能最终被正确传输。&quot; data-section-index=&quot;11&quot; style=&quot;border-radius: 4px; margin: 6px 0px; padding: 4px; position: relative; scroll-margin-bottom: 40px; scroll-margin-top: 40px; color: rgb(20, 20, 20); font-family: &amp;quot;Segoe WPC&amp;quot;, &amp;quot;Segoe UI&amp;quot;, &amp;quot;Microsoft YaHei&amp;quot;, sans-serif; font-size: 13px; font-style: normal; font-variant-ligatures: normal; font-variant-caps: normal; font-weight: 400; letter-spacing: normal; orphans: 2; text-align: start; text-indent: 0px; text-transform: none; widows: 2; word-spacing: 0px; -webkit-text-stroke-width: 0px; white-space: normal; background-color: rgb(235, 235, 235); text-decoration-thickness: initial; text-decoration-style: initial; text-decoration-color: initial;&quot;&gt;&lt;div class=&quot;markdown-section-toolbar&quot; style=&quot;animation: auto ease 0s 1 normal none running none !important;&quot;&gt;&lt;div style=&quot;animation: auto ease 0s 1 normal none running none !important; height: 0px; width: 948px;&quot;&gt;&lt;div class=&quot;markdown-section-toolbar-internal&quot; style=&quot;border-radius: 4px; display: flex; gap: 4px; opacity: 0; position: absolute; right: 8px; top: 0px; transform: translateY(-55%); z-index: 303; animation: auto ease 0s 1 normal none running none !important;&quot;&gt;&lt;div class=&quot;markdown-section-toolbar-item light&quot; style=&quot;align-items: center; border-radius: 3px; color: var(--vscode-foreground); cursor: pointer; display: flex; height: 20px; justify-content: center; opacity: 0.3; position: relative; width: 20px; animation: auto ease 0s 1 normal none running none !important;&quot;&gt;&lt;span class=&quot;codicon codicon-reply&quot; style=&quot;animation: auto ease 0s 1 normal none running none !important; display: inline-block; font: 14px / 1 codicon; text-align: center; text-decoration: none; text-rendering: auto; text-transform: none; -webkit-font-smoothing: antialiased; user-select: none;&quot;&gt;&lt;/span&gt;&lt;/div&gt;&lt;div class=&quot;markdown-section-toolbar-item markdown-section-toolbar-copy light&quot; style=&quot;align-items: center; border-radius: 3px; color: var(--vscode-foreground); cursor: pointer; display: flex; height: 20px; justify-content: center; opacity: 0.3; position: relative; width: 20px; animation: auto ease 0s 1 normal none running none !important; pointer-events: auto;&quot;&gt;&lt;span class=&quot;codicon codicon-copy&quot; style=&quot;animation: auto ease 0s 1 normal none running none !important; display: inline-block; font: 14px / 1 codicon; text-align: center; text-decoration: none; text-rendering: auto; text-transform: none; -webkit-font-smoothing: antialiased; user-select: none;&quot;&gt;&lt;/span&gt;&lt;/div&gt;&lt;/div&gt;&lt;/div&gt;&lt;/div&gt;&lt;span style=&quot;margin-top: 0px;&quot;&gt;TCP 的超时重传机制是网&lt;/span&gt;&lt;span&gt;络可靠传输的重要保&lt;/span&gt;&lt;span&gt;障，它通过精确计算往&lt;/span&gt;&lt;span&gt;返时间来平衡传输效率与&lt;/span&gt;&lt;span&gt;可靠性。这种机制确保了&lt;/span&gt;&lt;span&gt;即使在网络不稳定的情&lt;/span&gt;&lt;span&gt;况下，数据也能最终被&lt;/span&gt;&lt;span&gt;正确传输&lt;/span&gt;&lt;span style=&quot;margin-bottom: 0px;&quot;&gt;。&lt;/span&gt;&lt;/section&gt;" style="text;whiteSpace=wrap;html=1;fontFamily=Helvetica;fontSize=18;fontColor=default;" vertex="1" parent="1">
          <mxGeometry x="10" y="360" width="620" height="180" as="geometry" />
        </mxCell>
        <mxCell id="YotZ0koV3t7qqxBNDabI-9" value="" style="shape=image;verticalLabelPosition=bottom;labelBackgroundColor=default;verticalAlign=top;aspect=fixed;imageAspect=0;image=data:image/png,iVBORw0KGgoAAAANSUhEUgAABH8AAAEkCAYAAAC2Wp0RAAAABWZkRUNSJJPjAOWrYpkAAUZnSURBVHgB5cRjtCVn2oDh+3mravPY57RtxLYzM0kGydi2bdu2EYxi22bbPH2szap6n2/Vj7PWXr06mWimZ773x3Whquoyl7nMZS5zmctc5jKXucxlLnOZy1zmMpc9UwbAZS5zmctc5jKXucxlLnOZy1zmMpe5zGUue6YMgMtc5jKXucxlLnOZy1zmMpe5zGUuc5nLXPZMGQCXucxlLnOZy1zmMpe5zGUuc5nLXOYyl7nsmTIALnOZy1zmMpe5zGUuc5nLXOYyl7nMZS5z2TNlAFzmMpe5zGUuc5nLXOYyl7nMZS5zmctc5rJnygC4zGUuc5nLXOYyl7nMZS5zmctc5jKXucxlz5QBcJnLXOYyl7nMZS5zmctc5jKXucxlLnOZy54pA+Ayl7nMZS5zmctc5jKXucxlLnOZy1zmMpc9UwbAZS5zmctc5jKXucxlLnOZy1zmMpe5zGUue6YMgMtc5jKXucxlLnOZy1zmMpe5zGUuc5nLXPZMGQCXPRMTExMUSyUAavXu2cONN91MuVwG4D9t2/bt7OnrQ1UBeDaUy2XWrF1HoVgE4KlYv2EjO3bsRFUBqFUul1mzdh2VSgWA/7RKpcKevj4A9jY0PMzWbdtQVQCeiiiKGBwcJIoiAJ6JQrHI8MgIqgrA07Vz5y5uvOlmyuUyAP8LCoUCcRwDsLdCscjY2DgAtYqlEqoKwKSJiQnGx8cB+HdTVdasXcfwyAgAeysUiwyPjKCqADxb4jhGVQHYX8rlMjfedDO9e/YA8K+MjY0zPDKCqgLwdMVxzODgIJVKBYD/BoVikeGREVQVgFoPPvQwa9auA+CpGBoeRlUB+E+JoojBwUGiKALAZS5zmctc5jKXucxlLjEArli1eg0f/fineDK++vVvMjY2DsDj+f0f/8LLXvEaxsfHAZj06GOr+NgnP8PY2DgA+7Jq9Ro++vFP8XR99vNfYseOnQDUKpfLfOJTn+OHP/opAM+WK666muee9QLuv/9BAJ6s4ZERPvChj3LR3/6OiABQ66677+ElL38V9973AH19/dSqVCoA/LuoKj/40U952Stfy8DAIAC1Lrn0cl780lexY+dOAB5PFMe88z3vJxGGIQCr16zluee8iNVr1gLwZPXu2cONN91MuVwGIPG73/+Jt7ztXRRLJQCerolCgfd/6GPcdfc9ADxZY2PjfPXr3+SjH/8UT8aNN90MQK0oihgYGKSvr59JDz30MJdfeRWJf/zzEj7zuS/y0Y9/inNe+GIOPfJYZs5dxJIVB3PxpZcBsLff/f5PfPbzXwRg0k0338IJJ53OqtVrAEioKl/7xrd5+7veR7lcBuDfaXBwiLe/673845+X0NfXT2JgYJAoigD43e//xFve9i4efOhhTn/O2Tz00MMAPBlRFDEwMMjmLVu5+prr+PZ3v88b3/IODjz0KOYtWs5VV18LwLMtiiI+9ZnP84Mf/YQoigDYl7GxcT72yc/w6GOrAPhXPvv5L/KWt72LYqkEwNM1ODjE855/LrfcdjsAibGxcfr6+nk8wyMjqCoAid49e7j8yqt4Ou68626iOAZg0u9+/yfe8rZ3USyVAJg0OjrGpz7zeW648WYAnqx16zdwxnPO4bobbmTHjp189vNf4qMf/xSP5/wL/wpAolKp8NOf/5KPfvxTPJEbb7oZgFqr16zluee8iNVr1gLgMpe5zGUuc5nLXOYylxiAp+LBhx7m8iuvYl/Wrd9AFEUAJKI45s677ubyK6/iX7nm2usYGRkFYFKxVOLa62/gM5/7Ih/9+Kf4xKc/x2VXXEmxVALgqdq1ezd/ueAiBoeGAHg8O3bu5J+XXEa5XAZgXwrFIjfedDPHH3cM9fX1ADxTYRRx1dXXsmPnTgASt9x2OwmAJ+Oee+/njjvvoqWlmSuuuprLr7yKJ3LjTTdTLpcBeDyDg4P8+Cc/57RTT+GIww8F4Mm6/PIreejhR/jO937IzLmLmHTksSeydds2fveHPzEyMsrLX/VaDj3yWGrdctvtACTiOOa++x/gM5/7Ih/9+Kf49ne/z5at2wB4ukSE5z7nDAYHB3ngoYcAmDQ4OMgf//QXzn3RC5g6ZQoAj2f37t3cc899HHHYoQRBAMDT9ehjq/jYJz/D2Ng4AJPWr9/Apz/7BT768U9R6/wL/wrApCiOufOuu7n8yqvY27p16+nsaOcnP/sll195FfuyYeNGAGqVy2X+ecllNDY2cMwxR/F4Dj30YO66515Wr1kHQK1SqcQb3vw2Dj3yWCad/cIX87Z3vIcPfPCjfPUb3+L6G25ifHyClSuW87EPf5B//vV8Hr7/bp5/9lkAPBlHHXkExxxzFD/68c+IogiAHTt3cs1113PuC59PJpMB4N/pjjvvYuPGTXz281/i0COPJXHMCSezes1aACbNmzuHc84+i/d96KPs3LkLgEmDg4Oc+5JXcMQxJzB34TJmzl1EYu7CZRx8+NGccPLpvOd9H+SSy66gob6O9777Hfzp97/myCMOB+DZhgjHHHMUP/nZL3nHu9/HyMgoAP/NPvv5L3LokcfyeN7ytndRLJUASGzYsInPf/Er7MsHPvhR3vGu9/G5z3+Zz3/xK+ztD3/6C9VqFYB/Zdv27ezctZuDDzoAgCdjfHycz37+ixx80IEcf+wxDI+McPGllzN9+nSOOeYo9lYslbj77nsASMTW8sijj3Hjzbdww403c/6Ff+XCv/6dG2++hVo7d+5ibGycr379m6xavQaAp+LBhx7m8iuvYl/Wrd9AFEUAJEZGRrnm2uu4/Mqr+FfuvOtuojgGYFKxVOLa62/gM5/7Ih/9+Kf4xKc/x2VXXEmxVALAZS5zmctc5jKXucxlzwYD8FT8/g9/4m3veA/7cuoZz+PQI47l9jvuBKBSqfDt7/6At73jPfwr73rvB9i+YwcAqsp119/IoUccyxve9DYuv/Iqbrz5Fq6+5lre/s73cugRx3LpZVegqgA8FZlMmne+/a18+Yuf4/G8+lWvAOCJrF27ju07dnDC8cfR19dPrdHRMeIoZnBwkL6+fiYNDAwSRREAixct5Mtf/By1PvvpTzBv3lxe/apX8OUvfo7EYYccTOLLX/wctT79yY8xdeoUACaNj4/z/R/+iDAM+c73fsjb3vEe/pWPffIzjI2NA7Avqsr5F/6V3j17eNtb34Tv+wA8GQ899DBf++a3+eLnPs3m9av40Afey1FHHs4jD9zNbTddxxVXXsO9993PZRf/jUceuJujjjycD33gvWxev4otG1Zz8oknABBFEZ/41Gd54Xkv4/4HHmR8fIJf//b3nHjKGfztHxcD8GR9/otf4YhjTmDSq1/7RsbGxnn3ez7AEcecwKRTzjiL9Rs28sc/n8+Rx57IEcecQOLcl7yCwcFBACZdf8NNjIyOUq5UuPzKq0jcetsdFAoFbr3tDi6/8ir21rtnDwDPtkqlwre/+wM+8MGP8vkvfoVaX/rq1xkeGWHL1q18/otfodbnPv9l3vGu93HNtTcAsC8HH3wQZ55+Go/n1FNOpr2tDYC91dfX84+/ns+WDauptXn9Kq6+4hL+duGfufmGq/nB977FZz71cc45+3lMnTqF3/7+D/T3DwDwZPi+zxtf/1q2bd/Ops1bAPjr3/7B9GnTOPHE4wH4dyoUi/zhT3/hVa94GZvXr2LLhtX8/Kc/pL6+nsbGBgAmiTG8/KXnMXfObDZu2gTApDi27Ny1i7Of9xx+8qPvcdtN13H37TeTWPvYg2zZsJpVj9zP9Vdfzje//hVe+fKXcvhhh9LQUA/As833PE456UQu/edf2bRpM695/ZvYum0bL37Zq5g5dxGTDj3yWHbt2s0b3vQ2Zs5dxKQjjz2Rvr5+AJ6s93/wI8ycu4i9XXv9DQD8K+97z7tYvGghn/7kx7j79pupdebppzF1Sg/5XA6AxNFHHcEdt9zAvrzzHW/jkIMP4rprLueOW25gbz/47rfIZbMA/CvXXX8DYVhlw8ZNXH7lVeztzrvuJopjABLFUolPfeYL7Nq1m4995IP4vg9A4PssWbyQgw88kL1NnzYNgEm5bJYffPdb3HHLDfzuN7+gubmZb3/jq9xxyw1cd/XlXHPFJdxxyw28/GUvoVwu889LLmPX7t0APBW//8OfeNs73sO+nHrG8zj0iGO5/Y47Adi+Ywfveu8HeNs73sO/8u3v/oBKpQKAqnLd9Tdy6BHH8oY3vY3Lr7yKG2++hauvuZa3v/O9HHrEsVx62RWoKgAuc5nLXOYyl7nMZS57JgzAU3XYoYfw2MP3sWXDamrdcuM1zJ07m/d94CNs37GDfC7H+X/6HVs2rGbSJf+4iGw2wy9+9iO2bFjNpNWPPMCypUsAuPKqa3jjW97OEYcdyh233sDdt9/MHbfcwN2338wD997BaaecxHve90GuvOoaAJ6KcrnC93/4Yz768U/xeH77uz8A8HiiOObXv/09Bx14ALt393LokcdS6/0f/Ah7+vo443nP59Ajj2XSMSeczOo1awFIrFq9ho9+/FNM+vRnv8D69Rv47e/+wEc//ikSd91zL4mPfvxTTPrq17/J2Ng4AJNUlT/++QI2btrC1Vdcwi9+9iOy2QyX/OMitmxYzeO5/ebr6ehoB2BfHnr4Eb7/wx/zlje9gcWLFgKQ+PP5F/Ku936A4ZERAPZWKpX54U9+xpmnn8aLz3sRIsIrX/5SXvTC51MuV7DW0tPdxde/8iWWLF5EfX09n/30J5g+fRpxHAMw6fwLLuLCi/7Gj3/wXS7++4X84Hvf4u7bb+b555zF177+Lbbv2AHAk/G8557JJz/+ESZ96pMf5Qff+xbf+PqXeePrX8vw8AhnP+85fOFzn+KH3/82X/jcp/jkxz/CpLe/9U3k83kAErt39/Lr3/yOdDrFz3/5az7/xa+Q+Pkvf834+AQ//+Wv+fwXv8LeNmzYBMCTNW/eXD776U/w5S9+jlovPveFAOztne94G3fccgNP1nXXXM4hBx8EwON5w5vexsy5i3g8S5YfxF133wPAvvT19XPeS1/BL371GwAScRzz5a9+g0986rOUy2UAEqrK+Rf+ld//8c8UikUAEpVKhZ/+/Jd89OOf4vIrruSue+7lox//FOdf+Ffe/8GPMHPuIk478yweefQxTj3jecycu4jvfO+H3HX3PSxZfhAz5y7i2utvAODf4eprruWee+/DqtLbuwdV5ZZbbmPmjOk8+tgqLr/yKtasXUv/wABXX3Mtt9x2O2ef9VxSqRRRHANQ6+CDD+LkE09gypQeOjraSaTTaQD2h5kzpvPbX/+cT3/yY7S1tQHwzre/lbtvv5nEFZf8nc6ODr759a9w9+03k3jVK17GgvnzaGxsAOD9H/wIM+cuIvHXv/+Tu+6+hyXLD2Lm3EUk3v/BjwCQOPSQg/jRD75D4stf/BwNDfUAJCqVCj/9+S/56Mc/xRe/8jX6+wf47e/+wEc//il++vNfksvnaG5uolgs0tHRzqS6+jpGx0ZZtGghALV27tzFq177Rh548CEAnoiq8vkvfoXvfO8HxHEMwL+ye3cv//jnJYgI3/vBj/j8F79CrQ988KN8+7s/oFKpANDfP8Ab3/w27rv/AX7+0x8yZUoPAInxiQne8/4Pc/YLz2Nvv/zVbwDYm6ryl/MvZO6c2Zx44vHEcczHP/EZ3vqOd1MoFgF4pg479BAee/g+tmxYTa1bbryGuXNn874PfITtO3awbOkSVj/yAFs2rGbShz/4fnp6urn79pvZsmE1k87/0+/I53IAXHnVNbzxLW/niMMO5Y5bb+Du22/mjltu4O7bb+aBe+/gtFNO4j3v+yBXXnUNAC5zmctc5jKXucxlLnsmDMCzZdrUqXzw/e9lYGCA++57AICnavfuXr769W9ywvHH8v3vfpPuri4AJjU3NfHVL3+Bc845i09/7gts2boNgCfLM4YDVq7kmGOO4vEsWbwIgMfz8MOPcMutt/Gyl5zHCccfy92338ykF73w+Rx37DG0tLRwwMoV/OzHP+Du228mccsN17Jo4QIAErt27+aiv/2DYqkEwJOxY+dO/nnJZZTLZQAmXXnVNXzjm9/mLW96PfPnzQUgrIbcetsdXH7lVezLho0bAXg8g4ODfOgjH+fAA1byype/FBEBYMvWbXz7u98nlUpRX1cHwN6y2Qw//dH3+dhHPsjLX/U6Zs5dxLIDDuW97/8whxxxDHMWLOVd7/0Ab3rrO5g5dxGJk097Lu941/v4+S9/A0CiUqlw7fU3cMopJ5EASGQyGc44/VT29PWxdet2AJ6MlSuWc+bpp7Evy5YuIZ/P85wzz+DM009jX44/7lgymQwAqsrPf/lrxsbGufAvf+SOW25g0m9/9TO6ujr57a9+xh233MDejj7qCAASg4ODnPuSV3DEMSfw/g9+hF27dvPcc17IEcecQOL7P/gR99x7HyedciZHHHMC+3LrbXcA8O/0za9/hbtvv5nHc+N1V3HAyhUA7EtHRzsnHH88P/vFr9iydRsAvu/z+te9mgcefJiHH3kMgMTDDz/CT3/+S979jrcxc8Z0APY2PDICwKRXvuJl/OgH32HSW970ehoa6vnyFz/Hj37wHSYtXbIYgGfbQw89zGc+90Ve9tIXUyoWOfr4k3nu2S/kor/+nSWLF/P+D36Et73jPfzz4kvZtGkz733/h3nbO95D4tvf/QGVSgWA/0blcpmHH3mUOI7p7urigJUrAEjkcjk6OtpJtLa24vkejY0NdHS0k81mePiRRzn+uGNJp9MAvPIVL+NHP/gOiUMPOYjZs2fx7W9+lR/94DsceshBAEyaNnUqZ55+GomTTjieuro6AJ6MXDbLvLlzWbd+A6oKQGJgYIDNW7aycMECAGo1NNQzNjbGr37zO6I4BuDxrN+wkX9cfClzZs/G8zwAEg8+9DCXX3kVa9aupX9ggKuvuZY777qbKIr4018uoFyucOk//8odt9zA3t75jrcBkCgUi7z9Xe9lfHyC8//8O+bMns3d99zL8MgIAA0N9fz2Vz/jjltuYG/vfMfbANjbPffezz8uvpT3v/fd5HM5PM/j/e99F9u37+BPfz4fgH+XaVOn8sH3v5eBgQHuu+8BAJ6q3bt7+erXv8kJxx/L97/7Tbq7ugCY1NzUxFe//AXOOecsPv25L7Bl6zYAXOYyl7nMZS5zmctc9nQZgGdTW1sbDY2N7O7dA8BTdcONN7Fz127e/tY3k8lkANib7/u88fWvpVwuc8WVVwPwZAWpgKOPOoIzTz+Nx3PwwQcBsC/lcpkf/vinVCoV6urqSKfTdHS0k0in0wwMDHLoIQeRyaQ55ugjeejhR+joaCfR1taK7/sATGpvb+PjH/kQX/7i5/jspz/BvHlzefWrXsGXv/g5EocdcjCJL3/xcyRe/apXAFBr9eo1fOTjn+TcF72A1776lQAkojjm57/8NZ//4lfYl7vuugeAfYmiiG9867v07tnDxz7yIerr6wGI4pgf/+RnALzjbW/B930A9kVEMJ4HwIc/+H62bFjNE3ns4fs47NBDAJgUW0s+n2f5smX4ngfApCiMAHg6brzpZj768U9R60tf+TpjY2P84le/4aMf/xS1vvr1bzI2Ng7ApJtvuZXf/f6PvOH1r2He3DkAPB35fJ63v/VNfPLjH+HLX/wcP/rBd/jMpz7OJz/+ERLf+PqX+cH3vsWnPvlRPvnxj7Avc+fOBsD3PE484TgWLZzP57/4FY445gSejDvvvJsTTziORQvnA7Av69ev59777+fxPPDgg4yOjQHweM570fNpamzkr3/7B6oKwOJFC1m6ZDGXXnY5qsrQ0BCf/MznOfigA3nhC84BYFI6nebNb3w9H/nQB2hpbuagAw/gS1/4LC8+94WsXLGcM08/jUkHH3wQdXV1nHTC8Zx5+mlM6ursBODZtHPnLt7z/g8xf948Pvqh9/PNr3+FB+65g4aGBubPn8f73vNOVj/yAA/ddxfLly1FRPjDb3/Flg2rSZz/p9+Rz+UAqPWGN72NmXMX8VS8+GWvolAsAvBsuf7Gm3jRi1/Ohz/2SYqlEgBPRu+ePhobGznxhOMASKxcsZwzTz+NxLSpUzlgxXKef/ZZnHn6aUybOhWAJyOdTvPmN76eL3/xc5z7whcQRREvf+lL+PIXP8eb3/h60uk0K1csZ9Wq1QyPjACQWLtuPb7nM3fubABq1dfX8/rXvprrb7iJ1avXALAvqspfzr+Q1pZmjjziMAAm/f4Pf+Jt73gP/7z4UjZt2sx73/9hvv3dH3DnXffwq9/8jte/7tV0d3URxzEAjyefy/HJj3+EC/78e7q7uli/YSPvfPf7ue22OwAYGxvn1a97E0cccwJ7+/4PfgRArZ07d/Hhj36cl7/0xcyfN5edO3dx7fU3cOFf/0Ymm+XHP/k569ZvAODfpa2tjYbGRnb37gHgqbrhxpvYuWs3b3/rm8lkMgDszfd93vj611Iul7niyqsBcJnLXOYyl7nMZS5z2dNlAJ5N27ZtY2xsjGVLlwDwVERxzC233c7KFctZMH8eAI9n2rSpLFu6hLvvuYdKpQLAk1EqlXn1697EEcecwON5/wc/AsC+/PVv/+C6628EYG8PPvQQqVTAjBnTATj4oAO55957GRgYBGBf4ihmcHCQvr5++vsHqFarjI6O0dfXT6JUKpPo6+snMTo6BkCtefPm8rGPfIiPfeSD+L4PQCKbzfDbX/2MO265gX15+cteAsDeoiji05/7Ihde9De++qUvsGTxIgASN9x4E3/92z949zvexswZ0wF4Mr769W8yc+4insiS5Qdx1933ADApl83yg+9+i7e++Q0ATBofH+f3f/wTs2fPYuGC+QA8FavXrOOqq68ljCIAEgsXzOdFLziHXDYLwKQdO3fyz0suo1wuAzDp6KOO5M9//C2vfPlLEREAno5MJsPxxx3LmaefxnHHHsPBBx7Ik3HYIQdz2iknc+bpp9HV2QlAOp3mzW98Pccfdyzz58/j+GOPoZbneSSOP/YYanV3d/HmN76e4487FoBanmeY0tPDPy+5jM9/8Ss8nq9949uUSiUa6usA2JfW1lbe9pY30dzURBiGAIyMjvKyl5zHRz/8QUSE3j19tLW18rlPf5JMJgPA3tatX8+qVau55NLLufKqawDYX0qlMp/9wpeoVKts3LSZc1/yCu6+5142btrE2rXrePvb3kx9fT0A27ZvZ+eu3axYvoyrr7kWVQXg8Xzz61/h7ttv5qn4yY++Ry6bBeDZcubpp3HhX/7Abbffwevf+FZGRkYB+FfmzZ3Db3/1M6ZNnQrAE4nimGKpBMBToapcfc21qCof+ujHeeihhwFILF26mEKxyMaNmwBQVa66+lpWrFhGW1sbAHs7/rhjmDd3Dhde9DdUFYC9PfrYKs6/8K+89S1vpLW1FYBJ3/z6V9iyYTUf/uD7OezQQ3js4fv4w29/yR///BdWrljG2c97Lm966zt4+7vey8jIKAC1WlqaSafTACxbuoRMJsP4+Dif/fwXWbp0MSefdALTpk7lO9/8Kl/43Kf45Mc/wt6+8fUv88pXvAyAxMjIKG966zvYvGUr3//hj1l58OGcedbz+cEPf8Lo6BhvfN1rmDp1Ct/93g8JwxCAf4dt27YxNjbGsqVLAHgqojjmlttuZ+WK5SyYPw+AxzNt2lSWLV3C3ffcQ6VSAcBlLnOZy1zmMpe5zGVPhwF4plSV4ZERrrzqGj7y8U9x7gufz+GHHQLAU1GpVBgaGmb6tKnk83kAHk8um6Wrs5OJiQJRFAHwZPiexxtf/1o++fGP8Hhe+uJzAdjbQw89zHe+/0Pe9IbX0dTUBMCkKI656G//4MzTTyOTyQAwb+5curq6uOW22wDYlz19fZzxvOdz6JHHcvxJp/HAgw/x/g9+hEOPPJbE5VdeReLQI48l8f4PfgSAWr7v8+JzX0h9fT0Ak8JqyK233cHlV17Fvlxz7XWMjIwCMCmKIr769W9x/vkX8pUvfZ7TTzsFgMTg4CBf/8a3OeKIwzjnnLMAeLI+/MH3s2XDap7IYw/fx2GHHgLAEymWSnzqM1/g/gce5OMf+RBtba0APFXz5s3ls5/+BF/+4ud4Iq9+1SsAqFWpVPjFr37D3/7+T770la/z0Y9/ilrf/+GP6e8f4Ps//DEf/fin2JfzL/wrALV+9/s/ceiRx/JkPO/55zI4OATAvrz43Bfy5S9+jlqHHXIwiS9/8XPUWrxoIQD70trayoV/+QN33HIDT8bLX/YSAB7POWc/j9e99lWkUikAHn1sFZ/74pcZHx8HYPGihfzq5z9hypQeAPamqlx62RV0dXfR3d3F177xLR566GEGBwc59yWv4IhjTiDx/g9+hF27dvPcc17IEcecQOLzX/wKAM+mbDbDpz/xMf751wu4/ebreM2rXsEb3vw2XnDuSznt1JM54bhjAVBV/v6Pi5k2dQof/+iHuPGmW3jo4UcA2NvY+BhRFNHZ0UFHRztPRXNTEyLCjh07+eznv8RHP/4pnq7zL/wrAIkVy5dx0V/+SKFQ4JZbbwMg8dWvf5OZcxeROPTIY9m1azdveNPbmDl3EYkXv+xVFIpFAGoVSyV69+zB930AKpUKQ0PDzJ07F4Ana/2Gjdxz3/0EQcCxxxzNm9/2Lh5+5FEApk6Zwtw5c7jxplsA2LFzJ7fdfgennnwSvucBsLf6+npe9pLzaGxsJAxDAPY2OjrG2Wc9l1NPORmAfyUIAj77qU/w/e98k46Odj736U+ya9duXvXaN7C7txeAxMTEBLlsFt/zAEhEUcSXvvJ1Vq9Zxyc+9hEAHnzoIcIoAuDx7Nq9mzvvupsojmlsbOArX/o8t910HQ/ceweb16/ilhuu5Xe//gWf+dTHeeELzuFTn/goz33OGXi+B8CzRVUZHhnhyquu4SMf/xTnvvD5HH7YIQA8FZVKhaGhYaZPm0o+nwfg8eSyWbo6O5mYKBBFEQAuc5nLXOYyl7nMZS57OgzAU3XX3fewZPlBzJy7iMSseYs54OAjePu73ssrXvYSPv/ZT+H7PgD/bnv29FEqlQF4MoJUwNFHHcGZp5/G4zn44IMA2FsUx7z9rW/muc85A4Baq1evYdu27Rx26CEAJDzP44XPP5tf/PI3DA4OAlDr5BNPYMuG1UzavH4V73z7W5k/by733XUrWzasZl9uv/l6OjraAXgiURzz81/+ms9/8Svsyze//T169+wBIFEslfjghz/OL3/9Wz75iY/ywhecg4gAEMUx3/ruD+jds4ePfOgD5HM5iqUSwyMjAPwrX/36N5k5dxFPZMnyg7jr7nsAeDxRFPH5L3yZ6264gZ//5EeceMJxADwd/QMDXH3NtVx+5VU8kXvvvQ+AJ+OW224n0drSwrkvfD4NDQ1cdfW1PPrYKgCejMMOPYTHHr6PLRtW83h+8bMfAfBEHlu1mrNf+GLWrF0HwFP1xz/9hSOOOYGn69yXvILBwUEAduzYyWc//yU++vFPsbff/u4P9PcP8MWvfI2PfvxT7O2nP/8llUoFgMTWbdt5+JFHOfrIIzj80EN4w+tewwc/8nEmCgXe/tY38cmPf4TES198Lg0N9bz33e/kkx//CInnPfdMAJ5tU6b00N7eRiaT4cgjDmfmjBkcecRhfOwjH8T3fQCuvOoafvf7P/LqV72cgw86kLPPei7vff+H2LlzFwC1SqUynufR2NgAwNMxUShwx513cePNt/B0rVu3HoBJU6b08LeL/sLznnsmqGKt5Wtf/gInnXg8r3rFy7j79puZdNftN3HaqSczbdpUctksALXCasj4+AQzZ84E4OlQVf5y/oUcf+zRtLe3cfZZz+U1r34l7//gR9jd20smk+HcFz6fv/3jn2zfsYNLL7uSXC7HEYcfBsDjOe/cF/L+976LVCoFwN6OPuoIvvT5z5DP5QB4Mjo62mlpaQFg6tQp/O7XvyCfz/PzX/6aOI4B6O3tBWBSuVzmU5/9An8+/0IymTT5XI5CocAPf/wzPv/Fr7C3z33+y7zjXe/jXe/5AJ//4lf4w5/+QrVaRURYtnQJU6b00NzUhIjw2c9/kQRA4uCDDuSM00/FiAHg6brr7ntYsvwgZs5dRGLWvMUccPARvP1d7+UVL3sJn//sp/B9H4B/tz17+iiVygC4zGUuc5nLXOYyl7ns6TAAT9UBK1dw43VXcfftNzPpqssv5k1vfB3f/Pb3+PTnvkgUxwA8HcVSiSiOAfhXuru7yOayADwZpVKZ553zImbOXcTjecOb3gbA3lauWM6rX/lyRASASVEU8ZOf/oLTTzuV7u4uACYddughdHV1cv6Ff0VVAUiMjY3T19dPrdtuv5Nf/OrXnPuiFxDHlr6+fp5IpVIB4PFksxl++6ufccctN7AvV172TxYumA9AIhUENDc38f3vfpNXveJliAgAiWuuuY7zz7+Qd779rSxZvIgoivjUZz7Pa173JoZHRgB4Ih/+4PvZsmE1T+Sxh+/jsEMPAeDxXHHl1Vx40d/44fe+w9FHHQHA07Vly1a++rVv8fkvfoUn8ufzLwSgVjqd5s1vfD1f/uLnmPTJT3yUGdOncdQRh/PlL36OxGc//QnmzZvLmWeczpe/+DlqvfjcFwKwt2q1Sn//AH19/Tye0dExAJ7I+vUbKBYKdHS0AzCpVCrT19dPrYGBQaIoAmDSYYcdwic//hH25UMfeC/ZbJZpU6fwyY9/hH15+1vfRD6fB2CiUOCOO+/ixptvodaFf/07t952B2EYcsmll/PPiy/lxptvodYjjz5GbC0Aqsrvfv9Hjj7qSGZMnw7AC19wDu9/77uZPm0axx93LGeefhqJgw8+iLq6Ok464XjOPP00EitXLAfg3yGOYy6+5DJOf+45TJ0yhZ/88HvU19cTxzG/+s3vePu73su5L3oBz3vOmYgIb3rDa+np6eat73g3O3bsBGDS6OgYcRyTzWbo6+vnyGNPZObcRfwr115/AwCJhQvmc+Vl/+SOW27g6frkxz8CQK3773+A3bt7KRSK7Ny1i5bWFs4563ncceddGGPo6GgnUa1WefiRRznt1JMREQBqjY6Nsru3l1kzZwDwdNxz7/3cdMutnHzSiQCICC9/6Xmcc/bzaG5qAuDoo4+ko72dr3z1m/z6t7/jVa94GW1trQBMeuTRx1i07ABmzl3Evnz169/krrvvYcnyg5g5dxH78uOf/gKAJ6upqZFf/PSHfOj97yWKIgBqVSoV3veBj3DDjTfx7ne+DYBEa2srF/7lD9xxyw3s7bprLueQgw/i7Oc9hztuuYEffPdb5LJZACqVCn19/Uwqlcok+vr6SQwODhLHMQDPxAErV3DjdVdx9+03M+mqyy/mTW98Hd/89vf49Oe+SBTHADwdxVKJKI4B+Fe6u7vI5rIAuMxlLnOZy1zmMpe57OkwAE9VKpWivb2Njo52Ji2YP48Pf+B9vOsdb+Wyy69gy5YtADwV+VyOmTOms279BkaGRwB4PKOjY6zfsJFp06aSy2YBeDIymQy/+/XPufv2m3k83/z6VwDYm+d5iAgAta686ho2bt7MOWc/F4BamUyGN7/xDfzmd3/goYcfASDx2c9/kUOPPJZar3j16yiVynzxy1/j0COP5V+55bbbAZgUxTEAiWOOOpJbbriWeXPn8Mtf/5bvfv9HqCoAiWKpxJq161BVABK+7/OpT3yU55xxOiICQGLL1m18+nNf4LRTT+G1r34lAL7v8463vYXdvb385fyLAHgi3//BjzjimBN4Iiedcib33HsfAI/n1ttuZ/HiRSxfthSAZ+KQgw/iumsu545bbuCJfPPrXwHgXymXy/T19TNv3lwAnq6HHn6El7zsVZz9wvN4PJ/7wpcAeDxRHHPdDTeycOECGhoaAJh0+ZVXceiRx1LrmBNOZvWatQBMmjtnDmeefhqJKd3d/PZ3f+SAFSs48/TTOPWUk2lva2Pa1Kmcefpp7Mvxxx1LJpMBYOGC+Vx52T+545YbmPSTH3yXmTNm8P73vouenm6+9uUvMH3GdC76yx+545YbmPSD736LXDYLwK233cEVV13N8557JogAkMlkOO3UkxERAPaHzZu3cM4LX8z7PvgR3vn2t/C973yD+vp6hoaGePmrXsfnvvBl3vvud/D5z34K3/cBqK+v54ff+w6NjY085+wXsHr1GgASAwMDNDY00NLSAkDim1//CnfffjP7csUlf6ezowOAf6eh4WE+/snPcNfd9zA4OIiI0NnRwdFHH0kul+OCi/6KqpK44MK/0dHezsEHHQjA3rZt20EcxcyYPg2Ap2rnzl18+KMf50UveD7Tpk4FIFFfX8/b3/pmMpkMAM1NTbzm1a/gsiuupKmxkeeeeToAtRYtXMAtN1zL3bffzL688+1v5YCVK7jxuqu4+/ab2ZdXvfJlADwVqsqXv/oN3vGu91GpVACYlE6nOefs5/G3C//MsmVLAUicf+Ff+ejHP8W+fPqzX2D9+g3cdc+9fPTjnyKxavUaAG657XYOPfJYJl1+5VUkDj3yWBLPe/65DA4OAfBMpFIp2tvb6OhoZ9KC+fP48Afex7ve8VYuu/wKtmzZAsBTkc/lmDljOuvWb2BkeASAxzM6Osb6DRuZNm0quWwWAJe5zGUuc5nLXOYylz0dBuDZtHLFcqqVKoVCEYCn6swzTmPz5i3cctttADyeBx96iEcfW8VxxxyNiACwL3EcMzg4SF9fP6OjYwA8GXEUMzg4SF9fP2Nj4wDsy0MPPcxnv/Al3vbmNxL4AX19/YyOjhFHMYODg/T19TN37myec8bpvPf9H2Lnzl0AfPPrX2HLhtVM+vY3v0pjYwP//Ov5bNmwmlq//80v6eho56rLL2bLhtVMOvnEEwBIlMtlXveGt/Cd7/2AQrHIq177Ri7869/JZDIsW7qU3/7+j9xz7/0AJB588CFe9srXcs+99wPweMbHx/n4Jz9NPpfjYx/5IL7vA5CYOWM6737H2/jFr37DuvUbANhbLpvlJz/6HjdedxUvesHz6ers5M9/+C3//OsFTPrVz36MjS0f/MB7ufPWG3nVK18GwL689CXn8bGPfJB8XR6AZ6JardLfP0BfXz9PZHR0DIB/ZePGTezp62PF8mUAPJEojgHYl0MOPojrrrmcO265gcfzza9/BYDHs3v3bu655z4OWLkC3/MAmPTC55/Nlg2rqbX6kQdYtnQJAPtyw003A9DQ2ADApO07dnD5lVdR68abbqZcLgPweLZs3cb7PvRR3v62N7Fw4QIAjj76SM4563m89wMfpr9/AIC9dXZ28K53vI15c+cAMGlwcJBzX/IKjjjmBCa9/4MfYdeu3Tz3nBdyxDEnMOnzX/wKAM+mhoZ6jj7qCG649gre/MbX4/s+AC0tLbz21a/kmisv5Z1vfyu+7wOQUFVS6RQ//8kP+OmPvs+8eXMBSDz40MNMnTqFfC4HQKKxsYGOjnb2pbW1Fc/3APh3euSRR6lUqhx00AFs3bYdz3h0d3XR3NTEB973Hr7/wx9z5VXX8PDDj/Cnv1zAG1//WpqbmgDY2x133kVrawudXZ0APFVWLTNnzuC8Fz0fgCeSSWcwxtDU1EgqlQKglu/7tLW10tHRzr7kcjlSqRTt7W10dLSzL/lcDoC9qbWs37CR++5/AIDE8MgIX/rK11l58BHceNMtvOqVL8f3fQBqnXrKSXR3dQHwTB1z1JHcffvNTDrz9NNI3H37zSQu+fuFtLa2APDvsnLFcqqVKoVCEYCn6swzTmPz5i3cctttADyeBx96iEcfW8VxxxyNiADgMpe5zGUuc5nLXOayp8MAPJtaW1tRlP6BAQCeqsMOPYQTjj+Wb3/nB2zYuBGAvW3Zuo3PfO6LHHXk4Zx44vEAPJ7BwSGe9/xzOfTIY3n/Bz9CuVzmVa99I4ceeSyP5/0f/Ah7+vo443nP59Ajj+Wzn/8iAHvb09fH+z/0MU4+8QSmTp3CMSeczKFHHsv7P/gR9vT1ccbzns+hRx7LW9/+bt70xtfR09PNt7/3A6I4BmDSjh07+fZ3fkAul+PRx1axdds24jgGYMvWbXzqM5/jxee+iPnz5gKwL1u3bWfduvUcdeQRANQ68MCVnHLSCfz2d38giiIAjjj8MM4567l88ctfZXhkBIC9RVHEl77ydR559DG+882vMWVKDwC1Tj/tFFpbmvnlr35DFMcAJEZGRrnm2uu44qqruePOu7j3/vvZtn07o2NjPPDgg9x7//1MevDhRyiVS6xfv55777+fm26+hcuvvIoNGzcCUGvevLksXrQI3/MAeCYeePAhjj/pNA498lieyPs/+BEAnkgURfzmt39g9qxZLFwwH4An8stf/Ya3veM9lEplAGr1Dwxw9TXXcvmVV/F47r33PgAez6WXXcmevj7++Ofz2blzFwBP1+7dvfzjn5fQ091NOpUCYNL9DzzE57/4FWr98Mc/o1AoALAvDz38CC9/1Ws58fjjeN5zzgQgYcTwhte9mjmzZ/GSV7yaDRs3AlBr/ry5vPTF5yIiAEwKghQHH3QAxx97DJOWL1tKEAQccfhhHH/sMUyaP38eAJPGxsYpFIsAPF2tra18+IPv57bb7+T9H/ooYRgyPDLC93/4Y+bPm8u8uXNYs2YtZ7/wxTy2ajUAN950Cyedeibbtu/g8MMOxfd9AArFIqvXrGXxokWk02kA/htEccxFf/sHhx56MD3d3dx+x53MmTOL+vo6AI4+6gje/c538O73fZCXvuI1nHryiZx+2ikA7G18fJzbbr+DIw4/jOamJgCequ7ubn7w3W/R2toKwON56KGH+fDHPsGhhxzMho2b+dJXvk4URQD8u4yNjdM/0M89997HwYcfwymnP5eHH3mUO+68i+e/6CUccPARXPS3f/Clz3+Gqy7/J8ccfSSe5wHg+z4Aj+fF576Qz3/2U8ybO5eTTjqBL3/xc0z67Kc/wbx5cznskIP58hc/R2LxooUApNNpOjramZTNZkh0dLSTaG1txfM8AP5dWltbUZT+gQEAnqrDDj2EE44/lm9/5wds2LgRgL1t2bqNz3zuixx15OGceOLxAEwaGh7mez/4MZ/49Oe4+557UVUAXOYyl7nMZS5zmctc9ngMwLMpm82QTqfp29MHwFOVyWT43Kc/SSaT5pwXvoSf/OyX7Ny5i76+fnbu3MXv/vAnnnv2CwH4yhc/Tz6XA+DxtLa2cMnfL+Tu229m0u9/80uOOfpI/nrBn7j79puZ9JY3vZ758+bykx9+j7tuv4m7b7+ZxKc/+XEA9tbR3s673vFWPvaRD3LgAStZ/cgDbNmwml/87Ef09HRz9+03s2XDas7/0+/o7uriS1/4LB/+wPvwPQ+ASVOnTuGKy/7B17/yJR5bvYbnnfMiFixZyYte/HKee/YLOfDAA3j7W9+EiACwN1Xlj3/6C11dnSxcMB+AWr7n8ZpXvYLTTj0ZgB/86Cf85Ke/4I2vfy1jY2NcfvmVANSKoogf/OgnXHjR3/jql77AihXLAag1NjbO2PgEBx14ABdfehmrV68BING7Zw/f/Pb3+PwXv0LiM5/7Iv+8+FJ6d/fytW98m89/8StM+vZ3v8/Y2Dh/Pv9CPv/FrzDprrvuAWDS8MgILzzvZZxwyhls2rQZgGfisEMP4bGH72PLhtU8kV/87EcAPB5V5Re/+i1XXHU1b3jda6ivrwfgiWzatJlsNkMCoNbI8Ai33X4nt9xyG4/nsVWrAdiXLVu38evf/o73veedHHrwQbz1He9mx46dADxVqsrPf/lriqUSjz72GH/9+z9RVQASZz/vOdxxyw3UuvAvf6C1tRWAWuVymZ/87Jec+5JXcObpp/HhD74P3/cBmOT7Pp//7Kc48fjjOPN5L+AnP/sl5XIZgCfS0FDPhz/4fr78xc8x6dWvegXt7W18/CMf4stf/ByTXnzuCwFIrF69hmNOOJmTTjmT7Tt2APB0lctlLr/iKro6OwmCgDiKufCiv7Nx82YAuru7UWt56KGHATji8ENZvGgh3/3eD4miCIDEpk2b2bBxE8cfdwwA/y02btzE7XfcxfOecwbDwyPcdsednHLSiaTTaQBEhMMOPZi6ujpK5TLTpk0FYF/uf+BBVq1ew5lnnIaIAFAqlti9u5dZM2cA8K/4nkc+nwfg8Tz8yKO89g1vYdnSJfz8Jz/gi5/7NBde9Dd+9otfEccxAM+mOI55x7vex/IDD+VXv/4dM2fO4D3vegd33HIDr331K0mn0+RyWX71859wzx03c965LySTyQBQKBbZsXMXM2fOBOCJ+L5Pd3cX73z3+7jiyqsBeKaiKGJ8fJyOjnZuv/l6Tj7xBACeTdlshnQ6Td+ePgCeqkwmw+c+/UkymTTnvPAl/ORnv2Tnzl309fWzc+cufveHP/Hcs18IwFe++HnyuRwAicHBQV7zujdRKpdYvGghH/7oJ7j1tjsAcJnLXOYyl7nMZS5z2eMxAM+mzo4OZs6YwRVXXU2hWATgqZoypYe/XfhnXvSCc/jaN77FUcedxKFHHstRx53EZz73Rc484zQu+PMfmDKlB4An4nkera2tdHS0E6QCfvjjn/Kq176BXC7H9GnT6OhoJ9He3sYLX/B8li1dwtve+R5e+/o3s2XrVtrb22hoqAdgbyLCWc97DvX19QD8KzOmT6e9vQ2AveVzOQ4/7BBect6LeMl55xIEPo8+toqGhnr+9vd/cuZZL+BPfz6f4ZERAGo99PAj/PXv/+T1r3019fX1ACSsjQFILFq0kLOe9xyiKOLue+5jT18f3d1dnHfui/jVb3/PwMAgAInx8XE+/bkv8p3v/ZAjjjicvv5+PvrxT/GOd72PY084lRUHHcbMuYtYfuChnHDy6Vz4178ThhF/+OOfieIYgIUL5nPlZf/kjltu4Pabr+dD738v2WyGn/74B9xxyw3UuvQff6Wnp5tvfv0r3HHLDUx6+cteAsCkVCpFV2cn7e1tZHNZAPa3iYkJPvChj/LVr3+TD7zv3Zxx+qkA7G3Pnj0AJCqVCn39/cyePQuAvc2bN5fPfvoTfPmLn+PxvPpVrwBgb1EU8dOf/YKmxkZe9pLz+PQnP8bSpUs48dQz+cznvsj2HTsAeLKuvOoa/vCnv/Cpj3+Ub3z1S3z1a9/kM5/7IiPDIwA8GXEcc8utt3PamWfzjW99hy9/8XN87CMfxPd9APbm+z4f+dD7+cJnP8U3vvUdTjvzbG6/405UFYBnU1NzE21tbfTu2cPGjZsAeLpWrV7Dw488wvHHHQNANpelu7uLLVu2AtDY2MCBB6zklttuJ4pjMpkMb37jG7jlttu44867AVBVrr7mOqZNncLCBfMBmHTvvfdx+ZVXsS/X3XAjExMTAPw7qCrnX3AR06ZO4cADVnLV1ddQLBY55pijAJiYmODTn/0CLzj3pZxz1nP53re/wfd/+GNeeN7LePChh1FVABLj4+P88Mc/5Zijj2TliuUAJAaHhhgbHyOTSQOQ+Ovf/8nMuYtIHHrksezatRuAf0VVuea663nxy17JsmVL+ckPv0d9fT2nn3YK3/nW1/nWt7/H93/4Y6IoAuDZ4nkeb3rj6/jLH3/L2sce5PqrL+ctb3o93d1dABx4wEr++Ltfc+IJx+F5HgCThoaG2Lp1G40N9QD8K6efdgrvfuc7+MjHP8lDDz0MwJOhqgyPjFAqlXn4kUd59/s+yJHHnsjchcv4zOe+CMC/S2dHBzNnzOCKq66mUCwC8FRNmdLD3y78My96wTl87Rvf4qjjTuLQI4/lqONO4jOf+yJnnnEaF/z5D0yZ0gPApB07d9He3sY73vYWXvaS83j3O9/OpZddDoDLXOYyl7nMZS5zmcsejwF4Kr759a9w/p9+Rz6XA2Bv9fX1/OOv5/P73/ySfC4HQK1lS5ew+pEHOPnEEwB4PHV1dXzmUx9n3aqHuPfOW7n79pu5985bWbfqIb725S/Q3t4GwJOxu7eXD330Exx06FHceNMt/PF3v+InP/we7e1tACREhHlz5/DNr3+FO2+9kQMOWMl5L30lz3/RS9i5cxcAz6ZiqcT1N9zET372S974lndw4KFHMXfhMl5w7kvZtXs3P/vxD3j0wXu4/ebrueeOWzjvRS/ku9//EQccfARnv+A8rr3+BqIoAmDX7t2cfurJnHLyiQCk02k6Otr55re/x+FHHc8Rx5zApCOPPYlbbr2Ngw48AICXvvhcfv/rX9DW1gpAwlrlkUceBeCWW2/jhz/+KTfefAuVapWjjjycD7zvPfz+N7/gjltvYO1jD7JhzSN88uMf4Yqrrmbjxk0AJOI45vobbuKcF76Yj3zsk3zkQx/g6KOOAODpyOdy/OaXP+XKS/9Bd1cXAM/EXXffw5LlBzFz7iKeyBve9DYAalWrVb757e+x8uAj+Ocll/GNr32Zt775jXieB8CkXDbLgvnz+N0f/sThRx3PEcecwBHHnMhNN9/K0iWLAXiyyuUyN950M5dfeRV//ds/8D0fYwwAk379299z4UV/44MfeC+tra1kMhm++LlP84ff/pKNmzZz730P8Ne//5PFyw7kiGNOYG9HHXcSd9x5FwCXXHo573z3+zj3RS/g9NNOYcWK5fz1gj/x4EMPc9RxJ3HX3fdw1TXX8f4PfoSPfvxT7O37P/wxxVIJVeX8Cy5i4cL53HLjNbzw+WcjIgA8Hs/zOO/cF3LNFZfQ2dnO6OgYIgLAs6m7q4u/XfBnjj7qCFpbWwF4OlSVf/zzEmbOmMHCBfMByOdyTJ3Sw/r1GwBIrFyxnIcfeZSBgQEADjxwJccdewy/+d3vKZfLrN+wkT/95QLOfeHzqa+vB2DST372S972jvewLx/9+KcYGxsH4N9h67btXHr5FTz/nLMYHR3jpz//FS96wfPxjMcXvvRVDj78GG686Rb++Ltf8cmPf4TnPfdMrr/mCrq6Onn+i17COS98MXfceReqyu//+GceePBh3vzGNzAwMMhnP/8lPvTRT/DaN7yZjvZ2li1dAkDi0EMO4kc/+A6JL3/xczQ01APwRKI45hvf+i5vess7eM6ZZ/DjH36X+vp6AESE55x5Ot/51tf53g9+zLve8wHGx8cBeLYsX7aUww87lHQ6DcDj2b27l8998ct89OOfIvHq172JarXKwQcfBMC/IiK84XWv5jvf/DoAl1x6Of/4x8Vs3rKF2bNnATBpaHiYF7/sVaw46DBmzVvMAQcfweVXXsXg0DDFYolXveLl/POv5/O5z34KgMuuuJKPfvxTJD71mc9TKpXIZjMAPJFvfv0rnP+n35HP5QDYW319Pf/46/n8/je/JJ/LAVDrrW9+A7fffD0dHe0APJ66ujo+86mPs27VQ9x7563cffvN3Hvnraxb9RBf+/IXaG9vA6BWPp9jaGiYvr5+yuUyt9x2O4sXLwLAZS5zmctc5jKXucxlj8cA/DfzfZ+2tlY6Otppa2vF930AngobW4rFIr/46Y+4/prLOfKIwxERAPalo6OdL37u01xz5aUcfNCBNDU3ATApCAKmTplCEAQA7C2TzjClpwfPMwDsS1gN+d0f/sSVV13NlJ5uPv/ZT3LX7TexfvXD/OC73+KYo4/C930A2tpaecubXs+dt93INVdeytw5s7n55lsBSJx5+ml88+tfIZPJAOB7Hp/99Cd4z7vewQnHH8vxxx7DpDPPOI1f/uzHnHnGaQA0NTXS09MNwKTGxgYu/vuFbNmwmsTdt9/MHbfcwM9/8gO+/MXP8cqXv5Rjjj6K7q4u0uk0AGecdirf+OqXmTZtKgAJYwzbd+xg+bKl3HDdlbz6lS9HRADY3xrq6zj1lJO46fqruPv2m3kiP/jet5jS04PnGQASqVSKaVOn8KpXvIx77ryFFz7/bEQEgFoiwoc+8F7e/953ccLxx3L8scdw2ikn8cPvfZujjzoSgFoN9XW0t7chIgDUiq3lggv/xue/+BXWrlvPO972ZlpbWwCYdNihh/D5z32ak088AYCEiHDoIQfz+9/8gvWrH+a+u27lV7/4CZ/8+Ef48Afex2mnnMzxxx5D4tSTT2La1KkAHHjASj75iY/y2U99HN/3AZg1ayb//NsFPHz/3fzlj7/ly1/4LG1tbQDsraOjg1w2i+/7fPfbX+cnP/we3V1dANTKpDNM6enB8wwAtWbNmskFf/4DZ5x+KgC1GurraGpqAuDpUlVuuvkWRITZs2cB8HQMDg6xfsNGXvOqV1BfXw9AYvr06cyYMZ0ojgGYO3cO06ZOZXx8AgDf83jTG17H0iWLCcOQ2bNm8rnPfIIzzzwdgITnGab09PCH3/6KLRtWsy/33XUrhxx8EJl0BoBnW1trCx/+wPs463nPoaW1hRe98Pm87KXn0d/fz333P8DXv/JFrrv6Mo484nBEBIDuri5++qPvc/UVlzB71iza29uw1pLNZvnohz7AIQcfSENDA5lMmvHxcZ73nDP57a9/TmtrKwCHHnoIL3zB8znz9NNIPOeM03n5S19MT3c3ALU8zzClp4dMOoPveRxwwAq++fWv8NUvfZ5cNgvAJBHhuc85gz/89pccc8xR1NXVAfBEGurraG9vQ0QAeDbk83nSqRTj4xPcdc+9HLByBef/+ffMnzcXgFqZdIYpPT14ngFgku/7nHD8saRSKb73gx/xgx//lJUrlvOC558NwKR8Lsepp5zExz7yIf751/N54N472Lx+FffffRs//8kPeMubXs+KFcvJ53IA1OXz3HjzLSRyuSyf+eTHmTN7NgD/TXzfp62tlY6OdtraWvF9H4B9mTN7Nq98xcs447nnsHDpAURRxAvOOQsAl7nMZS5zmctc5jKXPR4D8P/dlCk9/OC73+LEE47D8zwAnox5c+fwiY99mHwuB8CkhQvmc+Ff/sDCBfMB2NvRRx3BhX/5A62trQDsS2NjA7/55U/5x1/P5zOf+jjPOeN0Ojs6EBEA9kVEmDd3Dt/8+lf43Gc+ie/7AOxLS3Mz73rHW/nyFz9HrS989lOceMJxeJ4HwLOlo6OdU085iVw2C0BCRHj1K1/O5z/7KaZNnQrAvnR0tHP7zddz8oknAPCf8PKXvYSf/fgHzJg+nY6Odp7Ic888gwv/8gdaW1sBmHTeuS/kU5/4KM1NTQA8nrq6Ot7+1jfz5S9+jklnnH4qnucBUOvlL3sJP/jut8hlswDUyudy/OgH3+GOW27g+qsv57xzX4iIADBp+bKlvPTF5yIiAOzN8zxaW1s5/LBDOfP00zjn7OfxmU99nC9/8XMkPv3JjzF16hQApkzp4dWvfDm+7wNQq6GhnsMPO5TnPfdMPvrhD/DlL36Ovb343BcCkPA8DxEBYG9HH3UEF/7lD7S2tgLwZL38ZS/hkx//CAD7cvKJJ3D7zdfT0dEOwL488uhj/OgnP+OjH/4g+VwOgKejra2VP//hN5xz9vMAmPTud76Nt73lTfieB8DSJYv5yx9/y7y5cwBILFu6hPe++53U19fj+z7POeN0mpuaAEi0trZy4V/+wNFHHQHAvrS2tnLhX/7A0UcdAcCzra6ujhe+4Byam5rIZbO86x1vpburixUrlvP3i/7C8557Jr7vA7C3eXPn8O1vfpW5c+bgeR6vffUred1rX4WI0NBQz4c/+H5+/IPv8tEPf4Duri4AEi8+94UkABINDfV8+IPvZ/GihQDUam1t5cK//IGjjzoCgJNPPIEXnHMWnucBsC9HHnE4L33xuYgIAE/k5S97CT/47rfIZbMAPBsaGur58Affzw++9y2uv/pyvvm1LzNv7hwA9nb0UUdw4V/+QGtrKwB7W7RoIddceSl33HIDP/vxD+ju6gJgUjqd5vWvfTUvPveFrFixnOamJkQEgH057thjuOOWG0j88Xe/5pyzn4eIAPC/SkR4wTlnsebRB9iyYTXf/dbXqa+vB8BlLnOZy1zmMpe5zGWPxwC4zGUuc5nL9rZs6RIuu/hvLF60EACXucxlLnOZy1zmMpe5zGUuc9m/YgBc5jKXucxlexMRPM8DwGUuc5nLXOYyl7nMZS5zmctc9mQYAJe5zGUuc5nLXOYyl7nMZS5zmctc5jKXueyZMgAuc5nLXOYyl7nMZS5zmctc5jKXucxlLnPZM2UAXOYyl7nMZS5zmctc5jKXucxlLnOZy1zmsmfKALjMZS5zmctc5jKXucxlLnOZy1zmMpe5zGXPlAFwmctc5jKXucxlLnOZy1zmMpe5zGUuc5nLnikD4DKXucxlLnOZy1zmMpe5zGUuc5nLXOYylz1TBsBlLnOZy1zmMpe5zGUuc5nLXOYyl7nMZS57pgyAy1zmMpe5zGUuc5nLXOYyl7nMZS5zmctc9kwZAJe5zGUuc5nLXOYyl7nMZS5zmctc5jKXueyZMgAuc5nLXOYyl7nMZS5zmctc5jKXucxlLnPZM2UAXOYyl7nMZS5zmctc5jKXucxlLnOZy1zmsmfKALjMZS5zmctc5jKXucxlLnOZy1zmMpe5zGXPlAFwmctc5jKXucxlLnOZy1zmMpe5zGUuc5nLnikD4DKXucxlLnOZy1zmMpe5zGUuc5nLXOYylz1TBsBlLnOZy1zmMpe5zGUuc5nLXOYyl7nMZS57pgyAy1zmMpe5zGUuc5nLXOYyl7nMZS5zmctc9kwZAJe5zGUuc5nLXOYyl7nMZS5zmctc5jKXueyZMgAuc5nLXOYyl7nMZS5zmctc5jKXucxlLnPZM2UAXOYyl7nMZS5zmctc5jKXucxlLnOZy1zmsmfKALjMZS5zmctc5jKXucxlLnOZy1zmMpe5zGXPlAFwmctc5jKXucxlLnOZy1zmMpe5zGUuc5nLnikD4DKXucxlLnOZy1zmMpe5zGUuc5nLXOYylz1TBsBl+9uateu48667ieIYgKdrbGycKIoAeKrK5TK7d/dSqVQAqNXX18/u3l7iOAbgyYriGIC9hWGIqgLwdFUqFQYHB4njGIAoiojjGIB9iaKIe+69j+GREQBc5jKXucxlLnOZy1zmMpe5zGUuc9mzwQC4bH/bs2cPb3/X+9i4cRMAT8e69Rs44ZQz+MWvfouqAlBr1eo17OnrQ1UB2Nsjjz7GC1/8Mrbv2AFArd/+/o987BOfJooiAJ6sH/7op7ztHe+hVCoDkLj3vvs547nPZ8fOnQA8XbfcdjvPe/65DA4OsWHjRo454RQuvvQyAPalf2CAd777/dx11z0APFUjI6Ncc+11XH7lVTxdGzZuBMBlLnOZy1zmMpe5zGUuc5nLXOay/w8MwFPx4EMPc/mVV7Ev69ZvIIoiACZFccydd93N5VdexeO55trrGBkZBWBSFEXccuttfOZzX+SjH/8Un/j057jsiisplkoA1NqwcSOXX3kVT6R3zx4AJhVLJf7+z4v56Mc/ReLv/7yYYqkEwN5UlfUbNvLlr36Dj378U3zmc1/k1tvuII5jAP6VcrnMjTfdzOVXXsXe+vr68T2Pn/3iV1x+5VXsS++ePQA8nvnz5vKFz36K737/B1x51TUATKpUKnz9m9/mxz/5OSICwN7Wr99AW2sr7W3tAEwqFIvce9/9LF60iHQ6DcCTMTAwyMWXXsZhhx1CNpsBIDF16hRK5RLX33ATAM+GuXPm8PGPfIgvfOlrPLZqNQB76+vrR1Xp7u4CoNb5F/6Vj378U+ztpz//JZVKBYDtO3bwrvd+gLe94z08XddcewMALnOZy1zmMpe5zGUuc5nLXOYyl/1/YACeit//4U+87R3vYV9OPeN5HHrEsdx+x50AJCqVCt/+7g942zvew+N513s/wPYdOwBI3HX3PRxzwim88jVv4OJLL+fGm2/h6muu5e3vfC+HHnEs111/I6oKQOKaa2/gbe94D0/k0cdWAZBYtXoNJ516Jh/88McZGBwi8cEPf5zTzzybDRs3AjApiiK++/0fcsrpz+UvF1zIzl27ueHGm3nFq1/H6974VsbHxwF4ImNj43zsk5/hox//FJ//4leo9a3vfh/jGW6/404+/8WvUOszn/sib3vHe3j0sVUATCqXy1x40d/Y3dsLQOKUU07iBc8/hy9/9Rvs2LETgMSevj4efWwVK1csB2BvURxzy223c+IJx9HY2ADApB07drJh4yaOOPwwAJ6sO+68i2KxyIknHAfApM6ODk464Xj+/o+LGR8fB+DpKhaLjI2PAXD6aafw6le+nOHhEQD2tnnzFtLpNFN6egCodffd93DLbbcDMOnRx1Zx/Q03EcUxAMuWLmH1Iw+wZcNq9nb37TfT09PNL372I7ZsWM3jeeub3wCAy1zmMpe5zGUuc5nLXOYyl7nMZf8fGICn6rBDD+Gxh+9jy4bV1LrlxmuYO3c27/vAR9i+YwcAk174/LPZsmE1+7L6kQdYtnQJAA899DBvfMvbmT1rJrfceA33330bd9xyA3fffjOPPngPp51yEm9+6zu49vobAEi89c1vYMuG1ezL97/zTZqaGpk2dSoAg4ODvOd9H2TmjBnce+et/PwnPyBx7523MmVKDx//5GcpFIsAJK697gZ+8KOf8tUvf4EH772T3/3659x0/VX89YI/8cCDD/LLX/8WgCfjm1//CnfccgNP1qX/+Cs9Pd0A1Ord08fXv/Udrr7mOgASvufxjre9mSAV8Kvf/A5VBWDtuvXEUczSpYsBqPX+D36EuQuWcsWVV/Od7/2QmXMXkbj2+hsAuPOuuxkcHOQVr34dM+cuotaiZQfwyKOPAVBreGSEX/zqN5xy0olMnTIFgEkiwrkvegHrN2zk2utvAGBvP/7pL5g5dxFP5A1vehsjI6OcfNpzmTl3EXMXLuNb3/ker3j163jxy15FoVikr6+fI489kZlzF/Ge93+Ibdu3c/DhRzNz7iISL37ZqygUiwAcdsjBfPmLn2PSmWecDsC/2+7dvdx3/wPEcQyAy1zmMpe5zGUuc5nLXOYyl7nMZf8rDMCzZdrUqXzw/e9lYGCA++57AICnolAs8qWvfoNZM2fyg+99m2lTpwIwqa6uji9+/jMcd9wx/PBHP2V8fByAx1Mul7nwr3/nmKOPYs6c2QDc/+BDbN6ylfe95500NTUCkGhqauSD738Pjz62invvvQ+ASqXC+RdexJFHHM7Zz3sOIgJAYsWK5Rx15BHccefdFIpFAP5TZkyfxnPPPIPf/eFPDAwMApDo7urikx/7MAceuBJrLVEcc/Ell7FixTKmTZ0KwN7OPP007r79ZhI3XncVB6xcAcDg4CB//NNfeM+73sHdt99Mrd/9+uc0NjQCsLfLL7+SHTt38YqXvxQRAaDW0iWLefG5L+R73/8RO3fuAqDWKSefwI9+8B2eyIc/+H4aGur58Affz49+8B1qvffd7yCdTtPQUM+XPv8Zvv3NrzJ79izOPuu5/OgH3yFx9lnPpaWlmXQ6DcCzIQojAJ6soeFhXvXaN/DC817GLbfeBoDLXOYyl7nMZS5zmctc5jKXucxl/ysMwLOpra2NhsZGdvfuAeCpeOCBh7jn3vt4w+teQ3NTEwB7y2QynPvCF1CpVund0wfA41m1eg333f8AL3rBOfieB8CGDZtob29jxvTpANSaOmUKjY0N3HDjzQAkXvOqV/C+97yTTCYDwCTPGFKpFAD/SiaT4eznPYfGhgbe8e73ccQxJ/CvnP6cs9mydRtnP+859HR3AzBJRHjJi89leGiYC//6dwAmHX/csTz3zDPwPI+NGzdxy6238YJzziadTgOwt2w2Q0dHO4n29jZSqRQAF1z0d6rVKi8+94V0dLRTq7m5GTECQK116zfwzW9/j9e/9lXMmzsHgL2JCK97zauIY8u3v/cDoigCYNLcOXM48/TTeCLHH3s0AIsWzufM00+j1uGHHYrveWQyGY4/7lgOOvAAJiYmeO5zzuDM008jkUmnaaivx/c8AJ4Nb3vne/jM577I8MgIAP9KQ0MDZ5x+KoccfBDz5s4FwGUuc5nLXOYyl7nMZS5zmctc5rL/FQbg2bRt2zbGxsZYtnQJAE/FHXfeRUd7OwcffCAAj+f0007hikv+zry5cwDYF1XlH/+8hHlz53DgASsBeLL29PURxTHpdJrjjj2GlSuWA1Br06bN3HHnXRxx+KHkczkAHk9DQz0f/uD7Wb5sKcuWLuH4Y49h0lFHHkGlXKGttZXjjz2GSUccfhg93V18+IPvZ/GihQDUmjd3Dm94/Wv4+S9+xbr1GwCopaqcf8FFtLa2csThhwHwZI0Mj3DFlVfx7ne9ne7uLgBqlctlqtUQgEnj4+N89vNfZO7c2bzy5S9FRABYt34Dr3zNG3jgwYcASEydOoWPfvgD/OMfF/OzX/yKOI4BeLJaW1upq6ujXK4A8ETWrlsPwIL58wCoVCr09fczb95cAJ4tr3rFy7jhxps55PBj+MnPfkm5XAbg8fiex/ve8y4u/MsfmDKlBwCXucxlLnOZy1zmMpe5zGUuc5nL/lcYgGdKVRkeGeHKq67hIx//FOe+8PkcftghAEy66557+ejHP8W+/PTnv6RSqdDb28uMGdNpaGgA4JnYsXMnV19zHc8/5yzq6+sBSMydO5ve3j2sXrMGgFr3P/Agu3f3MjQ0TKVSAaDWjTfdzEc//ine+Oa385yzX8hzzzyDN73x9QA8Gel0mje/8fV8+YufY9JnP/0J5s2by5lnnM6Xv/g5Jn36kx9j6tQpAOyLiPDSl5zHtGlT+fwXv0yhWARg0kMPP8L5F/6V1736lbS1tQLwZDU1N/GH3/6K4449ht/87g+Mj48DMGl0bIx0OkVnRwcAURTxpa98nUcefYyPf+RD1NfXA6CqXHLp5ezavZtpU6cCMOn0007hA+9/L1//5nf46c9/SRzHAOzYsZPPfv5LfPTjn2JffvrzXwLQ1trK5i1bAXgit912B0sWL6KzowOAoeFhNm7czMIFCwB4thx99JFcd/VlfOOrX+IHP/oJp515NrffcSeqCoDLXOYyl7nMZS5zmctc5jKXucxl/58YgKfqrrvvYcnyg5g5dxGJWfMWc8DBR/D2d72XV7zsJXz+s5/C930AJvX27uHGm29hXx559DFiawF4tlx/w00AnHjCcQBMOvzQQzji8EP5yMc/xQMPPoSqkrj9jjv5xa9+w+JFCwF4IhOFAlEU0T8wQLVSBeDJuv6Gm3jBuS9lcHAQgGeiuamJz336Ezz8yKP8/g9/RlUBGB8f5+vf/DZz58zmzDNPB+Dx/PXv/2Tm3EUkliw/iLvuvgeAhoZ6xsbG+e3v/sCXvvJ1oigCYF/+9JcL+Ovf/8nXvvxFVqxYDkBi67btnH/hRbzqFS+jra0VgEkiwhtf/xo++P738Itf/oaHH3kUgIlCgTvuvIsbb76FG268mfMv/Cv/vPhSbrz5FhKPPPoYQSqgtbWFNWvXoqoA7Mvo6Bj3P/Agxx93LOl0GoB169bjeYa5c2cD8GzyfZ9zzn4eN1xzBQsXzuflr3odb3n7u9jd2wuAy1zmMpe5zGUuc5nLXOYyl7nMZf9fGICn6oCVK7jxuqu4+/abmXTV5Rfzpje+jm9++3t8+nNfJIpjACad/bzncMctN7AvP/jut8hlswCUSiWiMALg6RofH+fv/7iYo48+kqlTpgAwqb6+nm987ct0d3Xx/Be9hFnzFpN4x7vex8c+8kEWLphPS0sz6XQagFrHH3csX/7i5/jzH37DtVddxqOPPsbHP/kZoigC4Mm47/4HaGxsoK6uDoBJxWKRvr5+ag0ODhLHMQCPZ8WK5XzkQx/gG9/6Dn/92z+I45jf//HP3P/Ag3z205+guakJgMdz5umncfftN5O48bqrOGDlCgASM2dM5zvf/BqXX3kVv/jVb1FVAPb2ype/lDtvu5HTTzsFgISq8te//YOmxkaee+bpACTCMCSKIgA8z+Otb34j1159GQesXAHAwgXzufKyf3LHLTdw3TWXc8jBB/HOd7yNO265gcQPvvstmpuaWLxoEZs3b2FsbByAfdm4aRMbNmzEGEMcx0RxzEV/+wdLly6hra0NgH+H9vY2fvLD7/HH3/2KwcEhKpUqAC5zmctc5jKXucxlLnOZy1zmMpf9f2EAnqpUKkV7exsdHe1MWjB/Hh/+wPt41zveymWXX8GWLVsAeCoWLVrItu3b6R/oB+DxbN22jc994cusWbMWgL3d/8CDPPrYKp73nDMQEQBqdXd18dcL/sStN17Lz378Ay7++4XcfcfNLJg/j23bdzB71ix8zyOKIgYGBqlUKgDUmjljOi9/2Uu47Y472LJ1KwD/yvj4OLfdfgcrli8jnU4DMOn7P/wxhx55LLWe9/xzGRwcAuCJvOS8F/GB972Hj3zsk7zi1a/n69/8Du9+5ztYsXwZAE8km83Q0dFOor29jVQqBcCkFSuW85lPfZwf//RnPPzwIwDsTURoaW4GYNL6DRv5018u4K1veSOtra0A9PcP8Lznn8t3v/8jVBUAEaGluRmAp2LlyuXs2LGT/oF+APblgJUr+OqXv8CXv/J13vWeD3Dfffdz+x138aIXnIPveQD8u4gIRx5xOBed/0dmzpgOwN4efuRRLr/yKsrlMgAuc5nLXOYyl7nMZS5zmctc5jKX/a8wAM+mlSuWU61UKRSKADwVBx6wkkKhyG233wnA47n8iqu5/IqryNflAagVxTEX/e0fLF2ymAMPWAlArd49e7jm2usYHR1j6tQpnHrKSSxfthTf99mxcxebNm/h0EMOAmD9+g0cd9JpXHHl1QDsra21lTCMCKshAP/K+g0bWbduPSuWLweg1oc/+H62bFhNrdtvvp6OjnYAnoiI8JpXvZzTTj2FO+68i5NPOpFXvfJliAgAz9TznnMmp596Cg898igA/0oURXz3ez9k5YplnHHaqQAk2tvbeP9738Uf//QXHn1sFQBP14L58/B8j0cfXQXAvogIz3vumVx9xSVs37GDF7/sVSxZvIjDDj0EgP1peGSED330E7ztHe/hzrvuBsBlLnOZy1zmMpe5zGUuc5nLXOay/xUG4NnU2tqKovQPDADwVCxftpRTTz6Jb377uzz00MMA7O2hhx7mxz/9GWeecRpTp0wBoNbGjZu46eZbeP45Z1FfXw9ArYmJCT74kY/zz0suBWCSqnL+BRcxdUoPy5cvA2Dq1CnMmzuHSy67nHK5DMCkKIq45trr6enuorOrE4AnEsUx519wEaVymV/++jeMj48D8GyYmJjg45/8DJdfeRUHrFzBddffwLvf8wF29/YC8Ez5vs8Xv/BZXvWKlwHwr1x51TXcefc9vO897yKTyQAw6YTjjuWIww/jO9/7AeVyGYCnolKpMDQ0RE9PDwcfdCBXXXMtURwDsHr1Gr757e9RLJUAmDR16hTe9IbXISLcetvt/OkvFxDHMQD7S1NjI6979St59StfzvJlSwFwmctc5jKXucxlLnOZy1zmMpe57H+FAXg2ZbMZ0uk0fXv6AHgqfN/nYx/5IF2dnbzwxS/nu9//ETt37qKvr5+dO3fx3e//iBe++OUsW7qE9777HYgIALWuuPIqctkcJ55wHAB7mzljBkcdcQTf/PZ3ueyKK4miiGKpxHe//yN+94c/8ZY3vYHmpiYA6uvrefMbX89NN93Chz76CXbs2Ekcx+zYsZNPfvpzXHX1NbzvPe+ipbkZgCdy//0PcunlV/LVL30eVeWDH/k4IyOjADxdcRxz8SWXcfjRJ3D5lVfxs5/8gL9d+Gf+/Iff8OiqVZxy+vP4xz8vIYoiAPblrnvu5aMf/xSJT3/2C6xfvwGAvfmeB0BiYnyCttZW0uk0ALUeeuhhPv6pz/CWN72eJYsXAbC3c85+Lrfdfid33X0PAI8nCiPCMOShhx/mY5/4NEcddxILlqzk/Av/hu95nHn6adx8y22sXr0GgLXr1nPlVVdTLpcBmHTrbXfw8U99hg+87918/KMf4ktf/hof/tgnKZZKAGzfsYPLr7yKSWvWrgXg30lEOO/cF/LZT3+ClpYWAFzmMpe5zGUuc5nLXOYyl7nMZS77X2EAnk2dHR3MnDGDK666mkKxCMBTMWVKD3+78M+84mUv4bvf/yFHHXcShx55LEcddxI//unPecfb3sIvf/Zj6uvrAag1MDDIJZddwamnnMTUKVMA2Jvv+3zx85/hmKOO4u3vfC9zFy5j8bID+cWvfsN3vvk1Tj/tFAAmnX7aKXznW1/n1tvu4OjjT2bOgqUcffzJXHXNdXznW1/n9NNOAeCJjI+P893v/4DDDzuEs573HH74ve9QKBQ5+viT+dGPf0b/wAAAT1Ycx9x+x50875wX8a73foCjjjyc66+5glNOOhER4bBDD+GaKy7hhc8/m/e8/0Mce+KpXHLp5URRBMAzoarc/8CD1NfXEaQCACbdfc99vPYNb6G7q4vOjg5+/8c/89GPf4o3vuUdHHHMCcxduIzEG9/yDsIw5Je//h3lchmASTfdfAtnPO/5LF52ICsOOoz7H3iQO+68i/6BQd7ypjdw9RWX8MbXvwaA4487hnlz5/CTn/6CUqnMdTfcyIoVy2luagJAVbnmuut541vexpmnn8ab3/h6Xv/aV/Ozn/yQO++6m82btwBw9z338bZ3vIdJ/7z4UgBc5jKXucxlLnOZy1zmMpe5zGUuc9kTMQBPxTe//hXO/9PvyOdyAOytvr6ef/z1fH7/m1+Sz+VInP+n3/HNr38FgCejrq6Oz3zq46xb9RD33nkrd99+M/fddSuPPXQv73nX28lkMgDsra2tleuuuozPfeaTiAgA+9LU1MgPv/9tHnv4Pu6+/WbuvfNWHrz3Dp77nDMQEQAmiQjPfc4Z3HPHzdx3163cffvN3HfXrdxzx8089zlnICIAPJ4ojvnK17/FI48+xvve8y4ymQxNTY385pc/5etf+SK33HobmzZt5qtf/yYrDjqMI445gb2d8bzns37DRqrVKj/40U845IhjedkrX0s6neYffz2fn/zwe3R3dQEwqa6ujs9++hNcf/XlLFm0iHe+5/0sXXkIP/rJz4jjGIDEYYcczJe/+DkSn/vMJznyyMPJpDMATJqYmOCb3/4eH/34p3j9m97K7//4Z44/7lhy2SwAkzZs2MDQ8DAbNm7iy1/7Bn/6ywXE1jJ71kw+9uEPctnFf+OBe+9g8/pVXPiXP3Df/Q9w1933ADCpvb2dY48+im98/cvccO2VrH3sQR667y5+/pMf8MqXv5T58+bi+z4A9fX1fPZTH+fW22/n+JNO49rrrufs5z0XESGOY7793e/zpre8g+efczaf/uTH8H0fgBNPOI7rrrqMJYsXAfDC55/Nlg2rmfThD74fAJe5zGUuc5nLXOYyl7nMZS5zmctc9kQMwH8r3/dpa2ulo6Od1tZWPM8D4NmSz+Xo6Ginra0V3/cBeDye59Ha2kpHRzutra14ngfAv+J7Hiccfyzf+sZXWbJ4EQAJz/M44/RTufjvF7JhzSPceduN/OC73+KTH/8I73nXOzjpxBM4/thjSBx/7NF0dnSQSqVoamzknLOey43XXcXfL/oLK1csR0QA2JfZs2fx85/+kDtuuYHXvOrlHHTgAXieB8CnP/lxEgCJXDbLD777LY4+6ggAJmWyWVpamgHo7Ojgu9/6Oq999SsBqPWyl76YLRtWs2HNI9xxyw1cccnf+dqXv8BHP/wBnvfcM1kwfx7NTU2ICIsXLeQVL3sJqVQKgEmLFy3kox/+AGeefhqzZs4gnU4D8HhWrFjOL3/2Y6ZPn8Y73vYWjjj8UAA8z+P0007la1/+Ap//zCfJZDIATEqn0wB88+tfIQEw6a1vfgPn/+l35HM5AFzmMpe5zGUuc5nLXOYyl7nMZS5z2b4YAJf9J5x84gkkAPbF9326Ojs55uijOPP003jxuS/kC5/9FF/+4udIfPiD76ehoR6AV7z8pXzqEx9l5ozpADxZ3d1dfORDH+CwQw8BINHQUE8C4In4nsdrX/1KvvzFz5E463nPwfd9AJ6uTCbDRz/8AY44/DAAnomDDzqQC//yB97+1jfj+z4AicWLFnLui16A53kA/Dt0dLRz+83Xc/KJJwDgMpe5zGUuc5nLXOYyl7nMZS5zmQsMgMtc5jKXucxlLnOZy1zmMpe5zGUuc5nLXPZMGQCXucxlLnOZy1zmMpe5zGUuc5nLXOYyl7nsmTIALnOZy1zmMpe5zGUuc5nLXOYyl7nMZS5z2TNlAFzmMpe5zGUuc5nLXOYyl7nMZS5zmctc5rJnygC4zGUuc5nLXOYyl7nMZS5zmctc5jKXucxlz5QBcJnLXOYyl7nMZS5zmctc5jKXucxlLnOZy54pA+Ayl7nMZS5zmctc5jKXucxlLnOZy1zmMpc9UwbAZS5zmctc5jKXucxlLnOZy1zmMpe5zGUue6YMgMtc5jKXucxlLnOZy1zmMpe5zGUuc5nLXPZMGQCXucxlLnOZy1zmMpe5zGUuc5nLXOYyl7nsmTIALnOZy1zmMpe5zGUuc5nLXOYyl7nMZS5z2TNlAFzmMpe5zGUuc5nLXOYyl7nMZS5zmctc5rJnygC4zGUuc5nLXOYyl7nMZS5zmctc5jKXucxlz5QBcJnLXOYyl7nMZS5zmctc5jKXucxlLnOZy54pA+Ayl7nMZS5zmctc5jKXucxlLnOZy1zmMpc9UwbAZS5zmctc5jKXucxlLnOZy1zmMpe5zGUue6YMwJP10JrN1AJwmctc5jKXucxlLnOZy1zmMpe5zGUuc5nLEgbAZS5zmctc5jKXucxlLnOZy1zmMpe5zGUue6YMgMtc5jKXucxlLnOZy1zmMpe5zGUuc5nLXPZMGQCXucxlLnOZy1zmMpe5zGUuc5nLXOYyl7nsmTIALnOZy1zmMpe5zGUuc5nLXOYyl7nMZS5z2TNlAFzmMpe5zGUuc5nLXOYyl7nMZS5zmctc5rJnygC4zGUuc5nLXOYyl7nMZS5zmctc5jKXucxlz5QBcNm/Uq2GDI+MYq0F4N8hiiLKlQoAe7PWMjo2ThRFAEyKoogwjACYFMcxwyOjWGsBcJnLXOYyl7nMZS5zmctc5jKXucxlLvt3MwAuq1UoFvnsV77DHy/8BwCJ+x9+lC9+4weMjI4B8K9MFIoMDY8waU/fAHfe+wC33nkPib9dciU/+dUf+c6Pf8WHPvVl3vGBT/GW936cL33zh4yNTwBQa2R0jK9/96ds3rodgESlUuVbP/wFv/7jBcRxDEBi+47dfPar3+WBhx8DwGUuc5nLXOYyl7nMZS5zmctc5jKXuezfzQD8N1JVVq1Zz5r1GwH4T9i2fRcDg8MsXjAPgKfjvgcf4cOf/gof+tSXSXz881/nF7/9C7/789/468VXctud99K7p49MOs3hhxzAK17yfL74qQ/yqQ+9i4b6OgD+lXQ6xVlnnsLqdRtZtXYDAIk77rmfpoZ6Fs6fA8C/MjA0zK133sO+PPzoakqlMgCT1qzfyK133sOTsXX7Du64+35uvfMe/pWHH11NHMcAuMxlLnOZy1zmMpe5zGUuc5nLXOay/xUG4L9NpVrlgr9fynd+/CuuvfFWAP7dVJXb7ryXIPAZGBzm1jvvIbFuw2aq1ZB77n+YW++8h1p33H0/4+MTAEw67qjD+Pn3vsIvvv9Vav3g65/jHW98FV/97Ef4zEffy1te93Je8LzTOfzgA1i3YTN33fsgqgrAk7Fg7myWLVrAAw89irWW3j39PPDwY5xy4jHkczkA/pUNm7bwmz9exL5876e/4d0f+SwX/P1SoigC4Nobb+U3f7yIJ+OBh1fxhwv+zm/+eBH/ysVXXEu1GgLgMpe5zGUuc5nLXOYyl7nMZS5zmcv+VxiA/xaVapXrbrqNj3/u69x8+90YEQD+EzZs2sJDj67GWsuV197I3y+5isS9DzxMuVLhyutu4u+XXEWtS6+8joGhYQBqXX39zXzqi99iYHAIgMTaDZv47o9/zcOPrQFgUm9fP5dccS1btu8AYNLGzVv5ya/+yB8u+AejY+P88/Jr+NXvL+CWO+7h7R/4JG9810e4/e77uPn2u3nTuz/KJ77wDYaGR/j1Hy7kDe/8MF/4+vcplcoAPJF0OsWH3/MWfvH9r1Lr+1//LMcdfRjX3ngbt911HwDveOOr+cX3v8qkr33uozQ1NnDGKcfzi+9/lVrnPOdUfviNz/OL73+VSWeccjxNjQ187XMf5Rff/yqTPvHBd5LNZgBwmctc5jKXucxlLnOZy1zmMpe5zGX/KwzAf4tt23fyj8uuZkpPF+956+upq8sD8O9WqVb5x6VXU1+f59MfeQ/f/OInmPSyc8+mob6OT37wnXzzi5+g1hc/9UFmzZgGQK2Vy5ZQrlS46vqbUVUAFi+Yy5zZM7jptruIogiAKIr4x6VX4/seZ55yAiICQK1qtUocxwAkujraecV5z+c1L38RiZefew5tLc0sX7qI17z8RUw664yTSaUCAJ6ObCbDWWecQldHO/c9+AhxHAPgMpe5zGUuc5nLXOYyl7nMZS5zmctcVssA/LeYOqWbr37mI7z3ba+ntaUJgP+E62+6nY2bt3L6ycfT3NQIwDPR0d7KCcccwf0PPsru3j4APM/j6MMPZuv2nezY2YuqcuOtd/LQo6t40dln0tzUCMCkObNm8JbXvZyDVi5DRHjeGSfzuleex7w5Mzni0AM5+vBDSBx+yAHU1eWZ0t3J0YcfwqTlSxfheR4AT1c2k6ahoY5isUS1GgLgMpe5zGUuc5nLXOYyl7nMZS5zmctcVssA/LfIZjLkclkA/pNOPO5I3vaGV3LkoQcC8Gw4/JADWLRgLtVqCEAcxxhjeNebX8PMGVOJ45jePf2cduJxHLB8CQB7i+OYBx5+jEq1yl//eQWFYhGA/5TxiQIDg8N0d3WQzWYAcJnLXOYyl7nMZS5zmctc5jKXucxlLqtlAFw2UShywd8u5fa77+cXvzufn/zqj9S6/qbbKZZK/OGCf/CTX/2Rfbnn/ocBqNXc1MgbXvUSZs6YCkC1GnLZVdfzwMOPAeD7Pq948fM557mnIiIA7G37jt30DwyRz+UYn5jg93/5O1EUccU1N/L+j3+BxCe+8A127NzNDTffwfs//gUSH//c19m8dTsAT0epVGbj5q387Dd/RlV57mknAeAyl7nMZS5zmctc5jKXucxlLnOZy1y2NwPgsn2x1rJm3QZ27u6lpbmJ5UsWAfDwY6sZGh4B4PFcff0t/ORXf2Rvv/7jhQwMDvHgI6v4ya/+yL5s3LwVgISqctvd9zJtSjf1dXle8Lwz2L5zF1dccyNLFs3n+c87jcRzTzuJpsYG5s+bzfOfdxqJ555+Em0tzQD8K5VKla9+5ye84Z0fZtI7P/RpvvytH2FE+NC730xnRxsALnOZy1zmMpe5zGUuc5nLXOYyl7nMZXszAC6ry+d45UtewFte93ImvfRFZ5FKpTho5TLe8rqXk3jFeeeQy2Y58bgjecvrXk6tQw5cDkBi5+5e1m/cTK016zbw4COrKJbK9A8Mcf9Dj7J2wybWb9xMrbHxCQASW7fvZM26jRxz5KEANDXW86qXvpADli9h+tQejj78EBKHH3IAdXV5pnR3cvThh5A44tADqa+vA+BfSadSvPX1r+Brn/sok774yQ/y0hedRW9fP1//3s8YGBwCwGUuc5nLXOYyl7nMZS5zmctc5jKXuWxvBsBl+zI+UaBarTKluwuAp+K1Lz+Xb37xE0z66mc/wsL5c1m5bDHTpnRz3FGHMW/OTI454hC+8YWP880vfoJJByxfAkClWuXCv1/GrBnT6O7qACCxYO5spk7pBuDZgkBDfR0tzU1M6uxo46TjjuINr3oJY+Pj3PvAIwC4zGUuc5nLXOYyl7nMZS5zmctc5jKX7c0AuGxfNm7eiogwtacLgMejqlhrAdgXay3/uOxqevf08cKzzkBESKUCXvWSF3Lfg49w3U23oaoA1EoFAQvmzebMU0/AiAAw6YprbuT9H/8Ckz7xhW+wY+dubrj5Dt7/8S8w6eOf+zqbt24H4Onq6mynLp9nfGICAJe5zGUuc5nLXOYyl7nMZS5zmctc5rK9GYD/VUPDI9x930NYawF4NoyNT3DDLXcwc8Y0OtpbAXg8IsJPfvVHfvuniwCoValW+e2f/8pd9z7IK1/yAhrq6wBIdHa08aqXvJBLr7yOC/9xGVEUATBJRDjrzFPo6mgHoFZbawvz5sxi0pxZM8hk0jQ3NzJvziwmzZk1g2w2A8DTlUmnaaivY0//AAAuc5nLXOYyl7nMZS5zmctc5jKXucxlezMA/6t27t7Dny78B7//y9+IogiAZyKKIv504T8ZHBrmtJOOxfM8AB5PuVJhZHSMuro8AJO2bt/JF7/xAx5dtZa3vO7lzJk1A4BaC+bN5p1vfg133fsgn/va99i6fScA/8ohBy7nLa97OZNe+/JzaWttYeWyxbzldS9n0uteeR5dHe0APF2e5xEEAYVCiWo1BMBlLnOZy1zmMpe5zGUuc5nLXOYyl7mslgH4X7Vs8QLe94438tia9fzid+cTRREAT0f/wCBf++5PefDhx3jxC57HgrmzAdjbyMgYAIlKpcr4RIGuznYAxsYn+MXv/sIXv/EDMuk0H//AO5gzawYA+zJn1gw+8t63kkmn+eI3fsAvfvcXisUSAP8NUqmA6VN72Lmrl+07dwHgMpe5zGUuc5nLXOYyl7nMZS5zmctcVssA/DdqaW7iG1/4OO9446sBeDzTp/bw+le+mFVr13PxFdeiqgA8WWPjE/z4l3/g45//Bn39A7zl9a/g2CMPRUQAmJTP52htaebiy6/h/R//AolPfvGbFApFpnR1AbB1+05Wr93Ay849m4+89620NDcB8ETa21r50LvfzBknH8/wyCiKAvCfcPjBB/DDb3yeeXNmAbAvL33RWXzva59hzqwZANRqaW7iG1/4OC886wwA/pUXnnUG3/jCx2lpbgLAZS5zmctc5jKXucxlLnOZy1zmMpf9LzMA/+sWzJvNi1/wXIqlEnEcA/Bk1dflaWyo5/STj+PLn/kwK5ctBmBv6VSKN7zqxRx5+EHMmzOLxNJFC3jjq1/CjOlTAFi6aD5f//zHOP7owzHGADBJjFBflyeXzQJQy/d9nv+80/jgu95MPpcDYJKIUF+fx/d9AFzmMpe5zGUuc5nLXOYyl7nMZS5zmcv+mxiA/w+OOuxgXnHe8/F9H4AnS0R42bln84LnnU42kwHg8bS3tfKK857PW173chJves1LWbZkISICgIhgjAFgb5l0mne/9XWcccrxADxZzU2NfPg9b2XWjGkA7C2bzfCJD76TF551BgAuc5nLXOYyl7nMZS5zmctc5jKXucxl/0kGwGUuc5nLXOYyl7nMZS5zmctc5jKXucxlLnumDIDLXOYyl7nMZS5zmctc5jKXucxlLnOZy1z2TBkAl7nMZS5zmctc5jKXucxlLnOZy1zmMpe57JkyAC5zmctc5jKXucxlLnOZy1zmMpe5zGUuc9kzZQBc5jKXucxlLnOZy1zmMpe5zGUuc5nLXOayZ8oAuMxlLnOZy1zmMpe5zGUuc5nLXOYyl7nMZc+UAXCZy1zmMpe5zGUuc5nLXOYyl7nMZS5zmcueKQPgMpe5zGUuc5nLXOYyl7nMZS5zmctc5jKXPVMGwGUuc5nLXOYyl7nMZS5zmctc5jKXucxlLnumDIDLXOYyl7nMZS5zmctc5jKXucxlLnOZy1z2TBkAl7nMZS5zmctc5jKXucxlLnOZy1zmMpe57JkyAC5zmctc5jKXucxlLnOZy1zmMpe5zGUuc9kzZQBc5jKXucxlLnOZy1zmMpe5zGUuc5nLXOayZ8oAuMxlLnOZy1zmMpe5zGUuc5nLXOYyl7nMZc+UAXCZy1zmMpe5zGUuc5nLXOYyl7nMZS5zmcueKQPgMpe5zGUuc5nLXOYyl7nMZS5zmctc5jKXPVMGwGUuc5nLXOYyl7nMZS5zmctc5jKXucxlLnumDIDLXOYyl7nMZS5zmctc5jKXucxlLnOZy1z2TBkAl7nMZS5zmctc5jKXucxlLnOZy1zmMpe57JkyAC5zmctc5jKXucxlLnOZy1zmMpe5zGUuc9kzZQBc5jKXucxlLnOZy1zmMpe5zGUuc5nLXOayZ8oAuMxlLnOZy1zmMpe5zGUuc5nLXOYyl7nMZc+UAXCZy1zmMpe5zGUuc5nLXOYyl7nMZS5zmcueKQPgMpe5zGUuc5nLXOYyl7nMZS5zmctc5jKXPVMGwGUueyoKxSJ/vuhiHlu9DgCXuezZEIYR/7jsah58eBUA+8OmLdv4w/l/Z3hkFIBJhWKRP190MY+tXgeAy/4d7n/oUf55+TVEUQSAazZt2cZf/noJhWIRAJe5zGUuc5nLXOYyl7nsf4EBcJnLnoqbb7ubR1evpae7EwCXuezZEAQ+7W0tnP/3S+nrHwTgP6lSrfLXf15BNQxpamwAYNLNt93No6vX0tPdCYDL/h2m9nRz5z0PcNd9DwLgmu7ODjZs2sKV194EgMtc5jKXucxlLnOZy1z2v8AA/Lfp6x/k/L9dyk9+9Ud++fvzeWzNOqy1APy7RFHE/Q89yi9/fz4/+dUfSVx9/S2MjU8AMGl8fII77r6fW++8h73d/9CjjI6NAzBpYGiYW++8hydjzfqNJG698x6ejIGhYQD+3fr6B7nhljs44tADaW5qBODJqlSr3HP/wzz48CqiKAJgb2vWb+ThR1cTxzEAT2RgaJhb77yHfVm7fhPVagjApIGhYe64+37GxycA2JdKtco99z/Mth27ANhbpVrlnvsf5sGHVxFFEQBPx7Ydu1izfiMAT4W1ljXrN/K7P/+Vn/zqjyT+cenV9PUPAjApjmMefnQ1t955D3u7/e772NW7B2stAInx8QnuuPt+br3zHv6Vhx9dzaq167n1znt4MgaGhgF4PCuXLSadCrjuptsA+E+694GH2dm7hxOPORIRASDR1z/IDbfcwRGHHkhzUyMAeyuVy9x930MMDA0D8GyJ45iHH13N3fc9RKlcBmBv4+MT3HH3/QwMDQPwRMbHJ7jj7vu59c572NvDj66mVCoDMGl8fII77r6fgaFhAPYljmMefnQ1a9ZvBGBvcRzz8KOrufu+hyiVywDsraO9leVLFnLN9bdQKBYBeLIq1Sr3P/Qo4+MTADwZ4+MT3HH3/dx65z3s7f6HHmV0bByASQNDw9x65z08GavWrufhR1dz65338K/ccff9jI9PkM1mOObIQ7n9rvvo3dMPgMtc5jKXucxlLnOZy1z2384A/LdQVS696jo+9cVvcte9D1ANQzZu3sp3f/xrEoViEYBn27Ydu/jEF77JT371Rx5dvY71GzeT+NvFV/CRT3+F6266DVUFoLevnz9c8Hd+88eL2NuPfvF7PvCJL/KjX/yeUrkMwIZNW/jNHy/iybj2xltJ/OaPF/FkbNi0BYB/t7vvf5A4jjl45XIAnopVa9bz89/+mZ/99k+s37gFgL1de+OtXHzFtVSrIQBPZMOmLfzmjxexL1//3k95z0c+yyVXXIu1FoANm7bwhwv+Tm9fPwD7UigUOf9vl3DP/Q8BsLdVa9bz89/+mZ/99k+s37gFgKfjnvsf4tobbwXgyRoaHuEr3/4x3/z+z7n/oUdZv3Eziauvv5lPfOEbXPD3S4miCIBqNeTiK67lN3+8iL396vcX8KkvfouPfe7rbNuxC4Devn7+cMHf+c0fL+JfufiKa7nmhlv5zR8v4snYsGkLAI8nn8tx8IHLeejR1QyPjALwn1CpVrn5truZNWMa06Z2AzDp7vsfJI5jDl65HIC99Q8M8u0f/pKf/eZPbNi0BYBny87de/jl7y/g57/9M3ff9xAAe+vt6+cPF/ydDZu2APBEevv6+cMFf+c3f7yIvX3vp7/h3R/5LL/981+pVKsA9Pb184cL/s6GTVsA2JdqNeTiK67l2htvBWBvO3fv4Ze/v4Cf//bP3H3fQwDsyxGHHMjI2Dhr1m0E4MkqFIr87eIr6e3rB+DJ6O3r5w8X/J3f/PEi9vajX/yeD3zii/zoF7+nVC4DsGHTFn7zx4t4Mq654VYuvuJafvPHi/hX/nDB3+nt6wdg+ZKFBEHAvQ8+DIDLXOYyl7nMZS5zmctc9t/OAPy3eHT1Oq64+kZOPuFovvGFj/OuN7+GL33qQ7zldS9nw+YtXHz5tQA8mwrFIr/6/fnkc1m++MkP8O0vfZJvfvETJL71pU+ycMFc/nbJlWzYtAWASW949Uv4xfe/Sq2ffPuLvOjsM3n40dX849KrATj84AP4xfe/Sq2Vyxczc/pUvv+1z/KL73+VSe9446tJ/OL7X2XS1z73UZoaGzjjlOP5xfe/Sq3DDz4AgH+nSrXKI4+tZc6sGXR2tAHwZKkq9z3wCE2NDdTl89x2572oKgDPRDqd4sPveQu/+P5XqfWtL32SxYvmcdlV13PHPfcD8EypKvc98AhNjQ3U5fPcdue9qCoA/25xHPP78//OyOgYH33f2/jOVz7NN7/4CRLf/sqnOOGYI7j+ptu5674HAZi0cvlifvH9r1Lr59/7Ch9939uw1vKr359PoVhk3pxZ/PAbn+cX3/8qk8445XiaGhv42uc+yi++/1UmfeKD7+Tdb3ktv/j+V5n0tc99lKbGBs445Xh+8f2vUuvwgw8A4IksX7KIcrnMw4+tAeA/YffuPnr39HPYQSvxPA+ARKVa5ZHH1jJn1gw6O9oAmDQ0PMKv/3ghn/7St9nTNwDAs+3hx1YjAp3tbdx+131UqlUAnqk3vPol/OL7X6XW97/+WU489khuu/NeLr3yOgCeDQ8/thoR6Gxv4/a77qNSrQKwt57uTro7O7j1znuJ4xiAf7c3vPol/OL7X6XWT779RV509pk8/Ohq/nHp1QAcfvAB/OL7X6XWyuWLmTl9Kt//2mf5xfe/yqR3v+W1fOKD7+QX3/8qkz78nreQTqd4w6tfwi++/1Um/fAbn2fenFkANDc1Mm/OTO69/2EKxSIALnOZy1zmMpe5zGUuc9l/MwPw3+LWO+6hvr6Ok447CmMMAIkVSxcxZ9YMNm/dTrlSAeDZsmv3HvoHhzjxuCNpb2sFYFIul+VFZ51BKpXi5tvvBuCJ+L7Pyccfxfx5s1m9dgPjEwUA/pft6Rugd08/ixbMRUQAeLL29A2wet0Gjj3qUA47eCWr121gT98AAP8ODfV1vPLFL6CtrYWHH10DwDO1p2+A1es2cOxRh3LYwStZvW4De/oGAPhXhkdG+eI3fsDfLrmS4ZFRABKFYpFrb7yVz371u2zbsQuAfRkdG2f7jl0ccuByZs+cDsCkdCrFc047kY6ONm69416q1RCAxyMizJk1gzNOOZ49/QNs3rIdgP2po72VjvY2Hlu9DlUF4N9tzfqNGCPMmDYFgEl7+gbo3dPPogVzEREAJt1wyx3ce//DnHrisZz3/OcA8GwqFIvce//DLF20gDNPO4EdO3ezafM2AP4dspkMLzr7DObPncXa9ZsoVyoAPBOFYpF773+YpYsWcOZpJ7Bj5242bd4GwN5SqYAF82azY+duhkfHAHg8V1xzI1/59o95bPU6wigCwFpl89bt/ODnv+W3f/4rAE+H7/ucfPxRzJ83m9VrNzA+UQDgP2H5kkUMDo2wa/ceAFzmMpe5zGUuc5nLXOay/2YG4L9BqVRmcGiYnu5OmhobAJjkeR6pVIC1FrUKwLPFGIMRw/DIKAB76+xo48RjjqC1pZkwjAB4Ip7n0drSTLFUIgxDAP6X7ekbQFWZPrUHgKfi3gcfJgwjli5cwEErlhGGEavXbQDg3yUVBGTSaQaHhimVygA8E/c++DBhGLF04QIOWrGMMIxYvW4DAP9KJpPm0INW8ODDq/jwp7/CNTfcyiOPreW9H/08195wK8sWL6CxoR6AfRERjDGMjo6jqgDUaqiv46TjjmLqlC6iKALgX2ltaUYVJopFAPanTDrN9Gk99O7pZ6JQBODJuuf+h/n7JVdRrYYAPFmbt26nva2V5uZGACbt6RtAVZk+tQeAWicffzTf/eqnOee5p+L5HgDPpjXrNtLXP8gBK5awaP5c6uvruO+hRwD4d/F9n0wmzdDwCMViCYBnYs26jfT1D3LAiiUsmj+X+vo67nvoEQD2Ze6sGVQqVXp7+wB4PPPnzqK5qZGf/vpPfOqL36JvYJBv/+iXfP27PyWOYlYuW4yqAvB0eJ5Ha0szxVKJMAwB+E+Y2tOF73vs2NULgMtc5jKXucxlLnOZy1z238wA/DfIZNK8882v4XWvOA8RAWDS6Ng4vXv6qa+vI5UKAHi2TJ3SzfSpPVx+1Q389eIrKJXLAEzyPI/nnXEy5zznVILAB+CJVKpVdu3eQ3tbK3X5PAD/y7bt2EkqFdDc1AjAk1WpVnnksbXMmT2DaVO7ScycMZU773mASrUKwL9DFMdUqyFNTQ1ksxkAnq5Ktcojj61lzuwZTJvaTWLmjKncec8DVKpVAJ5INpPhlBOO4XMffx+f/NC7yOeyBL7P29/4Kr7y2Y/wguedTmNDPQD70tTYwML5c7j7/of45e/PZ2x8AoBaxx11GC8/9xxyuSwA/8q2HTtJp1L0dHUCsL+1tbRQKBapVCoAPFnbduzksTXriOMYgCejVCozODRMQ0MdmXQagEnbduwklQpobmoEoFZjQz2+7wPwbFNVHnjoMTraW1k4fw7NTY0sXTyfR1etY3hkFIB/hziOqVZDmhobyGYyADxdqsoDDz1GR3srC+fPobmpkaWL5/PoqnUMj4wCsLeGhnpEhNHxcQAez5xZM3jza1/Gd77yKY458hAAFsydzbe/8ine/dbXsWLpIkQEgKejUq2ya/ce2ttaqcvnAfhPyOWyZDIZBgaHAHCZy1zmMpe5zGUuc5nL/psZgP8GIkJjQz11+RwAk6y1XHPDLQwODXPMEYfgeR4Az5Z0KsVbXvdyVixbxDXX38K7P/xZPvXFb3H19bcwPDIKwJNRrYbs2NXLr/9wIbv39HHOc04llQoA2B/Gxye44+77ufXOe3g8d9x9P+PjEwA8kYb6OjKZNABP1qbN29ixczeHHbQSz/NIHLRyGTt27mbT5m0APNsq1SqXXnkdvX39LFu8EIBEGEb88/Jr+Mmv/si+/OGCf1AslQCotWnzNnbs3M1hB63E8zwSB61cxo6du9m0eRsAT0ahWOT3f/kbC+bN5oRjj+DPF13Mnr4BAJ6IiPDy887hxGOP5IGHHuP9H/8CH/n0V/jbJVfS29ePqgLwr1hrGRoe4arrbubKa27iuKMPY9qUbgD2t6amBsqVCsMjowD8J3S2twGwt4b6OjKZNAD/KXv6Bli9bgPLliwkn8sBcNCKZYyPT/DwY2sAeLZZa7nupttZt34Tc2bNIJvNAJC4/qbb+cmv/si+/PqPFzIwOARArT19A6xet4FlSxaSz+UAOGjFMsbHJ3j4sTUA7K0unyMIfHr39APwr9xx9/3c98AjvPbl59I3MMhlV12PqgLwdFSrITt29fLrP1zI7j19nPOcU0mlAgD+E1JBQD6XZU//AAAuc5nLXOYyl7nMZS5z2X8zA/DfqlQu85Nf/ZGrr7+F0048jgOWLwHg2VZfX8ebX/tyvve1z/Lm176M1pYm/nHpVXzoU1/mU1/6Fo88tgZVBWDSL377F97wzg8z6W3v/wSf+fK32bm7l/e97Q0smDcbgP1lYGiYS6+8jr9fchWP59Irr2NgaBiAJ2KMQRAAngxV5bY776W+vo4F82YDkFi+ZCH19XXcfvd9ADxd1WrID3/+O97/8S9Q690f+gzX33w7Rx12EAmAhKqyY+du1m/czL5s3rqdKIoBmKSq3HbnvdTX17Fg3mwAEsuXLKS+vo7b774PgH8liiJ+/5e/U65UeMkLz+LsM0+hs6ONX/7+fArFIgBPJJ1K8ZIXPo/vfvXTvP8db2TWzOnceMudfOLz3+DDn/4Kt9x+N9ZaACY9+PAq3vDODzPpTe/+KB/61Je59MrreOFZZ3DOc05FRABwkTEGgL0ZYxAEgP+Uex98mDCMOGjFMgASs2dNZ+qUbu685wGq1RCAp+tPF/6T93/8C9R6xwc+xQV/v5QF8+Zw1pknAzCpt6+f9Rs3sy8bN2+lXK4AUOveBx8mDCMOWrEMgMTsWdOZOqWbO+95gGo1BODpWrt+E+f//VLOOuMUjjj0QF527tnceMud3H7XfQA8Gb/47V94wzs/zKS3vf8TfObL32bn7l7e97Y3sGDebABc5jKXucxlLnOZy1zmMpc9HgPw32jTlm189ivf5bE163jdK87j7OecgogA8O+SSgUctHIZ737r6/je1z7De976OgB++PPfcftd9wEw6aUvOouvfe6jTPrKZz7MG179ElSVb/3wF2zYtAWA/WXWjGl88VMf5Jtf/ASP54uf+iCzZkwD4ImMjU9QrlQAeDIGh0dYu2ETK5YuormpEYBEU2MDc2fNYP3GLQyPjALwdIgIU6d0M2/OLCYtXjiPl517Nl/85Ad59ctehO/7ACRSqYC3v/FVfPOLn2BfPvnBd9JQXwfApMHhEdZu2MSKpYtobmoEINHU2MDcWTNYv3ELwyOjADwRYwxzZs3g1S99IQ31dfi+z8tedDbLFi/A930Angzf91k4fw5vfu3L+M5XPsXHP/AO2tta+P35f+cfl12NqgKQWLJwPl/73Eep9cF3vZlFC+by579ezMWXXwvAfwsjBmMMAI/nnvsf5ie/+iOTHnxkFQODQ/z6jxfyk1/9kcTfL7mKajUE4In09Q8CsLex8QnKlQoAT0dvXz+/+v0F/ORXf+Tx/Or3F9Db1w9AqVTmwYdXMWf2DKZN7QYgkU6lWLZkATt39bJr9x4Anq6ujnbmzZnFpAXz5nDOc0/jMx95D+952+vI53IATHrZuWfzzS9+gn35wic+wNQp3QBMKpXKPPjwKubMnsG0qd0AJNKpFMuWLGDnrl527d4DwL54ngfAE2lsrOfk447imCMPAWDpovmc/ZxTaGtrAeDJeOmLzuJrn/sok77ymQ/zhle/BFXlWz/8BRs2bQHgP80zHgAuc5nLXOYyl7nMZS5z2X8zA/DfRFW57qbb+Mb3fkZDfR2f+ch7OPyQAxARAJ5t23bs4p77H6ZSrQIwyfd9liyaz6c+9C4WzJ/DpVddz+jYOACJfD5HS3MTk9paWzj84AN4xxtfTRD43HTbXQD8r2tpbiIMQ8rlCgBPxmOr1zEyOsZ1N93GG975YSa98V0f4c57H2BwaJiHH1sDwNMRBD5nn3kKb3ndy5n0+le+mGOPOoyO9lYAnqnHVq9jZHSM6266jTe888NMeuO7PsKd9z7A4NAwDz+2BoAnYozhlBOOZs6sGQAkOjvaeN4ZJ5NOpQB4PANDw9xx9/2Mj08AMMkYw6wZ0/jAO9/EcUcfxk233sX2nbsBSAQpn5bmJmotmDebN7/2ZSxZNJ+77nuQ0bFxAPa3nbt6yWYztDQ3AfB4BgaHWL9xM5OGh0cplyts3LyV9Rs3k9i2YydWLQD7kkoF5HJZSuUycRwDMKmluYkwDCmXKwA8HaVSmY2bt7J+42Yez8bNWymVygBs2baDXb17eOSxNbz5PR/jDe/8MJP+cenVFEsl7rjnfgCerhOPO5K3vO7lTHrTa17KqScew9Qp3YgIAM/Elm072NW7h0ceW8Ob3/Mx3vDODzPpH5deTbFU4o577geg1uDQMJVKlSndXQA8ka6Ods468xR83wdARDjpuKNYMHc2AE9GPp+jpbmJSW2tLRx+8AG8442vJgh8brrtLgD+U0rlMiOjY3R3dQDgMpe5zGUuc5nLXOYyl/03MwD/LVSVv196Fef/7VKOOfJQPvTuN9Pe1grAv8uqNev5zZ8uZNv2nQDszfd9pk/toVypUCqXAXgiTU0NtLY0UyiWUFUA9ofevn5+9fsL+Mmv/sjj+dXvL6C3rx+Ax9Pe2kIcWwaHhgH4VyrVKrffdR+zZkzji5/8IF/73Eep9ZmPvpfuzg5uv+s+KtUqAP9tKtUqt991H7NmTOOLn/wgX/vcR6n1mY++l+7ODm6/6z4q1SoA/w7bd+zit3+6iMfWrAdgbyLCnFkzCKOQiYkCAE/E8zxmTJtCtVolDEMA9idVZefuPbS2NJPP5QB4PGeccjzf/OInmHTCsUcwdUo3X/jEB/jmFz9B4t1vfR2ZdBqAffE8j472VkZGxiiWygBMam9tIY4tg0PDADwds2ZM44uf+iDf/OIneDxf/NQHmTVjGqrKbXfeS0NdHZ/44Dv52uc+Sq2vfObDLF4wj4ceXc3wyCgA/21UldvuvJeGujo+8cF38rXPfZRaX/nMh1m8YB4PPbqa4ZFRACb1DQxijKGzow2A/aWpqYHWlmYKxRKqCsB/Qv/gENVqyIxpUwBwmctc5jKXucxlLnOZy/6bGYD/Fg88/BjX3HALp598HC954fPwfR+AxzM0PMLd9z2EtRaAp2PhvDl4xuOm2+7CWgtArSiK2NM3QCadJpvJAPBEMuk0DQ11jI2NUy5XANgfSqUyGzdvZf3GzTyejZu3UiqVAXg806b2kM/nWLthEwD/yqbN29i+cxfLly6ks6ONluYmak3t6eLQg1ewY9dutm3fCcB/m02bt7F95y6WL11IZ0cbLc1N1Jra08WhB69gx67dbNu+E4B/h5nTp9LU1MhNt91FqVQGoJaqsmPnbgI/oK4uD8C/0tXZTrlSYXhkFID9aWx8gt29fUyf2kMqFQDw77Zk4XxGxsbo3dMHwKRpU3vI53Os3bAJgH+3PX0DrF63gbmzZzJj2hRampuo1dbawnFHH8bIyChr128C4L/Nnr4BVq/bwNzZM5kxbQotzU3Uamtt4bijD2NkZJS16zcBMGnNuo00NzXQ2tIEwP6SSadpaKhjbGyccrkCwH/C5i3bCQKf7s4OAFzmMpe5zGUuc5nLXOay/2YG4L9BtRpyzQ234vs+2UyG2+66l1vvvIda99z/MJVqFYDEzt17+NOF/+D3f/kbURQB8FTNmD6F4485nLvve4jv/+y3bNy8laHhERKr1qzn2z/6JQ8+sorDDlpJY0M9AP9KNpOhUCxRDUMA9odZM6bxxU99kG9+8RM8ni9+6oPMmjENgMfTUF/HnJnTWb12A6VSGYAnct9Dj5DNZDh45XIA9mX5kkX4ns+9DzwCQGJiosCd9zzArXfew76sWb8RgP+E+x56hGwmw8ErlwOwL8uXLML3fO594BEA/h2amxp53uknsXnLNr71w1/wyKq1DA2PkNiydQc/+dUfufr6W1iyaB5TujsB+FfSqRRqlYlCEYD9adOWbUxMFFi5bDEA/wkzp08ll83y8GNrAJjUUF/HnJnTWb12A6VSGYB/p9XrNlAqlznq8IMREQD2Nnf2TJqbm7jrvgeJ4xiAxLoNm7n1znvYlzvuvp/x8QkA/t1Wr9tAqVzmqMMPRkQA2Nvc2TNpbm7irvseJI5jAEbHxtmwaSsL5s0hn8sBsD9lMxkKxRLVMATg361aDXno0dVMnzaF9rYWAFzmMpe5zGUuc5nLXOay/2YG4L/BRKFA/8AgpVKZv158Bb/540Xs7fy/XUKhUAQgsWzxAt73jjfy2Jr1/OJ35xNFEQBPhYhw1hknc9aZJ7Nh0xa+/K0f8aFPfZnEt374C/oHhnj1S1/I2c85BYAnY+7smQwPj7Bm3UYA/peJCEcdfjADg0Ns2bYDgMczPDLKo6vWMX3aFNrbWgDYlyndncyeNZ2HHl3N8MgoAANDw/zxwn/wmz9exL5ce+OtAPy7DY+M8uiqdUyfNoX2thYA9mVKdyezZ03noUdXMzwyCsC/w5GHHcQrX/IChkdG+e6Pf8WHPvVlEl/4xvdZu34jZ515Mq97xXl4ngfAv9Ld2UE2m+Hu+x7CWgvA/qCq3PfAI/R0dzJ71nQAnopcNkt9XR4xAsCT1dzUyIqli3jksTUUikUAEiLCUYcfzMDgEFu27QDg36VSrXLnPQ/Q0dbK9Gk9AOxLY0M9y5csZOOmrWzfsRuAxM233cVv/ngR+/KHC/5Ob18/AP9OlWqVO+95gI62VqZP6wFgXxob6lm+ZCEbN21l+47dAGzYtIVSucwRhxwIwP42d/ZMhodHWLNuIwD/brt272H3nj6OPvxgPM8DwGUuc5nLXOYyl7nMZS77b2YA/hu0NDfxjS98nF98/6s8nm984eO0NDcBMGn61B5e/8oXs2rtei6+4lpUFYCnwvd9nnvaSXzvq5/hm1/8BF/73EdJfOcrn+Zrn/soRx1+MCICwLw5s/jhNz7P4QcfAMC+HHfUYfzkO1/isINXArC3d7zx1Xzig+8km80A8ERampv4xhc+zgvPOgOA/WHenJnMmD6VG2+9kziOAdiX5qZGvvKZD/Put7wWz/MA2BfP83j3W17LVz7zYZqbGnnHG1/NL77/VZ7IO974agAOP/gAfviNzzNvziwA/pXDDz6AH37j88ybMwuAfWlpbuIbX/g4LzzrDJqbGvnKZz7Mu9/yWjzPA2BfPM/j3W95LV/5zIdpbmoE4N9BRDjq8IP5xhc+zne+8mm+9rmPkvjmFz/Bt7/8KZ572kn4vg9ANpvhEx98J+9446sB2Jeuzna++cVP8ObXvgxjDAC1XnjWGXzjCx+npbkJgCfS0tzEN77wcV541hkAPBVbt+9k9boNnHbSsaRTKQCeijNOOZ53v/V1ZNJpAJ6K4446jEKxxIOPrAJg0rw5M5kxfSo33noncRwDsLfDDz6AX3z/qxx+8AEAPB3pVIqPvu9tfOaj7yWfywHweF76orP43tc+w8wZU5k3ZxY//Mbn+cX3v8rj+eE3Ps+8ObNI/PAbn+fwgw8A4F+ZN2cWP/zG5zn84AMA2JdsNsMnPvhO3vHGV5NOpfjo+97GZz76XvK5HACP56UvOovvfe0zzJwxlUq1yvU33c7yJQuZMX0KAP9O8+bM4off+DyHH3wAAPty3FGH8ZPvfInDDl4JwN7e8cZX84kPvpNsNgPAE5k3ZxY//MbnOfzgAwDYm6py/S23M6Wrk6WLFwDgMpe5zGUuc5nLXOYyl/23MwD/6xbMm82LX/BciqUScRwD8HSICI0N9bQ0N5Goy+cAcFnC932ed/pJbN66nfWbtgDgsv2lLp+jpbmJRGNDPSICwP8aVeX6m29n6pRuli9ZCMB/Uk93J0cddjA33HwHhWIRgITv+zzv9JPYvHU76zdtAcBl/w6PrV5H/+AQp590HCICgEu2bt/JmnUbOf2U40mnUgC4zGUuc5nLXOYyl7nMZf/tDMD/B0cddjCvOO/5+L4PgMv+HebOnsnXPvdRFs6bA4DLXPZsEBFe94rzeO/bXo/v+wD8p53z3FP5xAffST6XA2DS3Nkz+drnPsrCeXMAcNm/w4ErlvK1z32Unu5OAFwzc/pUvva5j7Js8QIAXOYyl7nMZS5zmctc5rL/BQbAZS5zmctc5jKXucxlLnOZy1zmMpe5zGUue6YMgMtc5jKXucxlLnOZy1zmMpe5zGUuc5nLXPZMGQCXucxlLnOZy1zmMpe5zGUuc5nLXOYyl7nsmTIALnOZy1zmMpe5zGUuc5nLXOYyl7nMZS5z2TNlAFzmMpe5zGUuc5nLXOYyl7nMZS5zmctc5rJnygC4zGUuc5nLXOYyl7nMZS5zmctc5jKXucxlz5QBcJnLXOYyl7nMZS5zmctc5jKXucxlLnOZy54pA+Ayl7nMZS5zmctc5jKXucxlLnOZy1zmMpc9UwbAZS5zmctc5jKXucxlLnOZy1zmMpe5zGUue6YMgMtc5jKXucxlLnOZy1zmMpe5zGUuc5nLXPZMGQCXucxlLnOZy1zmMpe5zGUuc5nLXOYyl7nsmTIALnOZy1zmMpe5zGUuc5nLXOYyl7nMZS5z2TNlAFzmMpe5zGUuc5nLXOYyl7nMZS5zmctc5rJnygC4zGUuc5nLXOYyl7nMZS5zmctc5jKXucxlz5QBcJnLXOYyl7nMZS5zmctc5jKXucxlLnOZy54pA+Ayl7nMZS5zmctc5jKXucxlLnOZy1zmMpc9UwbAZS5zmctc5jKXucxlLnOZy1zmMpe5zGUue6YMgMtc5jKXucxlLnOZy1zmMpe5zGUuc5nLXPZMGQCXucxlLnOZy1zmMpe5zGUuc5nLXOYyl7nsmTIALnOZy1zmMpe5zGUuc5nLXOYyl7nMZS5z2TNlAFzmMpe5zGUuc5nLXOYyl7nMZS5zmctc5rJnygC4zGUuc5nLXOYyl7nMZS5zmctc5jKXucxlz5QBcJnLXOYyl7nMZS5zmctc5jKXucxlLnOZy54pA+Ayl+1PV19/Cz/51R+Z9Pu//I2JQhEAl7mgWg35+yVX8ZNf/ZFJf7/kKqrVEACX/bs8+PAqLvj7pZTKZQBc9r+iWCzxl79ewqYt2wCY1NvXz69+fwE/+dUfmXTP/Q9TrYb8/ZKr+Mmv/sikv19yFdVqCIDLXOYyl7nMZS5zmctc9nQZAJe5bH9at3ETDz+6mvUbN5PYvHU7YRgC4DIXxHHMY2vW8eiqtazfuJnEth07sWoBcNm/w/DIKBf+8zLq6+rIZjIAuOx/RS6XJQh8/nThPymVygAkSqUyGzdvZf3GzazdsIn7H3qUbTt2YtWybcdO1m/cTOLhR1fz2Jp1xHEMgMtc5jKXucxlLnOZy1z2dBmA/yaqytbtO/ndn//KT371R375+/N54OHHsNYC8GyL45iHH13NrXfew95uv/s+dvXuwVoLQGJ8fII77r6fW++8h3/l4UdXE8cxAJP6+ge58tqb+Mmv/kjid3/+K2vWb8RaC8D/Emsta9dvYmx8AoCnavGieXzzi58g8akPv5vmpkbiOObhR1ezZv1GAB7PmvUbefjR1cRxDMDA0DC33nkP+3L/Q49SKBYBeDx9/YNcee1N/ORXfyTxuz//lTXrN2KtBaDWwNAwd9x9P+PjEwDsy/j4BHfcfT8DQ8MAxHHMw4+u5sGHVxFFEQD7sm3HLu65/2Eq1SoAA0PD3HrnPezt/oceZXhkFFUF4H/RCccewTe/+AkS737r68ik04yPT3DH3fczMDQMwBOJ45iHH13NrXfew75s27ELay0A+1Iql7nz3gf45e/P5ye/+iM/+82fueWOeyiVywDUiuOYhx9dzZr1GwF4PGvWb+ThR1cTxzEAa9Zv5O77HqJULgOwLwNDw9xx9/2Mj08AMD4+wR1338+td95DrTvvfYD+gUGstQA8WdfffDtxbDn8kAMASKxZv5Fb77yHfVm3YTNRFAEwKY5jHn50NbfeeQ9PZM36jcRxzMOPrubWO+/hX7nj7vsZH58AoNa2Hbu49c572NM3AMATGRga5uFHVxPHMQB7s9ayZv1Gfvfnv/KTX/2RxD8uvZq+/kEAaq1Zv5Fb77yHfdmybQdRFAGQGB+f4I677+fWO+/hX3n40dXs6R/g1jvv4clYs34jAEcddjDDI6Pcff9DACRmzZjGFz/1Qb75xU/wyQ++k4b6OgAy6TTvfuvr+OYXP0Fi8aJ5ALjMZS5zmctc5jKXucxlz5QB+G8RRRF/+eslfOHr3+feBx9heGSUtes38eNf/oGvffenFIpFAJ5N1WrIxVdcy2/+eBF7+9XvL+BTX/wWH/vc19m2YxcAvX39/OGCv/ObP17Ev3LxFddSrYYAVKpVfvvnv/KJL3yDiy+/hvUbN5O498FH+Mb3fsZnvvIdduzcDcD/ivsefJRvfP9n/OBnv6VcqQDwTFWrIRdfcS3X3ngrAI/n2htv5eIrrqVaDQHYsGkLv/njRezLj37xe9770c/zu7/8jSiKAJhUqVb57Z//yie+8A0uvvwa1m/cTOLeBx/hG9/7GZ/5ynfYsXM3AJM2bNrCHy74O719/QDsS29fP3+44O9s2LQFgGo15OIrruWHv/gd19xwKwD7cs/9D3H+3y6hUCgCsGHTFn7zx4vY249+8Xs++Mkv8dHPfo2HH1sDwP8HvX39/OGCv7Nh0xYAnki1GnLxFdfymz9exL587qvf5SOf+SobN28FYJKqcte9D/KhT32ZX/3+Ah5dvY71Gzezet0Gfv+Xv/GhT32Zm2+/G1UFIFGthlx8xbVce+OtADyea2+8lYuvuJZqNQTg2htv5We/+RN/vuhiVBWAvW3YtIU/XPB3evv6Aejt6+cPF/yd3/zxImr94rd/4aOf/Rrv+9jnufn2u1FVAJ7I8Mgo99z/MCuWLqK5qRGAxLU33spv/ngR+/K17/6E937s89xz/8MAJKrVkIuvuJbf/PEinsi1N95KtRpy8RXX8ps/XsS/8ocL/k5vXz8Ak6rVkD9fdDG/+eNF/OVvlxDHMQCPZ8OmLVx8xbVUqyEAtYaGR/jKt3/MN7//c+5/6FHWb9xM4urrb+YTX/gGF/z9UqIoAiBx7Y238ps/XsS+fOHr3+cDn/giDz6yCoDevn7+cMHf+c0fL+JfufiKa1m7fhO/+eNFPBnX3ngrAJ0dbSyaP5fb77qPSrUKgMtc5jKXucxlLnOZy1z2n2YA/lvcdd+D3HL73Zx7znP47lc+zUff9za+9rmP8p63vo5du/dw8eXXAvDvsHL5Yn7x/a9S6+ff+woffd/bsNbyq9+fT6FYZN6cWfzwG5/nF9//KpPOOOV4mhob+NrnPsovvv9VJn3ig+8km80QRRG//sOF3HHXfZx20rF8+yuf4ptf/ASJ737l03z0fW+jWg35/s9+y56+AQD+F7S1NtPd2cHc2TNJp1IA7E/pdIoPv+ct/OL7X6XWD7/5eU445ghuveMebrvrPgASURTx6z9cyB133cdpJx3Lt7/yKb75xU+Q+O5XPs1H3/c2qtWQ7//st+zpGwDgmVJVrrjmRjZs2gLAk5FOp/jwe97CL77/VSb95Ntf5L1vez2pVMCPfv47brvzXgBctHL5Yn7x/a+yt4+9/+0A/P4vf6NQLAKQuP2u+/j1Hy5g+tQevvjJD/DtL32Sb37xE3z7S5/kG1/4OAvmzebPF/2T2++6D4Bnw933Pshd9z4IwJP1hle/hF98/6tM+tl3v8zHP/AOpvR08Yfz/87fL70KVQXg8Wzaso1iqcTBBywDoNbM6VP5/tc+yy++/1VqffnTH6KjrZW//PVievf0AzBp5fLF/OL7X+XxvOONryabzfCJD76TX3z/q0z68HveQjqd4g2vfgm/+P5XmfTDb3yeeXNmATBp1+49JGbPnM6mzdvYvmM3AE9VHMf8/vy/MzI6xkff9za+85VP880vfoLEt7/yKU445giuv+l27rrvQQAmzZw+le9/7bP84vtfpdYXPvEBWlua+f1f/kbvnn7mzZnFD7/xeX7x/a8y6YxTjqepsYGvfe6j/OL7X2XSJz74To498lB+8f2vUmvl8sXMnD6V73/ts/zi+19l0jve+GoARISDDljGrt172LR5GwAuc5nLXOYyl7nMZS5z2X+aAfhvUK2G3HrHvUyb2sNxRx+GiACQWDBvNjNnTGXj5q2USmUA/hNEhDmzZnDGKcezp3+AzVu2A/BU3XXfgzz48GOc/ZxTeeFZZ5BOpQBIiAhzZs3gPW97HarKny76J1EUAfDfbtaMaXzu4+/jvOc/BxEB4L9ROpXiuaefRFdHO4+sWgNA4q77HuTBhx/j7OecygvPOoN0KgVAQkSYM2sG73nb61BV/nTRP4miCIBnYv7cWbS3tXDB3y+jUCwC8HT4vs+SRfP5+Afewfx5s/nn5dfQ1z8IgMtqzZ45nTNOOZ7+wSF27d4DQF//IP+8/BrmzJrBu97yWtrbWgGY1FBfx1te+3KWLV7IRRdfwa7dewB4Jqb2dDFv7iz+fulV7OkbAODpMMYwa8Y03v+ON3LskYdy3U23sWHTFgAez4OPrKKpoYGuzg4Anoz2tlae/9zTKJZKbNm+A4D/pDvuuZ9sNsO55zyHVCrgjnvuB2BSpVrl2z/6Jb/540X09vWDAkA1DLnj7vv57Fe/y4OPrGJ0bJztO3ZxyIHLmT1zOgCT0qkUzzntRDo62rj1jnupVkMAnkhXZzvPf+5pFEslVq/bAMB/wszpU8lmM6xaux4Al7nMZS5zmctc5jKXuew/zQD8tzj5+KN4/vNOI51KATDJGIPv+wDsD60tzajCRLEIwFNRrYbcese9dHW2c+xRhwKwL10d7Rx71KFs2LSFzVu3A/Dvds/9D/P7v/yN7Tt28Z0f/4q3vOdjvOtDn+Evf72ESrVK/8Ag3/nxr3jLez7Guz70GX7/l79RKpcBSEwUivz+L3/jnvsfBqBaDfn7JVdx9fW3sHX7Tj7/te/xpnd/lHd84FP86g8XUCyWANgfPM/g+x6e8QCoVkNuveNeujrbOfaoQwHYl66Odo496lA2bNrC5q3bAXgmcrks5z3/ufT29XPVdTejqgA8XelUijNOPp6JQoHH1qwDYF/uuf9hfv+Xv7F9xy6+8+Nf8Zb3fIx3fegz/OWvl1CpVukfGOQ7P/4Vb3nPx3jXhz7D7//yN0rlMgCTisUSv/vL33jfxz7PG9/1Ed72vk/wte/+hB07dwOQeODhx/jFb//Cpi3bAJg0MDjEr/94ITfcfAfWWgD+E1KpACMGYwwA9z/0KBOFAs89/STSqRQAe/N9nzNPOYE4irnjnvsBeCZ83+eFzzsDgL9fehVRFAHwdBljOPn4o8mk09x134MA7Eu5UmFP3wDdXR3U1+UBeLKCVIBnPBIA/ynDI6M89Ohq5s6awZxZ01kwdzar125gfKIAQMIzhkMPWsHuPX185kvf5rd/vohtO3bxwU9+iQv/cRmzZkyju7MDEcEYw+joOKoKQK2G+jpOOu4opk7pIooiAP6V5uZG0qkUQ8MjAPwnNNTX0dXZztbtO4njGACXucxlLnOZy1zmMpe57D/JAPw3SKUCDlq5jIXz5gBQa8fO3Wzeup05s2aQzWYA+E/atmMn6VSKnq5OAJ6KwaFhevf0sWTRfPK5HACPZ9H8uRgxbNy8DYB/t207dnLbnffyrR/+grbWZl7xkudz6EEruPGWO/jpr//Ed3/ya9pam3nFS57PoQev4I677+f3f/kbcRwDUK1WeejR1WzbsROAOI55bM06rrnhFn7489+xbMlCXvXSF7By+WLuvvdBfvqbPxFFEQD/aes2bGZP3wCLF84DYHBomN49fSxZNJ98LgfA41k0fy5GDBs3bwPgmZo/dxbHH304N9x8B2s3bALgmZg6pZu2lhbWrNsIwL5s27GT2+68l2/98Be0tTbzipc8n0MPWsGNt9zBT3/9J777k1/T1trMK17yfA49eAV33H0/v//L34jjGIDhkVG+9K0f8sBDj3LS8Ufx8fe/g3PPeQ4jo2N884e/YNfuPQAsnDeHvoFBfvrrP7GnbwCAKIr4/fl/Z826jSxeOA9jDAD/bpVqlbvufZDWlia6OtuJ45hVa9fT1dHOjOlTAHg8XV3tdHW2s2HTVqrVEIBnorOjjbPOOJlHHlvD7XffD8Az0d7WwpSeLrZt30W5UgFgb8ViiaHhETraWwF4sqy13HPfQ6TTKaZN6QbgP2XTlm0UCkWOOvxgjDEcfsgBDA4Ps27DJgASvu9z1GEH89H3vY2vfu6jdLS1YUQ495wz+daXPsmrXvICOjvaaGpsYOH8Odx9/0P88vfnMzY+AUCt4446jJefew65XBaAf6V3Tz/VasjsmdMB+E/wPI/GhnomJgpUqlUAXOYyl7nMZS5zmctc5rL/JAPw3+ie+x/mJ7/6I1//3k/5yrd/zLLFCzjnuacC8J9grWVoeISrrruZK6+5ieOOPoxpU7oBeComCgWqYci0qT0APJHmpkbS6RTjExMAPJ7x8QnuuPt+br3zHh7PHXffz/j4BABPJLaWs844hVec93yOPvwQXn7eORx8wHIefnQ1hx9yAK847/kcffghvOK853PMkYeyeu0G+voHAXg8xVKJ173yPM55zqkcffghvP6VL+aYow5l0+ZtbN2+E4B/hzCM+Ofl1/CTX/2RWl/77k/45e/O54xTj+eYIw4BYKJQoBqGTJvaA8ATaW5qJJ1OMT4xAcAzJSKccfLxdHd18KcL/8nY+AQAT1c6lSKfzzE2PkG1GgKwL7G1nHXGKbzivOdz9OGH8PLzzuHgA5bz8KOrOfyQA3jFec/n6MMP4RXnPZ9jjjyU1Ws30Nc/CMBd9z7I8Mgob3vDK3nOqScyc8ZUTjj2CN7+xleh1nL3/Q8BkM1meP0rXwzA3y+9imoYcvEV17Jp8zZe+4pz6exoA+DZtHXbTn7yqz9S60e/+D2f+Pw3KBSKvOX1ryCfy1GthhSLJVpamshlswA8nkw6TUNDHZVKhSiOAHimDj/kAFYsW8TfL72KXbv3APB0eZ5HY0M94xMFKpUqAI+nq7MdgL0NDA7x6z9eyE9+9UdqfeIL3+DR1et402tfRldnOwCTtm7byU9+9Uf25Ve/v4Devn4Ano44jrn1znvp7Ghj5vSpAMyaOY321hZuvfNe4jgGYFIURfz5ootJp1O8+AXP4/Krb2Dt+k0AJESEl593DiceeyQPPPQY7//4F/jIp7/C3y65kt6+flQVgH9FVRkdG+e2u+7lTxf+k+VLF7Fs8QIA/lOaGhsYG5+gXK4A4DKXucxlLnOZy1zmMpf9JxmA/2bVaoiqMj5RIAojAP4dHnx4FW9454eZ9KZ3f5QPferLXHrldbzwrDM45zmnIiIA/LsNDA4D8HgGhoa59Mrr+PslV/F4Lr3yOgaGhgF4Ig31dSxbsgCAhIgwZ/YM0ukUC+bOBmDSrJnTqIYhE4UCAI9n+tQpzJ4xHYCEiLBiySKiOKJ/cAiAfwdVZcfO3azfuJlau/f0E8cxGzZtZWR0DICnY2BwGIBnQzab4WXnns3Y2DgX/fNyVBWApyOVCsjns4RhSBzHAOxLQ30dy5YsACAhIsyZPYN0OsWCubMBmDRr5jSqYchEoQDA4YccwJc+9SHmzp4JwKSWpibaWlvYsWs3AInOjjZe/ILn8tCjq/j5b/7MjbfeyQnHHsGCubMBeLYVCkXWb9xMrY2bt1IqlRkeGWXdhs2oKgBP1UShSKVSBeCZ8jyPc895DtlMmj9e8A8q1SoAT1dTYwNhGBLHMQCPx/M8APZWLlfYuHkr6zduptZEoUixWGL1mg1EUQTApEKhyPqNm9mXjZu3UiqVAXg6tu/YzcZNW1m5fDHZbAaAfC7HwQcuZ9PmbezcvQeAhKpy8RXXsn7jZl7zshdx/DGHc/CBy/nVHy5gT98AAIl0KsVLXvg8vvvVT/P+d7yRWTOnc+Mtd/KJz3+DD3/6K9xy+91YawGYtGXbDt75oU/zhnd+mMQb3/UR3v/xL/D7v/ydww85gDe86sX4vg+Ay1zmMpe5zGUuc5nLXOYCA/Df6JADl/OW172cj3/gHXzig+9k1+49/OL35xNFEQDPtiUL5/O1z32UWh9815tZtGAuf/7rxVx8+bUAPF2lUhmAJ6OjvRWAxzNrxjS++KkP8s0vfoLH88VPfZBZM6YB8EREBGMMAJOy2QwAT1c+nyWVCgCYlE6nMMYA8O+SSgW8/Y2v4ptf/AS1vv2lT/KJD76T3b19/PJ351OpVgFIlEplAJ6MjvZWAJ4tM6dP5bSTjuOe+x/irnsfBODpKJXKjIyM0dBQTyaTBmBfRARjDACTstkMAP9KU2MDY+MT/Ow3f+YDn/gib3r3R3nDOz/MOz/0abZs2wFArQOWL+Gk447igYcfY+G8OZx1xsmICADPtsWL5vHNL36CvX3va5/hyMMO4s8X/ZMHHn4MgES1GhLHMQD/SkN9HZl0GoBnQ3NTIy86+0w2bd3GFVffCMDTtXtPHw31dWQyaQAeT++efgD2NnVKN1/4xAf45hc/Qa3vfuXTvOicM7nq+pu45oZbAZi0eNE8vvnFT7AvX/zUB5k1YxoAT8d9Dz1CEPgcvHI5AJOWLlyAqvLwY6sBmDRtSg8veeFZ9HR3IiKc85xTOfzgA8hlMwDU8n2fhfPn8ObXvozvfOVTfPwD76C9rYXfn/93/nHZ1agqAImpU7r53Mfex9c+91EmfeID7+Toww/muhtv41d/uIA4jgH4TzLGICIAuMxlLnOZy1zmMpe5zGX/SQbgv0EURQyPjFKthgDU6unu5IhDD2TL1h3s6u0D4NkWpHxampuotWDebN782pexZNF87rrvQUbHxgF4KtpaW8jncmzctBVVBeDx7Nq9h2KpxJTuLgBcVq2GxHEMwLOhp7uT008+jm07drFj527aWlvI53Js3LQVVQXg8ezavYdiqcSU7i4AEtZaKpUqAM/EKScczfy5s/n7pVexp28AgKeqUCoxOjZOS3MjIgLAs+3Oex/gy9/8ITt39/Kic87kS5/6IF/73Ef53Mfex9Qp3QDUiuOYgcFhAHbs2s34RAGA/yRjDKeddBztra3cde+DZLMZWlua6esfZGx8AoDHMz5RoK9vkJbmJjKZNACJajUkjmMAnq4Dli/h6CMO4fqbb2ft+k0APFWlUpmRkTHq6vKkUykA9hYEAblslolCAYAnS0Q46rCDmDdnFg88/BjlSgWAf6dCscgjj61hdGycT3zhG7zhnR9m0he+8X2KpRL33v8whWIRABHhkAOXkwBI5HM5nv+806ivrwNgYGiYO+6+n/HxCQAmGWOYNWMaH3jnmzju6MO46da72L5zNwAJ3/NobmqkpbmJSTNnTOUVL34+xx19OI+tXs/O3XsA+E/ZvaePpsYGstkMAC5zmctc5jKXucxlLnPZf5IB+G+wdftOPvXFb3HbXfcCsLfGhnqstYRhCMB/iud5zJg2hWq1ShiGADwVTY0NzJ8zi8fWrmd3bx8A+6Kq3HnPA2QzGWZOnwrA4+nt6+dXv7+An/zqjzyeX/3+Anr7+gH4X5LNZmhtaWZkZIxiqQzA3sYnCvT1DdLQUE8mkwbgychmM0RxRKlUpqmxgflzZvHY2vXs7u0DYF9UlTvveYBsJsPM6VMBaG9twfd8+geHANiXHbt6QaG5qRGAx+P7Pi990VmoKn+/9CriOAbgqbjnvocoFksctGIZAM+2ajXkplvvoq2thQ+8800cfvABtLW20NLcRH19HTa2AExSVS6+4loeeWwNL33RWcSx5fy/XUoURQD8J/meRyoVUCqXieOYQw9awcjIKA8+vAqAx7Nuwyb6+gdYsmg+IkI2m6G1pZmRkTGKpTIAexufKNDXN0hDQz2ZTBqAfRERznnOqbS3tfDXi6+gWCwB8FSsXreBnbt7OWjlMjzPA2BvuWyGpqYG+voHieMYgCfL8zxSqYByuUIYRgD8O61Zt5G+/kFe/bIX8bXPfZS9veicM+nd08+adRsBeDK279jFb/90EY+tWQ/A3kSEObNmEEYhExMFAP6VubNnEscxpXIZgP+EYqnE0NAInR1tZNJpAFzmMpe5zGUuc5nLXOay/yQD8N+gq7Od1pYm7r3/YSrVKgCToijiwUdWUVeXp621BYDE0PAId9/3ENZaAP5dujrbKVcqDI+MAvBUiAgnn3A0ai1/vfgKSuUyALVUlVvuuIf7HnqEY444lK7OdgAeT6lUZuPmrazfuJnHs3HzVkqlMgD/axYvnEdf/wAPPPwYAHtbv3Ez/YODrFi6CBEB4F9RVVatWU8qSNHQUI+IcPIJR6PW8teLr6BULgNQS1W55Y57uO+hRzjmiEPp6mwHoKuzndaWJm694x4KxSIAtSrVKvfe/zDtbS1M7ekC4Il0dbRz9pmn8Mhja7jzngcAeDJUlfsefIQrrrmRZUsWMm/OTABUldGxcarVEIBnKo5jwjCko72Vhvo6ACY9/Ohq+voHAJi0bsNmbrz1Tk46/ihOPPZInv/c03jo0VVcc8OtAPwn7ekfYGBwiMaGejzPY+niBcyZNYMrrr2RbTt2AbC3Xbv3cMHfL2P6tCkceuAKABKLF86jr3+ABx5+DIC9rd+4mf7BQVYsXYSIAPB48rkc5z3/ufTu6eeKa24E4MnatGUbf/nrJUyb0sPBBywDIFGthoyOjaOqAHiex+IF89jd28fw6BgAT9bwyCi7du8hn8+RTqUA+HeJ45hb77yXhoZ6li6aT0tzE3s77KCVNDU1cte9D6KqAPwrM6dPpampkZtuu4tSqQxALVVlx87dBH5AXV0egH+lqbEeRRkeGQXgP2FgcJih4RHmzp4JgMtc5jKXucxlLnOZy1z2n2YA/hvkczlOOeEYNm3dxk9/9Ud6+/qx1tLb188vfnc+6zZs4rmnnUhjQz0AiZ279/CnC//B7//yN6IoAuDfIZ1KoVaZKBQBeKpmTp/Kuc9/DqvXbuCL3/gBd9x9P0PDIyS2bN3BT371R/5w/t9ZsXQxzz39RACeyKwZ0/jipz7IN7/4CR7PFz/1QWbNmAbA/5pDD1zB9GlT+MtFF3P+3y5hT/8A5UqFPf0D/PXiK/jl789n2pQeDj5gGQCTUBgbn2BoeIRJW7bu4IZb7uDL3/oRd97zAAcsX8K0Kd0AzJw+lXOf/xxWr93AF7/xA+64+36GhkdIbNm6g5/86o/84fy/s2LpYp57+okAJPK5HKeffDw7d/Xy1e/8hEdWrWWiUCTxyKq1fON7P2Pj5q2ccsIx5HM5AP6Vww5eybIlCxkbnwCglrWWhx9bw6133sOkq6+/hS9+8wf85Fd/pKe7k1e+5Pn4vg/Ag4+s4oOf/BJf+uYPKBSLADwTqVRAfX0dW7buYOPmrQBEUcQNN9/Bhf+4DM/zAEjs6RvgV3+4gK6Ods44+XhEhMMOXsnRRxzCFdfcyNr1mwD4V9Zt2Mytd97Dvtxx9/2Mj08AkAirEUPDI0waGBzi/oce5YK/X8o3f/BzRIRTTjgGgHQqxate+kJ83+Pr3/spf7vkSvb0DTA0PMKevgEuu+p6vvztHwHw+le+mGw2A0Di0ANXMH3aFP5y0cWc/7dL2NM/QLlSYU//AH+9+Ap++fvzmTalh4MPWAbAvzJ/7iyOP+ZwRkbHANjbug2bufXOe5h0wy138O0f/pKvfPvH+L7H61/5YvK5HADVasi3f/RLPvCJL3Lz7XcDkFg4bw7VasiGjVsAqBXFMcMjowwNjzDp4UdXc8kV1/LFb/yAkZExTj3xGFKpAIDE8PAot955D4/nnvsfplKtAvBk9fUPsmXrdlYsXURzUyMAe2tuamTenJls3LyVPX0DAPwrzU2NPO/0k9i8ZRvf+uEveGTVWoaGR0hs2bqDn/zqj1x9/S0sWTSPKd2dAPwr6XQa3/MZGRkD4D9h1Zr1eJ7HgrmzAXCZy1zmMpe5zGUuc5nL/tMMwH+LIw87iJe+6Gw2bdnGJz7/Dd707o/yic9/gzXrNvDSF53NkYcdBMCkZYsX8L53vJHH1qznF787nyiKAHi2dXd2kM1muPu+h7DWAvBUHXXYwXz4vW/F931+9YcL+NCnvkziC9/4PmvXb+SsM0/mDa96Mb7vA+CybDbDe9/+eg4+cDk33HwHH//c13nHBz7Fxz/3da65/hYOXLGU97z1deRzOQAmVapVfvzLP/ChT32ZSV/4xvf580UXM1Eo8MoXP59XvfQFiAgAiaMOO5gPv/et+L7Pr/5wAR/61JdJfOEb32ft+o2cdebJvOFVL8b3fQAmHX7IAbztja+iWg357o9/xXs+8lkS3/3xrxifKPCW17+CIw87CIAnw/d9XnT2GbS1tgBQKwwjrrjmRn7zx4uY9I9Lr8LGlje++qV86N1vJp/LAZCor8uTSacZHZ9gYqIIwDPheR4vP/ds6uvyfPlbP+IN7/wwb3nvx7nh1jt4+xtfRXdXBwBRFPH3S6+iGoa85mUvIpvNACAinPOcU+nqbOePF/yD0bFxAJ7IzbfdxW/+eBH78ocL/k5vXz8AicfWrONDn/oykz7yma/yo1/8nptvu5vFC+bxsfe/nelTewBIdHa08YkPvJOVyxZz9XU38/HPf50PferLfPzzX+eSK65l0fy5fPg9b6Gzow2ASdlshve+/fUcfOBybrj5Dj7+ua/zjg98io9/7utcc/0tHLhiKe956+vI53IA/CsiwhknH8+sGdMA2NvNt93Fb/54EZPO/+slDAwO8eIXPJdPf+Q9dHa0AZDwPENzUwOqyq7dewBITJvazexZ07nrvgeJ4xiASTt27uZTX/oWH/rUl5n0vZ/+hiuuuZGO9lY+/N63csDyJQBM2rp9J7/540U8nvP/dgmFQhGAJ+u+hx6hUq2yctliAB7PkYceRKlc5t4HHwbgyTjysIN45UtewPDIKN/98a/40Ke+TOIL3/g+a9dv5KwzT+Z1rzgPz/MA+FdaW5pobmrg/ocepVQqA/DvVKlWeeDhx1g0fy6dHW0AuMxlLnOZy1zmMpe5zGX/aQbgv4WIcOyRh/KtL32Sr3/+Y3ztcx/l65//GN/60ic59shDEREAak2f2sPrX/liVq1dz8VXXIuqAvBkZbMZPvHBd/KON74agH3p6mznm1/8BG9+7cswxgBQ64VnncE3vvBxWpqbAHg8M6ZN4TMfeQ/f++pn+NrnPkrim1/8BN/+8qd47mkn4fs+AP8pLzzrDL7xhY/T0twEwKTDDz6AH37j88ybMwuASYcffAA//MbnmTdnFgAtzU184wsf54VnnQFANpvhEx98J+9446sBqDVvzix++I3Pc/jBBwCQCKsRQ8MjJIZHRrHWApDIZjK87hXn8YNvfI6vf/5jfO1zH+Xrn/8YP/jG53j9K19MLpcFYNLhBx/AL77/VfblZ9/9Ml/61Ic45shDMcYAUGvGtCl85iPv4Xtf/Qxf+9xHSXzzi5/g21/+FM897SR83wdgb8uXLOQrn/kw3/nKp/na5z5K4jtf+TRf+cyHWblsMSICQCKbzfCJD76Td7zx1QDsS1trC1/5zIf5xhc+TktzEwCHH3wAv/j+V9nbj771BT714Xdz6EErMMYAMGnu7Jl89H1vo6WpkVQqAOCFZ53BN77wcVqamwCYdPjBB/DDb3yeeXNmATDp8IMP4Iff+Dzz5swCoK21hU99+N1884uf4Guf+yjf+cqn+dzH3se8ObP4xAffyTve+Gp83+ctr3s53/7SJ+np7gRgUj6X42Pvfzuf+/j7aGyoB6BcqTA0PEJidGwcVWXenFn88Buf5xff/yqP54ff+Dzz5swim83wiQ++k198/6vsyw++8Tne+vpX0N7WCkCtXC7L61/5Yn7wjc/x9c9/jK997qN8/fMf4wff+Bxve8MraWluAmBv2UyG173iPH7wjc/x9c9/jK997qN8/fMf4wff+Byvf+WLyeWyAEx6xxtfzSc++E6y2QwAe8tmM3zs/W/nh9/4PPPmzAJg3pxZ/PAbn+cX3/8qtX7ynS/xxU99kJOOO4p0KgXAJM/zeNNrXsbxxxxONpsBIOF5HiceeyRbtu1g05ZtACTe8cZX84vvf5V9+dG3vsCH3v0WZkybAkAim83wiQ++k198/6s8kW984eO0NDcBUGvenFn88Buf5/CDDwCg1nNPO4kfffMLLFowF4DHs2jBXH70zS/w3NNOAuDJEBGOOvxgvvGFj/Odr3yar33uoyS++cVP8O0vf4rnnnYSvu8DkHjHG1/NJz74TrLZDAB7y+dyfOaj7+Vj73872WwGgFovPOsMvvGFj9PS3ATAv/KON76aT3zwnWSzGQD29tjqdQwMDnHyCUcjIgBEUcTwyChDwyMMj4xirQVAVRkdG2doeIREWI0AcJnLXOYyl7nMZS5zmcueKQPw38YYQ3NTIy3NTTQ3NWKMAeDxLJg3mxe/4LkUSyXiOAbgv1k2m6GluYlEY0M9IgKAax5bs44PferLJL74jR8wMjoGQC3f92luaqSluYnmpkZ83wfg3yGbzdDS3ESisaEeEQHgX6nL52hpbiJRl88BsD9Za7nljrtpa22hob4OgGeDiNDYUE9LcxN1+RwAz8QNN9/Bhz71ZRLf/+lvKJcrAPwn+b5Pc1MjLc1NNDc14vs+AP+K7/s0NzXS0txEc1Mjvu8DsD/t3N3L2vWbWLJwHgCTFi+Yy6L5c7jmhluJoggAF9Xlc7Q0N5FobKhHRAD4b1WpVrnuxts4cOVSZkybAkBi89btfOIL3+BDn/oyX/7WjxgbnwCgXK7w/Z/+hg996sskHluzDgCXucxlLnOZy1zmMpe57JkyAP8fHHXYwbzivOfj+z4ALvtf8I43vppffP+rTPrGFz5OS3MTAC57Ntx0612sWrOec885E8/zAPhvks1m+MQH38kvvv9VJn3ig+8km80A4LKna6JQ5Fe/v4DDDl7J3NkzAZjkeR5ves3LeNsbXonv+wC47H9FOpXig+9+My8/9xxEBIDEvDmz+OE3Ps8vvv9VJr3wrDPIZjN84oPv5Bff/yqTPvHBd5LNZgBwmctc5jKXucxlLnOZy54uA+Ayl7ns/7Pjjj6MT3343bS1tgDgMlfU5XN8+D1v5bmnnYSIAOAyl7nMZS5zmctc5jKXucxlzzYD4DKXuez/M2MMCQCXuSaVCgBwmctc5jKXucxlLnOZy1zmsn8XA+Ayl7nMZS5zmctc5jKXucxlLnOZy1zmMpc9UwbAZS5zmctc5jKXucxlLnOZy1zmMpe5zGUue6YMgMtc5jKXucxlLnOZy1zmMpe5zGUuc5nLXPZMGQCXucxlLnOZy1zmMpe5zGUuc5nLXOYyl7nsmTIALnOZy1zmMpe5zGUuc5nLXOYyl7nMZS5z2TNlAJ6sFQtnUQvAZS5zmctc5jKXucxlLnOZy1zmMpe5zGUuSxgAl7nMZS5zmctc5jKXucxlLnOZy1zmMpe57JkyAC5zmctc5jKXucxlLnOZy1zmMpe5zGUuc9kzZQBc5jKXucxlLnOZy1zmMpe5zGUuc5nLXOayZ8oAuMxlLnOZy1zmMpe5zGUuc5nLXOYyl7nMZc+UAXCZy1zmMpe5zGUuc5nLXOYyl7nMZS5zmcueKQPgMpe5zGUuc5nLXOYyl7nMZS5zmctc5jKXPVMGwGUuc5nLXOYyl7nMZS5zmctc5jKXucxlLnumDIDLXOYyl7nMZS5zmctc5jKXucxlLnOZy1z2TBkAl7nMZS5zmctc5jKXucxlLnOZy1zmMpe57JkyAC5zmctc5jKXucxlLnOZy1zmMpe5zGUuc9kzZQBc5jKXucxlLnOZy1zmMpe5zGUuc5nLXOayZ8oAuMxlLnOZy1zmMpe5zGUuc5nLXOYyl7nMZc+UAXCZy1zmMpe5zGUuc5nLXOYyl7nMZS5zmcueKQPgMpe5zGUuc5nLXOYyl7nMZS5zmctc5jKXPVMGwGUuc5nLXOYyl7nMZS5zmctc5jKXucxlLnumDIDLXOYyl7nMZS5zmctc5jKXucxlLnOZy1z2TBkAl7nMZS5zmctc5jKXucxlLnOZy1zmMpe57JkyAC5zmctc5jKXucxlLnOZy1zmMpe5zGUuc9kzZQBc5jKXucxlLnOZy1zmMpe5zGUuc5nLXOayZ8oAuMxlLnOZy1zmMpe5zGUuc5nLXOYyl7nMZc+UAXCZy1zmMpe5zGUuc5nLXOYyl7nMZS5zmcueKQPgMpe5zGUuc5nLXOYyl7nMZS5zmctc5jKXPVMGwGUuc5nLXOYyl7nMZS5zmctc5jKXucxlLnumDIDLXOYyl7nMZS5zmctc5jKXucxlLnOZy1z2TBkAl7nMZS5zmctc5jKXucxlLnOZy1zmMpe57JkyAC5zmctc5jKXucxlLnOZy1zmMpe5zGUuc9kzZQBc5ppKpcLAwCBRFAHgsv8FqsrAwCCqCkCtSqXC4OAgcRwD8FSUy2VuvOlmdu7cBYDL/t0KxSKPPraKoeFhAJ6KOI5Zt34DxVIJAJe5olAssnnzFqIoAqBWFEUMDg4SRREA/0kbNm7kwYceBuA/QVUZHhmhUCwC8ExEUcTg4CBRFAGwtziOWbd+A8VSCYBn08jIKDfceDMjI6MAuEZVieMYgCeiqoyOjhHHMQD7Escxg4ODFIpFAFzmMpf9K4VikeGREVQVgMcTRRHj4+MAPJ5KpcLAwCBRFAHgMpfEcczg4CCFYhGA/2/iOGbHjp1EcQzAUzU8MsJDDz1MFEUA1CqWStx08y0MDQ8D8N/KALjs2VCpVPjpz3/JRz/+KZ6M8y/8KwD/aePj47zujW/h4MOP5he/+i2qCsAT6d2zh8uvvIqn48677iaKYwCKpRIf/ugn+NVvfkccxwAkduzYyWc//yU++vFP8XhuvOlmACZFccydd93N5VdexdPRu2cPAJMqlQo//fkv+ejHP8WTdeNNNwMwaceOnXz281/iox//FI/npz//JZVKBYAna09fH2e/8DwuvewKAGrdctvtPO/55zI4OATAU7Fq9Rre8/4PsWv3bgBc9u82PDTM297xHn7ww5+gqgA8Wb29e3jzW9/B57/wZaIoAqB3zx4uv/IqHs81117HyMgoAC77X/XYY6t57jkv4rbb7wCg1uo1a3nuOS9i9Zq1/PXv/+SNb3474+PjAOxtbGycr379m3z045/iybjxppsBeDzXXHsDv//DnwBIRHHMnXfdzeVXXsW+XHPtdYyMjALwdBRLJd7ytnfxu9//CYBnYvWatTz3nBexes1aAPbW27uHN7/1HXz+C18miiIAevfs4fIrr+LxXHPtdYyMjALwRLbv2MHHPvlptu/YAcCTtWPHTj77+S/x0Y9/iifr/Av/CsD+csGFf+WnP/8lURQBUCyVeP2b3sof/vQXAJ7I9h07OOWM53L9jTcBsC+Dg0M87/nn8rvf/wkAl/0vu/Gmm/noxz/Fk/HVr3+TsbFxACZt2LiRy6+8iqfrmmuvY2RkFIBJ51/4Vz768U/xZH32819ix46dAPwnjY2Nc+ttd/DZz3+JY084lZtuvgWASb/7/Z94y9veRbFUAuDxXHrZFZz+3HPo3bMHgH255bbbOeaEk1m9Zi0ALns23HjTzXz045/iyfjq17/J2Ng4AP9JqsrPf/kbDjrsaN70lrczPj4OwBMZGxunr6+fWpVKBYBaqsrwyAgPPfQwX//mdzjx1DN5x7veRxRFACSuvOoa3vjmt9PfPwDApB07dvLZz3+Jj378UzyeG2+6GYB/5fY77uLMs57P/fc/CMBTtX79Rl77xrfy8COPAlDrttvv4N3v+yD9/QMA7G1kZJRrrr2Oy6+8iqfqxptuplwuA/BMGYCnK4pj7rzrbq6/4SaKpRIAe+vds4drrr2OkZFRAJ5I7549XH7lVezLQw89TKVSAWDSyMgo11x7Hb179gCwL1Ecc+ddd/PgQw8DsLcojrnzrru5/oabKJZKADxVURxz/Q03USyVOOaYo3giGzdt4u677wHgPymKIr70la+za9duvvSFz/Ld7/+AK6+6BoAnsmHDJj7/xa+wLx/44Ed5x7vex+c+/2U+/8WvsLc//OkvVKtVALKZDCeffCLf+OZ3+PDHPkmxVAJgeGSEv/3jnwwODQGwt1tuu53Va9YBMKlSqfDt7/6AD3zwo3z+i1/hyfrM577I297xHh59bBUAk2JreeTRx7jx5lv4V/558aX8+fwL2bBxEwB7u+W220kAJIqlEhf97R/s2LmTkZERvvK1b/LRj3+KvX32819ix46dANS65577CMOQlpYWPvv5L/HRj3+KSb/93R/o7x/gi1/5Gh/9+KeY9NOf/5JKpQLAvqgq//jnJcycMYOFC+YD8Gwol8v88+JL+ejHP8UnPv05rr3+BqIoAuDJmJiY4PwL/8pHP/4pEt/7wY/ZvbsXgGeqr6+f7/3gx3z045/iy1/9Bus3bERVAXgyhkdG+NVvfsdHP/4pPvHpz3Ht9TcQRREA/8rUqVN473vewT8vuYz1GzYC8GRNmdLDV7/8RS6+9HKuvOoaADZs2MTnv/gV9uUTn/oc73n/h9m+YwcAz6Yojrnzrrt58KGHAXg8Dz70MHfedTdRHAPw4EMPc/mVV7EvDz/yKFEUAbAvqsrmzVv4yc9+yUc//ikS3/7u99m8eQuqCkCt3j17uOba6xgZGQVgX0ZGRrnm2uvo3bMHgJGRUa659jrWrF0HwL5Eccydd93Ngw89DEDiwYce5vIrr2JvDz30MIViEYAna8PGjVx+5VUkent7mTZ1Cj/52S+5/MqrSFxz7XWMjIwCMOnUk0+kWCrypa98nSiKAKhVLpf55yWX0djYwDHHHMXjOfTQg7nrnntZvWYdAE9WtVrlD3/6C5//4lf46Mc/xdve8R4+87kv8vkvfoVPfOpzvOf9H2b7jh0AJN7/wY8wc+4iar34Za+iUCwC8GT19fVz5LEnMnPuImr9+Ke/AODpmDKlh69++YtcfOnlXHnVNQBs2LCJz3/xK+zLJz71Od7z/g+zfccOAP4dhkdGuOyKKymWSgBMevSxVVx19bWEUQTApEcfW8Xdd98DwLNBVbnv/gd48KGHAfhXduzYyQ9+9FPiOMbzPABy2SzLly3lj3/6C4ODgwA8nrXr1hNFMa0tLfT19ZOoVCoA7A+9e/ZwzbXXMTIyCsAT6d2zh8uvvIp9ueXW2xgfHwfg8eze3cuf/nw+H/34p0h8+avf4MGHHiaOYwBqjYyMcs2119G7Zw8A+1Iul7nxppvZsHEjAFEcc+ddd3Pb7XcSRREA+7Jh40ZuvOlmyuUyAL179nD5lVext1tuvY3BwUFUFYCnavWaddx1z70ceujBHHPMUTyexsYG/nnJZZTLZQAmXXPtDbztHe/h6XrXez/A9h07AJh099338OhjqwCYVCyVuOhv/2DHzp0ATCqWSlx2xZUMj4wA8Gwolkpcf8NN9O7ZA0CtkZFRXvHq1zFz7iKWH3gor3j167jt9jt42UtfzKKFCwF4KlSVW2+/g3lz56JW6evrZ3BwkDiOAdgfHnzoYS6/8ir25eFHHiWKIgAmjYyMcs2113H5lVfxRHr37GFkZJRrrr2Oy6+8in/lzrvuJopjACZFccydd93N9TfcRLFUAuDpWL1mHXfdcy+HHnowxxxzFI+nsbGBf15yGeVyGYD/pCuvuobvfv8HfO4zn6S/f4AvfeXrRFEEwOP57Oe/yKFHHkutW267netvuImjjjuJw486ntnzlzBr3mIOOPgIzn7hi7n0sis49eQTef9734XneQAkDjrwAEbHRnnheS9jw8aNACSGR0b42z/+yeDQEAC1wijiqquvZfWadQD8K0cccRhnnHYqv/3dH4iiCIB/ZWxsnL6+fhLTpk5h+bKlXHDhX+nr62fSzp27+OOfzueE446jqamRvr5+BgYGiaIIgMT2HTt4z/s/zCc+9Tk+/8Wv8GR99OOf4mOf/AxjY+MAPFMG4OnasmULb3n7u3jdG9/CddfdAMDeHn1sFe967wfYvmMHAE/k0cdW8bZ3vId9OfuFL2bJioP59W9/TxzHAGzfsYN3vfcDPPrYKgD2pVKp8O3v/oDf/+FPAOxty5YtvOXt7+J1b3wL1113AwBP18IFCzjz9NN4ItOmTgXgPymOY372i19x+ZVX8Z1vfo2Xvvhc3v3Od/D+D36E62+4CYDHc/RRR3DHLTewL+98x9s45OCDuO6ay7njlhvY2w+++y1y2SwAIsIpJ53IRRf8idtuv4MPfPCjjI+PA5DL5Xjn29/Kl7/4OfZ22CEHA7Av73zH27jjlhuodfvN13P5JX/n2qsu445bbqDWpf/4Kz093QDUymWz/OC73+KOW27giXzza18mk8lw5umn8eJzXwjApKlTp/DpT36Mww45mMSXv/g5Eh//yIdob2/j1a96BW943Wu46+57OP/Cv3LDjTdz4823kLjqmuv458WXUq6UAZgURRFXXnUNhx16CD093QA8VbfedgdHHHMCtY44+gT+8Ke/8Ohjqzj1zLM44pgTeDznvuQVDA4OAvBEdvf2ct5LX8l7P/BhtmzdxsaNm3jTW97B69/0NsbHxwF4IrffcSfHnnAqX/zyVxkfn6BarfLHP/2FI445gZ//8teoKgBPx/U33MRxJ53KL371a4ZHRrjmuus59Yzn8Ytf/QZVBeCJXH/DTRx5zAl853s/YHx8go0bN/Gmt7yDl73yNfT3DwDwrxx/3LFMndLDJZdejqoC8ERUleGREQrFIoccfCAvPveFfO8HP2JwcJCjjzqCO265gX357a9+RkNDPQDPtkqlwre/+wN+/4c/AfB4fv+HP/Ht7/6ASqUCwO//8Cfe9o73sC9nPf9cVh58BDfedDMAtUZGRnnHu97HCaecwfe+/0NuvPkWEj//xa854ZQzeMvb30V//wAAkx59bBXveu8H2L5jBwD7sn3HDt713g/w6GOrANi+Ywfveu8HeNkrXsO69RsA2FulUuHb3/0Bv//DnwBI/P4Pf+Jt73gPezv7hS9myfKDePs730t//wAA/8pdd93D57/4FRJf/to3GB0bY8vWrXz+i18h8c1vf4/ePXsAmFRfX8+H3v9err/hJm67/Q4A9uXggw/izNNP4/GcesrJtLe1AbC3P/7pLxxxzAkkvv+DH/HPSy7jiGNOIPH3v/+TH3z3W9xxyw189lOfYPmypVxzxaXcccsN/PZXP6OhoR6AWocechA/+sF3SJx91nMBeLre8qbX86MffIdvf/OrzJ49C4CnSlUZHhmhUCxyyMEH8uJzX8j3fvAjBgcHOfqoI7jjlhvYl9/+6mc0NNQD8O/U2trKxz/yIb78xc8x6cwzTmfevLl89tOf4Mtf/ByTzjzjdACeDeVyme/94Me88LyX8fs//AmAJxJFET/88U9pbm7ipS85DxEBIPHic19EtVrl/Av/iqoCsLcojrn4kssYGhriBee+lEOPPJbELbfdDsD+8Ohjq3jXez/A9h07AHgijz62ire94z3syytf8waWHXAoX/naN4iiCIBJ5XKZL33l6xxxzAl86rNf4MabbyHxlwsu5JwXvpgXnPtSNm/eAsCk7Tt28K73foBHH1sFwL6MjY3zsU9+hmuuvQGASqXCt7/7A17+qtdy/gUXAbAv11x7Ax/75GcYGxsH4NHHVvG2d7yHvb3yNW/goMOO5uTTn8tdd98DwFPV3tbGqaeczJmnn8bjOfjggwDY21vf/Aa2bFjNvvziZz+ip6ebu2+/mS0bVrMvqx95gGVLlwBQ68wzTufLX/wckz7+kQ/R3t7Gq1/1Cr78xc8x6eMf+RCtra0APBt29/byxje/jde98S08+tgqAGrV1dfxjre9hb/88bd88+tfoaenmz/89le85U2vp6OjnUKxyDXXXc/Q8DAAib6+fl7+qtdy7fU3AFBrx86d3Hrr7dx4080cccwJHHrksTzv+ecyODgEwP7w+z/8ibe94z3sy1nPP5eVBx/BjTfdDEBi+44dvOu9H+Bt73gPT+TRx1axfccO3vXeD/C2d7yHf+Xb3/0BlUoFgElbtmzhLW9/F69741u47robAHi62tvaOPWUkznz9NN4PAcffBAA/2n33f8AH/n4J3n3O9/BK1/+Ur7+lS9y+ZVX8dWvf4soigDYl29+/Sts2bCaxLe/+VVmzZzBkkWLOPzwQ/n8Zz7Fpz75UX77q59x/dWXc8DKFXz4g+/npuuv4iMf+gCzZs1ERABItLe38cuf/ZhZs2byuje8lQ0bNwKQyOVyvPPtb+XLX/wctT776U8wb95cACatWr2Gj378U+zLJz/1WXbt3s0VV13NO9/zfj768U+xt89+/kvs2LETgMRnP/9FDj3yWBJHHHMCN950M3+54CIOPfJYJh113EnceNPN/P2fF3PYkcdx6JHHcswJJ7N6zVoAJjU01PPbX/2MO265gVq33HANl/7jIm654RruuOUGan3z618B4NliAJ6u226/E2M8Fi1ayIV//TvlchmAZyKbzXDJPy5iy4bV1Hrg3js4+3nP4fNf/ArXXHs9AM+G226/E2M8Fi1ayIV//TvlchmAp+OrX/8mM+cu4on89e//BOA/pVwu86WvfJ3vfO+HfPVLX2DFiuWICG943at5+ctewlve/i7++vd/oqoA7MvOnbt41WvfyAMPPgTAE1FVPv/Fr/Cd7/2AOI4BqLV40UL+9PvfMGVKD3FsARgZGeF557yImXMXkTjy2BPp6+sH4Kkqlkq85W3v4ne//xMAz4YoivjJz37Jq177Rl77mlfyve98g/r6egCeitbWVt733ndx0IEHcN3Vl3HHLTeQ+NbXv0xDQz1NjU0ATLr/gYe47Y47eNlLzmPWzBl8+pMf48tf/ByTXv2qV9De3sbHP/IhvvzFzzHpzW98Pel0GoCWlmaOP/YYavmBTzqd4qznnsnxxx7DEzn4oAMIghQAjyeKY77z3R8wPj7O9ddcwZ//8BsSf7/wzzzw4IN8+7s/QFUB2JfBwUE+87kvcuSRh3PnbTfxg+99i29+/Svcfsv1fOgD7+Wb3/4eDzz4EABP1e7dvXzuC1/irOc+h7tvv5mf/PB7XHfVZXz4g+/nq1/7JrfedgcAj2fd+g184EMf5aznPoe7b7+ZH3zvW/z5D7/h+muuoL9/gG986ztEcQxA4pFHH2PRsgOYOXcRtQ44+AgeevgRvv/DHzNr3mJmzl1Erfd/8CMATCqWSrzlbe/id7//EyLCG9/wWr7zra/T0tICwP+aww49hMcevo8tG1ZT645bb2DxogV85GOfYvuOHQAkxsfHefu73sP1N97Id7/1dR558B7uuOUGEo88eA+//dXPuOee+3jP+z/I+Pg4AM/U0PAwn//ilykUiwA8GYcdegiPPXwfWzasZtIjD9zNV7/8BW665VbOe+kr2LlzFwBP5OUvewl33HIDj+fKy/7JwgXzAai1YsVyrrjsHxx7zNEA7Msb3vQ2Zs5dxONZsvwg7rr7HgD2dthhh/DJj3+ExCmnnMSBB6zgkx//CInDDjsEgCiOue6GGznwgJU0NjYAkGhqaqKzowOASdOmTuXM008jsXDBAgBuueU2jjjmBPZ20ilncs+99/H9H/yII445gXe8+30USyUAEgcffBBnnn4ap55yMu1tbQB8/otf4YhjTmBvr37dm+jt3cOrX/cmjjjmBP74p78AUCyVeMvb3sXvfv8nRIQ3vuG1fOdbX6elpQWA/a0wUeC6G27k8iuvYtKatWvpHxjg6muu5fIrr2LSmrVrAXgmyuUyf/37Pznx1DP5yc9+jjEGgCeiqvziV7/l4ksv57Of/gTNTU0ATOru7uID73sP3/neD7nyqmsA2NvGjZu4/Y67+O2vfsaWDauZdPKJJ/Djn/6CmXMXkTj0yGPZtWs3X/36N5k5dxGJRcsO4JFHHwNgf8pmM1zyj4vYsmE1tdY8+gDvfufb+OnPf8UVV14NQCKKIj77+S/xi1/9hg9/4H08+uA93HHLDSQevPdOLr/k70wUCrzujW9h585dADwbvvqNb/HYqtUAPBnZbIZL/nERWzasZtKGNY9w0fl/pC6f56WveA1XXHk1AE/FXXffw5LlBzFz7iIezxve9DYA/lPWrF3L5VdexaTrbriRiYkJ7r33Pi6/8iomXXfDjRQmCgA8E319/Xz+i1/hmONP4bFVqwHYF9/zOPywQ0k0NjYAUGvDho18+rNfYE/vHgASHR3tHH/csXz1a99kd28vAJOuv+Em8nV57r3zVrZsWE3i9puvJ1+X58UvexUz5y4i8YY3vY1SqczzznkRM+cuIvHil72KQrEIwLPtsEMP4bGH72PLhtXUuuPWG1i8aAEf+din2L5jBwCTfvGzH7Flw2oez8knnsCypUtY/cgDbNmwmkkf/uD76enp5u7bb2bLhtVMOv9PvyOfywEw6bbb78QYj0WLFnLhX/9OuVwG4Om46+57WLL8IGbOXcTjecOb3gbAf4qqcs111/PKV7+e5z7nTN7wulcjIqxYsZxvf+Nr/PFPf+EjH/8UxVIJgMezY8dOvvu9H/Kud76N7u4uctksJ55wHGeefhrHHH0UnV2dpFIpAJ5IfX09P/juN3nRC59PZ0cHAE/V0NAwN958C7Wuu+FG/nz+hVx+5VVs2LiJzs4OHnzoYW68+Rb2dseddzFRKACQ+ObXv8KWDavZ27133sr0adP40uc/w5YNq9nb6kceYNnSJQD8K6vXrOW557yI1WvWAvDvZACejvHxcf7+j4t57pmn8953vYO777mXVavXAPDv0NzUxCc+/hEWLVzADTfeBMAzNT4+zt//cTHPPfN03vuud3D3PfeyavUaAJ6Od779rdx9+808kTNPPw2A/4Tdvb28/k1v5U9/OZ+f/PB7nH7aKQAkfN/nwx98H+98+1v4wIc+SmJiYgKAvTU01DM2NsavfvM7ojgG4PGs37CRf1x8KXNmz8bzPAAm7d7dSxRFzJo5g49/9EM0NTUC0NTUxCX/uIgtG1ZzyT8uorGxEYD/Bus3bOSF572MH/zoJ/z0R9/nHW97C77vA/B4tu/YweVXXkXiuhtuZGJiAoBEe1sbo6OjjI2PA5DYsHETU6b0kMvnAEiUy2V++vNfUKlUqKurA2BwcJBzX/IKjjjmBBLv/+BH2LVrN88954UcccwJJD7/xa8AMGnxooV8+YufY9Kb3/QGqtUq73rH2/nWN77Kl7/4OZ7Ihz/4fhoa6gF4PBs3buKqa67lXe98GzNnTAcgsWLFct7/3ndz+RVXsWPnTgD2ZcfOXQwMDvHqV76cXDYLQMLzPJ5/zlk0NTZy/wMPAvBUXX3tdRRLJd76ljeRyWQAEBFe86qXc+SRR3DBRX8limMA9uW662/E8z3e/rY3k8lkAEjMnDGd973nXVx1zbVs3LgJgMSihQu45YZrufv2m3kyfvPLn5LP5znl5JMAeDwd7e10drTT3z9AX18/tQYGBomiCID/Nd1dXXzw/e9lYGCAtevWA5D4w5/O54477+ZnP/4hZ5/1XDzPAyDheR7HHXsMv/rFT7j/gQf52S9+jaoC8Ey85U2v5/4HHuL3f/gzqgrA01FfX8+Lz30h//zr+RSKRb73gx8RxTEAT+TGm27mox//FHv76te/yYaNGzny2BN53jkvYvfuXp53zouYOXcRiQMPOZKXvPzVFIpFAPb2za9/hbtvv5nHc+N1V3HAyhUA7G3unDmcefppJBYuWMC0qVM58/TTSMydMweARx99jNtuu4OTTjwBgMTg4CBjY2MA/Cvz5s7hkx//CHv78Ifex8yZMzjllJP45Mc/wite9hJSqRQAj+d5zz2TT378I+ztja9/LfX1dbzx9a/lkx//CIcddggAe+tob6ezo53+/gH6+vqpNTAwSBRFAPynlCtl7rzrbm655TYmbdq0mZHhEW67/U5uueU2Jm3atBmAZ2L9ho18+rNf4IAVK7jwL3+kq6sTgMejqlx2+ZV89/s/4EMfeC8rli8DYG+nn3YKL3z+2Xz4Y5/gvvsfAGCSqnL+BRcxd85sDj74IAD2dughB/GjH3yHL3/xczQ01HP2Wc/lRz/4Dh/+4PvJ5fIA/LfKZDK87jWvZtnSJdx4080AJK697gbOv/CvfP4zn+Stb3kjmUwGgISIsHjRQn77y58Rx5YvfeXrRFEEwDNx4gnHsXDBfL70la8xPj4OwNPh+z4HH3Qg5//pd5x26sl89evfZPfuXgCerANWruDG667i7ttv5vF88+tfAeCpsrEltjEAT8WmTZu55ZbbmHTnXXdTKpV5bNVqbrnlNibdedfdlCtlAJ6Jv/79n/zxz+fz4Q++jy9/4XMA7Eu5XObGm27m8iuv4t5772NiYoLrbriRy6+8it49e3jssVW0tbbS09MDwKQXvfD55HI5/vTnC1BVAAYHB/njn/7Ci17wfNraWgHY21ve9Hp+9IPv8JY3vR7f8/jwB9/Pj37wHc4+67kA/Kd1d3Xxwfe/l4GBAdauWw/Af8r4+Dh//8fFPPfM03nvu97B3ffcy6rVawB4Og5YuYIbr7uKu2+/mcfzza9/BYD/hHK5zPd+8GPe9JZ38PKXvYTPfurj+L4PQOLEE47jFz/7EddffyPPO+dFrFmzFoC9lctlPv25L7Bk8WKe95wzAUiMjY2TAHgq6uvredc73kp9fT0AT9XRRx3BHbfcQK1L//FXZs6Yzg+/9x3uuOUGnsiVl/2ThQvmAzDpwYce5vIrr6LW3/7xT0ZGRxgeGeHyK6+i1jXXXsfIyCgA/20MwNNx/wMP8uhjqzjpxOM58ICVTJnSw3XX3wjAv0sqlaKuro4tW7dRKBYBeCbuf+BBHn1sFSedeDwHHrCSKVN6uO76GwF4OrZt386999/PExkYHADg3ymOYy6+5DJOOf157Nixi7/88XeceMJxANx62x2c+5JXMDg4iO/7vONtb+F73/4Gl195Faec8TxuufV24jgGYFJ9fT2vf+2ruf6Gm1i9eg0A+6Kq/OX8C2ltaebIIw4DYNK69Rt47jkv4oMf/jjFUgmA8y/8K9//4Y/p7x/g+z/8MR/9+Kf4/g9/zLZt2/niV77GRz/+Ke66514uv+JKfvrzX1KpVACodeNNN/PRj3+KSZ/81Gd5+JFHuP2OO/joxz/FpJ/+/JdUqhUAnqy+vn5e/bo30tzczDVXXsJJJx6PiADwRO5/4CE+/8WvkPj2d7/P2Ng4AImOjnYA+vr6AVBV1qxdx7y5c8llswAkrr3uBq6/4SYAJsWxZeeuXZz9vOfwyY9/hC9/8XP86Aff4TOf+jif/PhHmDZ1CiMjIwDsSxRF/OBHP6GpsZHzXvR8ACa9/4MfIQHwVN133/0EQcBBBx4AQK0DD1jJ6Ngojz22GoB9McYQxxGVShWAfcllswA8FZVKhRtvupmDDjyAqVOnADApk8lwxOGHcc8999Hf3w/AvmzYsIHZs2bR2toKQK2ZM2dQqVS47777AUj4vk9bWysdHe38K9lshp//8tccf+wxnHzSCQA8nsHBIZ73/HM59Mhj2dsxJ5zM6jVrAfhflEqlSPieB8DQ8DB/+/s/eM6Zp3PEEYcBsC8rli/j3Be+gL/945/s6esD4Jk46KADeefb38qPf/ozHn74EQCeiTlzZvOyl5zH9TfexK5duwB4IqvXrOOW224HYNLg0BBXXHk1qVSKL33+M3z4g++noaGe97zrHcyePYuzz3ouP/rBd3jvu99BOp0GYG/r16/n3vvv5/E88OCDjI6NAfBUbdi4kXe95wOceOLxHHH4oQCoKps2b2HmjOnU1dcB8ES6urs48/TT2Nupp5xMe1sbCxcs4MzTT+Pwww7F9zwAHs/KFcs58/TT2NvRRx1BPp/n6KOO4MzTT2PunDkA7G1wcIjnPf9cDj3yWPZ2zAkns3rNWgCeqmKxyPd/+GM++vFPsbfPfv5L7NixE4C9tba28vGPfIgvf/FzTDrzjNOZN28un/30J/jyFz/HpDPPOB2AZ2LOnNnceesN/PD736ajvR2AxxPHMb/+7e95z/s/xPve8y5e9YqXISIA7M33fT79yY9xxmmn8opXv45LLr0cVQXg0cdW8de//4Mjjzicm26+hcuvvIrENddex8jIKADTpk7lzNNP46QTjqeuro6FCxZw5umncfRRR5BKBQD8N/N9j3Q6je/7AFQqFc6/8CKWL1vKWc97DgD7MnXqFF7/uldz/Y03snrNWgCeieamJj7+kQ/x6GOr+OOfL0BVAXi6MpkMb3z9a9m5azd33X0PAE/W6NgYDzz4IPfefz+PZ/369QA8Vb179vCcs17IP/55CVEUAfBknHnG6Xz5i59j0sc/8iHa29t49atewZe/+DkmffwjH6K1tRWAZ+LF572QRx+8hze+/rUEqQCAfRkbG+djn/wMb3vHe/jJz37J2Ng4H/34p3jbO97DvffdzzXXXc+BB6yksbEBgEnNTU289c1v5IIL/8r6DRsBuOCivzNRKNDe1srlV17FpDvvupsojAA4+OCDOPP00zj44IMIUgFHH3UEZ55+GgsXLABgf0ilUiR8zwPgP+X+Bx7k0cdWcdKJx3PgASuZMqWH666/EYCnY3RsjAcefJB777+fx7N+/XoA/t3Wb9jIi1/2Kr7/wx/zqU98lI986P34vs/g4CDnvuQV3HrbHQAcecTh/PWCP5FOpTjzrBfwo5/8jGKpBEBCVfnN7/7Ilq3b+NhHPojv+wAkPvv5L5IAmFQsFunr6ycxNjYOwJNRLBb5/g9/zEc//ilqffqzX2D9+g0APJE9fX1UqlUaGxsAeKp+/4c/8bZ3vIdaX/rK1xkbG+fr3/wOb3vHe6j1rvd+gO07dgCwt0qlwk9//ks++vFPMekb3/oug4ND/OJXv+GjH/8Uk2686WYAnk0G4KlSVa67/kaWLlnMgQespK2tldNPPYUrr76GgYFBAP4dojCiVCoxdUoP+VwOgKdLVbnu+htZumQxBx6wkra2Vk4/9RSuvPoaBgYGAXiyRIT29jbuvudePv/Fr/BEtu/YSVNTEwD/Dus3bOT055zNu977AU475SQuu/ivrFi+DIBEuVJm565dxLEFQER43nPP5PprrmD5sqW88jWv5zWvfxMTExMATDr+uGOYN3cOF170N1QVgL09+tgqzr/wr7z1LW+ktbUVgEnz583l/D/9lvvuf4A3vvltjI+Pc/fd97Bq9RrOfeHzaW1pAaC1pYWznnsmuWwWgGOOOpKmpkauv+EmojgG4IlMFAqEYUQ2mwXg2XDYoYfQ3dUFwJNx9vOewx233EDi0n/8lZ6ebgASjY2NtLe38dhjqwAYGxtn3br1rFyxHIDEjh07+ca3vsPJJ51IY0MjALUOPvggzjz9NPY2bepUAB7P+RdcxD/+cTGf/PhHaW1tBeDZ8NDDj9Dd1UVjQyMAtTo7Omhubmbzlq0A7Mvs2bNYvmwpf7ngQoqlEgCJOI75+z8uJowiDj74IACeivHxCTZu3MzsWbPwPQ+AWvPmzWF0bJSBgUEAnq6du3YD8FSoKn/88wWsWbued7/r7fi+D8C/8ouf/YgtG1Yz6e7bb2bmzJkA/C+K45grr76GhoYG5syZDcDGjZvYvHkLzznjdHzPA2BfRIQTTziO3bt72bBhEwDPhIjw8peex9Ili/niV77G+Pg4AM/EUUcewcjIKJs2bQbgXznskIP58hc/x6R3vv2tZHM5MukMxx93LEcfdQT5fJ7DDzuE9rY2Fi5YwJmnn8bhhx2K73kATPI8w5SeHv55yWV8/otf4fF87RvfplQq0VBfB0Ctz3/xKxxxzAkkvv+DH/HPSy7jiGNOIPHNb3+Pd7zrfUyZ0sMnPvph4jjm9W96K4uWHcjnvvBljj/uWHLZLACTtu/YweVXXkVizdq1ACRUlaHhYQCerHvvvY/Lr7yKq6+5lv6BAQAS5XKZQqEAwNP1i5/9iC0bVjPp7ttvZubMmQA8HVEUc+99D3DjzbewtzvuvIuJQgGAvRUmClx3w41cfuVVTFqzdi39AwNcfc21XH7lVUxas3YtAM9ELpulrq4OgCcyPDLC29/1Xr70la/z1S9/gTe87jWICACPJ5PJ8MXPf4ZXvOylvOu9H+Djn/osYRgye/Ysvv+db5LLZfnEpz7H29/5Xj7xqc/xzW9/j949ewD4X/fQw4/wyKOPcfRRRwKwp6+PRx9bxSknn0h9fT0Aj+fQgw/CGI9HHnkUgGdq+fJlvPXNb+L7P/wxDz38CADPxJzZs1m0cAF33HkXAE9GQ30dpVKJr33j23z+i1/h8fzzksuY0tOD5xkAnqyWlhbOft5z+MCHP8ZJpz6H2++4E1UF4ImsWbuWy6+8iknX3XAjExMT3HvvfVx+5VVMuu6GGylMFAB4Jlqam/F9H4An0tHRzu03X8+WDat5zateQU9PN3fffjNbNqxm3ty5PPzIY5xw/LEA7O2oIw+nu7uLP/zxz1hrOeu5Z/LlL3yWG2++hQ988KO8413v43Of/zJ/+NNfqFarAPy3ieOYK6++hoaGBubMmQ3Af4Kqct31N7J0yWIOPGAlbW2tnH7qKVx59TUMDAwC8FQ01NdRKpX42je+zee/+BUezz8vuYwpPT14ngHg2VYslfjAhz/GKac/l4lCgUv/cRGvffUr8TwPgDi27Ny1i3KlDEBi1qyZ/O3CP/OhD7yPb33n+xx+1HE8/MijAKxZs5bv//DH7N61mxe95OUcccwJ/PFPfwFgX77/wx9z6JHHkvjs578IQGJwcJBzX/IKjjjmBBLvePf7KJZKADyRwPc57dSTWbRwPgD/Lt/8+lfYsmE1k9Y8+gDHHnM0r3nVK9iyYTV7W/3IAyxbugSAJ2NoaIi6fJ4gCAD4dzIAT9WOnTu5+prrOO3UU6ivrwfgpBOPZ+fOXdxx510APNvK5TK/+s1veeTRxzj+uGMBmPTb3/2Bj378U+zLpz/7Bdav3wBArR07d3L1Nddx2qmnUF9fD8BJJx7Pzp27uOPOuwB4snLZLD/47re445YbeDI++fGPAFDr/Av/ykc//imers9+/kvs2LGTWTNn8LznPod//PV8vvG1L1NXVwfAv9Ld1cVPfvg9/vT7X/OKl72Uuro6ACbV19fzspecR2NjI2EYArC30dExzj7ruZx6yskA7G3unDn8+Q+/oXdPHz/7xa8BOOjAA/jA+97Ne9/9Th7Pi897EQD7cvxxx/LlL36OSee+6AW0tDTziY99mC9/8XNMevMbX086lQZgkqoyPDJCX18/+zI4OEgcxRSLRfr6+tmXQrEIwJOVy2ZZuWIFt9x2O1Ecs3HTJgaHhli6dDEAid/87g9MmdLDa171CsQIALXe/8GPcMQxJ7C3f15yGQD7ct/9D/DVb3yL9733XRx91BEAPFuiKCKbzeIHPgC18nV5pk2dyoYNGwDYl3wux7e+/lXCMGTFgYfx8le9lne8630ceuRxnH/BX/nVz3/M/HlzAXgqrLVEcURdXR0Ae+vs6ABgT18fAPsyd+5cVq9Zw44dOwGodettd1Aqlent7QXgyVJVLrv8Sr77/R/whc9+ivnz5gLw/9n69Rv49Ge/wEc//ilqnfHcc7j6muv46Y+/z7SpUwEYHRsjSAVMmdIDwBNpbW0lnU4xMTEBwDNVX1/Pxz7yIdasXcfPfvFrVBWAp6u5uYl8PseuXbsB+FdKpTJ9ff1MGh4eRq0FIDE6OkY6laKzsxOAJ9La2sqFf/kDd9xyA0/Gy1/2EgBqPe+5Z/LJj3+ExDvf8TZyuSyvesXL+eTHP8LZZz2HP/z2V/zy5z+mqamRdDrNt7/xNW6+/moeuPcO3vC61wBQ6/4HHuLzX/wKiWuuuQ6AxM9+8Ste8KKXsGPHTgCejD+ffyGf/+JX+OrXvsWWLVsBKBQKvP5Nb+XTn/siURQB8N+goaGe3/7qZ9xxyw3s7crL/snCBfMBqBUEAblclu/94Ed87vNf5h3veh/ves8HuPueeymVSnzmc1/kbe94D5/41Of4/Be/wt333EtTUxMA/2719fWsWL6cS/9xEeVSiSOPPZEjjjmBf+U97/8Q73n3O/jj737Fq17+UoIgIJ/LcewxR/PG17+W3/7qZ3R1dfLbX/2MKy/7JwsXzAfgf0G5XOH7P/wxH/34p6j1uje+hTe+5R189MMf4MwzTgNgdHSMiYkJFiyYD8ATaW1tpbGxgeGREQCeKRHhla94KQcesIJPf/YLDI+MAPB0ZTJpWltb6Ovvp1KpAPCvvPxlL+GOW27gybjwL3+gtbUVgCcrk0nz1je/kXvuvIXjjzuGl7/qdbzl7e9id28vAPvS1NTE3ffcy+e/+BU++vFP8bZ3vIevf/M75PN5/vHPS3nHu97Hu97zAT7/xa/wvR/8iFwuSxAEAPynDAwMcstttzM8PMy27dsBuOLKq2hpbmLZsqUA7K2+vp7PfOrjvOD5ZyMiTJnSw3HHHsMPvvst3vmOt3HIwQdx3TWX84PvfotcPgfA/rJ+/QY+/dkv8NGPf4paZzz3HK6+5jp++uPvM23qVAAm/fZ3f+CjH/8U+/LTn/+SSqUCwNOxY+dOrr7mOk479RTq6+sBOOnE49m5cxd33HkXAE/Fy1/2Eu645QaejAv/8gdaW1sBmHTjTTfz0Y9/imdi1eo15LJZTj35JL725S9w2T//ysKFCwD4VzKZDG950+u55cZreM8738H8eXMB6O7u5jvf/Crf+PqX+eTHP8K0qVMYG58AYF/e+fa3cvftN5P49Cc/DkAin8/z9re+iU9+/COc/bzn0N8/gKoCYK2lsaGRD33gvXzsIx/kVa94GV/6wmf58hc/x6TjjzsWgMdTLpcZGBjk1a97E0cccwL78o53v49iqQTApB07dvLZz3+Jj378U9R67wc+zK233c7GTZv46Mc/xeP56c9/SaVSAWBSOp3mzW98PV/+4udIfOkLn2XBgvkcdtghfOVLn+fLX/wck44/7lgAnk0G4Km6/oabKJaKnHjCcQAkFi9ayKGHHMzf/vFPKpUKAE9HqVTm1a97E0cccwKTDj/qeBYvP4jvfv9HvOF1r+GM008FYNLDjzzKjTffwr7ceuvtjIyOAlDr+htuolgqcuIJxwGQWLxoIYcecjB/+8c/qVQqADyRW2+7gyOOOYGn6/TnnM2atesAWLduPTfefAtP1x133sVEoYDv+7zrHW9l5YrliAgAT5aIcOQRh3PaqScDsLfzzn0h73/vu0ilUgDs7eijjuBLn/8M+VwOgH2ZMqWHS/5xEe9+59s49NBDmDVzJs97/rkceuSxPJ716zdw4gnH4XseAI9HVbnlltvo6+vnJz/7JeVyGYDHUyyVeMvb3sWhRx7LvpzxvOezp6+P7//wxxx65LHsy+9+/ycAapVKZfr6+kkMDg4SRzEAk0468XjWrd/A7t27ufmWW5k6ZQrd3d0AJJ5/zll87ctfpKGhHoC9feoTH+Off72AvZ168kkA7O2hhx7mtW94M2Nj48yfP4/x8Qm++vVv8tGPf4pJd91zL4mPfvxTTPrs57/Ejh07Afh3UlVuue12brr5Vnq6u5kyZQr19XVM6elm+44dXHHlVURRBMB/2lnPPZPWlhY++OGPsXnLVgDiOOafF1/KlVddzezZswB4slSVyy6/kve874O8+53v4PTTTgHgybr33vu4/MqrmHTdDTdSmCgA8N9sZHSUW2+9nRtvvoVae/r66O/v5+577iWKIgCejh07dwLwbFiyeBEf/sD7+PFPfsatt90BwNPVUN9ALpdjdGwcgH/l8iuv4tAjj2XSq177RsbGxwFIlCtlrFUAHs8f//QXjjjmBJ6uc1/yCgYHBwFYunQJ06ZO5fjjjuXoo44gn89z9FFHcObppzF3zhzWrF3HSaeeyRHHnEDitOecxdkvPI8zn/d83vme91MslQCYdPbznsMdt9xA4p3veBsAiRe94BxSqRQ//tkviOIYgH/lm1//CnfccgPXXXM5hxx8EAD5fJ63vOmNXHb5Fdxw080APB333nsfl195FZOuu+FGChMFAP5TFi6Yz5WX/ZPbb76eD7zv3bS2tvDX8//IHbfcQOLWG6/lqCMP57hjjua6qy/njltu4JMf/wgA/26+5/HWN7+BhQsXcNhhh/DJj3+ExAff/15SQYpDDzmYT378I9Q69JCD6e8fAODIIw5n4cIFAPx/oarce98D3HjzLdR69LFVVCoV7rnnPoaGhgF4OrZt2w7AsyGfy/HJj3+U7dt38P0f/BhVBeDpSKfTtDQ3UyyWiOIYgH0ZHBzk3Je8giOOOYGn649/+gsAT1ZzUxOf/fQn+Msff8uaNes45vhT+MnPfkm5XAag1ic//hHuuOUGLv7bhSyYP4+Xvvhc7r79Ju645QbuvO1Gfvi9b9Pc3MTXv/Il7rjlBq687J8sXDAfgP+Uq66+hj17+qhUqrzn/R/illtvY+vW7bzqlS+npbkZgFqqymc//yWuv+FGli1dgogA8N9qZHSUW2+9nRtvvoVae/r66O/v5+577iWKIgAmPfzIo9x48y3syyOPPkZsLQBPx/U33ESxVOTEE44DILF40UIOPeRg/vaPf1KpVAB4IoODg5z7kldwxDEn8HT98U9/AWDnzl3cePMtPBNDQ8MAnHrKSZx37gvJZDIAPBXdXV287rWvIpPJAFBXl+f4447lzNNP47hjj0HEMGvmDAD2JZfL0dHRTqKhoR6ARCaT4fjjjuXM00/j4IMPAmDS7t29pNMpWlpauOW22zn7hS/mC1/6KuVyGYAnY+fOXdTX1/PhD76PT378I+zt0EMOpr9/AFUFYNJEocAdd97FjTffwqQbbryZq66+lkw6zYaNm7jx5lt4PI88+hixtQA8nsHBIR548CGuufZ6rrr6GlQVgH8XA/BUFIpFLr/iKo479hjmzJkNQCKTyXDSicdz3/0PsGXrNgCeDhHh4IMO4Phjj2HS6aedwne/9XXuuOUGPv7RD+H7PgCTvvn1r3DHLTewL9ddczmHHHwQAJMKxSKXX3EVxx17DHPmzAYgkclkOOnE47nv/gfYsnUbAE9k7tzZfPLjH+HxTJs6hWw2y4c+8F4++fGPsLf3v/dddHV2AvDJj3+EO265gafrysv+ycIF8wF4tjzy6GMsWnYAM+cuYl+++vVvctfd97Bk+UHMnLuIffnxT38BQK1cNovv+7z43BfyspecB8AvfvYjtmxYTa27b7+Znp5uli1bypvf+HrS6TQAj+ehhx/hr3//Jx/+wPt49NHHeONb3sHIyCgA+5LP5Tj/T79jy4bV7Mvdt99MT083H/7g+9myYTX78tY3vwGAWpdfeRWHHnksiTOe93z29PUBMGne3DnU19Xxl/Mv4pLLruDMM04jn8sBkFiyeBFTpvQA8EzdetsdvPK1b6CjvYNsNgNAGFa5974HuPHmW5jU27uHxI0338KkO+68i4lCAYCnKwojSqUSvu8DsC/33Hs/H/vEp3nXO97K9ddczte+/AW+/MXPcfHfL+S3v/oZv//jX/j1b38PwI4dO/ns57/ERz/+KR7PZz//JXbs2AnAEymXy0RRjO95AOzLlCk9/PD732F0dIwTTj6dmXMXMWfBUn7445/y5S9+jva2Nrq6ugD4V1SV3/3hT7znfR/kHW9/C2943asREQCerD+ffyGf/+JXmPTt736foeFhAP6bHXLwQVx3zeXcccsN1Hrw3jv50uc/y1e/9k3Ov+AiABJhNaRcLgPwZMycOQOAZ8sLX3AOxx13DJ/5/BfZ3dsLwNOxp6+P4eFhZs2cAcATeeub38CWDat57OH7OOzQQ/jwB9/Plg2ruf3m6+noaAdg/fqNdHd3kc/lANiXww47hE9+/CPsy4c+8F6y2SzTpk7hkx//CPvy9re+iXw+D0ClUuELX/oqt99xJwB7K1fKZLNZPvSB9/LJj3+ESWc/7zn09w+gqgD8K62trbzvPe/iH/+8hPvvfxCAp+uIIw7jrOc+hx/88CcMj4wA8FT9+fwL+fwXv8Kkb3/3+wwNDwPwn7S7t5e3vP1dfPpzX+SLn/sMS5YsBiBRX1/P1778RdauW8eLznsZ6zdsBKDWjTfdzEc//imeyE9//ksqlQoAT8fcOXM48/TTSBx80AGEUci5L3wBZ55+GrUWLlgAwN6KpRLvePf7OOKYE3j1695Eb+8eXv26N3HEMSfw+S9+BYC77rmXj378U3zxK1+jv3+Ay6+4ko9+/FN8/4c/plgsArC/ZbMZfvurn3HHLTdQ6+7bb+baqy7jsVWr+MjHP0m5XAYgMTE+AcCTMXPmTACeLfPnzeX9730Xv/v9H7n2+hsAeDoKxSI7du6iq6uTXDYLwL7k83ne/tY38cmPf4R9Oft5z6G/r59XveLlfPLjH2FfDjvsEACeqsMOPYSrLv8n73/Pu1i3bh2+7wNQK45jLr7kMk467UxaW1t577vfie/7ACROOeUk3vG2t/DaN7yZH//k55TLZQAmjY2N89Wvf5OPfvxTPJFVq9cA8FTt2LGTP/z5fF72kvPo6urkwx94Hx/66Cd49atezstech4Ae1u/YSMXX3o58+bOxfM8ANasXcfpzzmbI445ge//4Efcc+99nHTKmRxxzAnccsttAPz2d3/gox//FL/93R8olyt8/4c/5qMf/xSXX3ElAP8uhxx8ENddczl33HIDtR68906+9PnP8tWvfZPzL7gIgEnf/PpXuOOWG9iXH3z3W+SyWQCeqkKxyOVXXMVxxx7DnDmzAUhkMhlOOvF47rv/AbZs3QbAE8nn87z9rW/ikx//CPty9vOeQ39fP696xcv55Mc/wr4cdtghALz8ZS/hjltu4Jk4+qgjAHi2xHHMBz/8cT7/xa+gqoyPjzM0NERrawsAz5Y777qbuXPn0NDQwJmnn8aFf/kDl195Fe95/4cYGRkF4F958KGHWbF8Keec9VzOPP009rZwwQIA9rZwwXyuvOyf3HHLDUz69Cc/Rl1dnt/86ufcccsNPJEffPdb5LJZAPZFVbngor9SmCjwsY98kA9/9JP89Oe/Io5jAP4dDMBTsXbtOu5/4EEuufRy5i5Yysy5i5j06c9+gbGxca648ioAno5MJs073/5WvvzFzzHpM5/6OM977pl0d3cB8EytXbuO+x94kEsuvZy5C5Yyc+4iJn36s19gbGycK668CoAn0tXZyZmnn0ZixbJl/PZ3f2TqlCmcefppJKZNnUp7WxunnnIyZ55+Gns75eSTaGpqBOC/0aKFC7jlhmu5+/ab2Zd3vv2tHLByBTdedxV3334z+/KqV74MgElRHPOu936A3/3hTwBM+u3v/sBHP/4pan3xK1+jv38AgH+lv3+AL33laxx+2CG89jWv5He//gVRFPGmt76d/v4BAP5TXvj8s9myYTWJu2+/mZ6ebgAm1dfX8+pXvZwf/eRnFItFTjzhOACerM994Uuc/cLz2NvV114HwKRiqcTPf/lrjj7ySH76o+/R3NwMQGtrKxf+5Q/cccsNTDr7ec8hccctNzDpysv+ycIF8wF4Il1dXeze3UupWAKgVrFUpK+vn3nz5gKwL5dfcSXz583l5S99CZ7nATDp6KOO5OSTTuCSSy9ndHSMiUKBO+68ixtvvoXHc8eddzFRKJBOp2lrbWXLli0A7G1wcIhUKkVnRwcAj2fxooVcf83lXHvVpfzoB9/h2qsu5YpL/0FzcxNbt25j3tw5ADyRYqnEpz7zeT7/hS/zsY9+iHe+/a34vg/AU/HNr3+FO265gUmX/uOvTJs2FYD/lGKpRBTHADxTIsLpp5/KKaecxOVXXkWxVGJKdzfpTIZVq9cA8EQ2btwEQGdHBwCJsBpSLpcBeLoymQyf/PhHGR8f53vf/xHVahWAp6p3zx6iKKa1tQWAJ3L9DTfxgQ9/jGKhCEDipz//JZ//4ldQVQA2bNjA1Ck95OvyAOzL3DlzOPP000hM6e7mt7/7IwesWMGZp5/GqaecTHtbG9OmTuXM009jX44/7lgymQwAlUqFcrlMY0MDACMjIzzvnBcxc+4ifvzTXwDQ3tbGqaeczJmnn8akgw8+CICn4vjjjuHwww7hpz//BeVyGYCnw/c8Xv+617Bj5y4uv/xKAJ6qb379K9xxyw1MuvQff2XatKkA/LupKus3bOT9H/wIRx93MgDf+/Y3+PTnvsDqNWsBmHTxpZfj+z5HHnE4p515Fm9+2ztZv2EjqgrAzp27uPHmW3gijzz6GLG1ADxT99//INlsloUL5gNQy9qYXC6L73kATEqlUrziZS/hkx//CG98/Wupr6/jja9/LZ/8+Ed43nPPBOB/3cwZ03n3O9/OnXfdw+bNW+ju6qK9rZ37H3gQVQXg8Wzdto3+/gHmzp0NwKSJ8QkAnokXn/ciTjv1FL705a+xc+cuAJ6q8fFxduzcydQpUxARAPYlk8lw/HHHcubpp3HqKSdz6213sGPHTs48/TQSBx98EEEq4OijjuDM009jX+bOmQPA05HJZHjrW97It77xVXzfByBRLJW46K9/58RTzuRjn/wMX/r8Z8lmMnz1698EYNLQ4BA//fkvecfb3sJFf/8HRx57Eudf+FeKpRIAYVjl3vse4Mabb+GJDA0NA/BURFHED3/8U5YvXcKBB6wE4JBDDuLVr3wFv/v9HwGYdMrJJ/Ded78DI4af/eJXTJ3Sw9FHHwlAoquzk/e/91188uMf4ZRTTmLmzBl8+EPv45Mf/wjz5s4B4L+NiHD66adyyikncfmVV1EslQD4d1q7dh33P/Agl1x6OXMXLGXm3EVM+vRnv8DY2DhXXHkVAE8kk8lw/HHHcubpp3HqKSdz6213sGPHTs48/TQSBx98EEEq4OijjuDM009jX+bOmQPAfyPP83jB88/myquvYd36DWzYsIkoipg2bSoAz4bR0THuf+BBjjnqSHzPA2DF8mX87cI/s2vXbl712jewu7cXgMczNDzMbbffwfHHHUs6nQbg6Xr0sVV8+nNfYO6cOfQP9HP5lVfxeB586GEAnshtt9/JT3/+S9759rfwute8it/+6mf8+Kc/4/s//DFRFAHwbDMAT5aq8o9/XsK0aVO5+opLuPv2m6l1x603cPppp3DJZVcwMDAIwH8bVeUf/7yEadOmcvUVl3D37TdT645bb+D0007hksuuYGBgEIAn4/4HHmT37l46OtoBmNQ/MMDV11zL5VdexaRrrr2OkZFRAP6b+b5PW1srHR3t7EsulyOVStHe3kZHRzv7ks/lAJi0ceMm7r77XhYtXADApCWLF3HMMUdR6/DDDiWbzQDwRHbs2Mnr3/RW+vsH+NynP0kmk6GpqZEf/+C7eJ7P29/1Hvr7BwDYn4qlElEUAXDYIYfQ0d7OCccfx9QpUwB4sr759a9wxy03sLezn/ccACblsll+9P1v861vfIX6+noA/h1WrlzO4NAQu3t7Aai1ceNmBgYHWbhgAQD7Mj4+TjabxQ98AGqJCFOnTGFgcJBKpcLCBfO58rJ/csctN/B4rrzsnyxcMJ+Ghnrmz5/Hlq3bKBSLANS686676enuorOrE4B92bBxIzfedDNhGDJ3zhzOPP005s6Zg+d5rFu3njCKWLRoIQD7oqrcfsednPGcc7js8iv53W9+wete8yo8zwPgf0k+l2PmjOns3LmLwkQBgL2Njo6xfsNGuro6yWWzAPwrvueRy2YZH58grIbMmjWTgw48gL/9/Z8Mj4wAsC/lcpm//eNiFsyfz8wZ0wGY0t1NOpNh585dAOzLxo2bUIX2tjYAHs/MGdP51Mc/yl///k+uvfZ6AJ6KcrnMX86/kCWLF7FwwXwAnsjNt9xKLpslm80AkDjk4IO48eZb2LFzJ6OjY6zfsJGDDjwAgEmqShiGAOzthptuBqChsQGASdt37ODyK6+i1o033Uy5XAZgUqVSoVQqkUqlAMjl8nz4g+/nRz/4DqecfAIAz5ZMJsNrXvVKcrkcpXIZgKdr3tw5nPvCc6hUqsRxDMD/ihtvuoUznnM2mzZv4a8X/Imf/PB7NDTUE8cxvucBUCubzfLe97yTa6+8FIBTTn8u73rvBwjDkJe/7CXcccsNPJEffPdb5LJZAJ6JcrnM3/5xMUcdcTitrS0A1Nq0aTMtzc2k02kAJvmex+GHHcqZp5/G0UcdQT6f5+ijjuDM009j5YrlLFo4n3e+/a18+Yuf4+Mf+RDt7W2cecbpfPmLn+NTH/8oL3vJeTQ3NQHw36yuvo5KucxEoUBrawvHH3cMV159DVu3bQdgX1SVSy69nNaWFhYumA9Ad1cX7W3trN+wEYB92bptG317+pg1cwYAj8f3fT764Q8Qx5Yf/OgnRFEIwFNx3XU3MDg4xEknHg/Ak7F7925uuPEmZs2aCcCksBpy6213cPmVV1Frw8aNADzbiqUSb337u/nEpz/Hi154DnfeegOnn34qpXIZ3/cB2NuSJYu47J9/5SMffB9f/fq3WHnQ4dx73/20trZy4V/+wB233MATOfqoIwB4Kv558aVcfe31vP51r8EPfACMGF7zqpfz+c9+Cs/zAEjMnTOHww49hN/+/o9cetkVfPyjH6a5qQmARFNTI6ecfBJnnn4aCxcsoL2tjVNPOZkzTz+NqVOncOIJx/HRD3+QL3/xc7z6Va8gk0nzzre/lS9/8XO8/73v4sQTjsP3PAD+k3zPI5fNMj4+QVgNAfh3UVX+8c9LmDZtKldfcQl3334zte649QZOP+0ULrnsCgYGBgF4Mnbv3s0NN97ErFkzAZgUVkNuve0OLr/yKmpt2LgRgP92hxx8IMuWLuFnv/gVl152OUuXLqGtrQ2AxPYdO7j8yqu4+ppr6R8YYM3atVx+5VVM6t2zB4DHc/2NN9I/MMAxxxwFwKTuri5+9+tfkM/nedkrXsPOnbsA2Je7776XsbFxjjj8MACeri1bt/HOd7+Pvr5+7n/gQd7+zvfytne8h8fz+z/8CYB9UVWuue563viWt3Hm6afx4vNeBMBBBx7Ar37+E37929/zgx/9hCiKAHg2GYAna8fOnVx9zXUcfeQRzJs7h46Odmp1d3Xx0hefy+bNW3jgoYcA+G+zY+dOrr7mOo4+8gjmzZ1DR0c7tbq7unjpi89l8+YtPPDQQwD8K4VikT/86S+0tbWSzWQBmLRly1a++rVv8fkvfoVJ3/z29+jdswcA11xx5VV0dXWycMF8ACbNmzePgw88kForly8jm8kC8HjOv/CvHH/y6dTX13HBn//AlCk9ACSamhr5xle/RH//AB/+2CcolUsA/CeoKoODg9x9z71MTEzwlre+k4MOPZLVa9aiqvziV79hT18fV155Nes3bATgyfrt7/7ARz/+KfZ21z33AlArn8+TyWQA+Hc5YMUKuro6+fs/LkZVAUhEUcQ/Lr6EpUsWs2L5UgAShWKRBEBi2rSpbN6yhf7+AQBqFYpF7r3vfhbMn0djYwMAT5aI8LznnMEDDz7E/fc/CMCkHTt2cv0NN/GcM0+npbkZgMTY2DiVSgWARG9vH29489u56+57AJhULpf53R/+xOGHHsKc2bMAmFQul/nRT37GG9/yDl712jfw8le9juOPO4abb7iaI484HICn6/0f/AhHHHMCk557zgvZvn0HAE8kiiKGhoeJ4xiAp+voo47k0cdWccuttwGwt4cfeZRVq1Zz8oknICIA/CuDg4M88uhjtLa2kMmkyWQyvPH1r+Wxx1bx29/9gSiKAKgVxzG/+s3vuP32O3j7295MfX09AFOnTmHe3Dn86S/nMz4+DkCtcrnMJZddzsIF85k9ayYAT+T0007hhc8/m898/ks8+tgqAJ6McrnMj3/6c2666Rbe/MbXU19fD8DjGRgY5Lbb7+CYY45CjAEgsWDBfNpaW7nvvgfYtn07vXv2sHDhAgAmFUslXvmaN3DjTTcDMGn37l7+8c9L6OnuJp1KATDp/gce4vNf/Aq1fvjjn1EoFACYtGPHTjZt2szv//hnwjAklQo4+qgjOPP005g7Zw4AT8Vd99zLRz/+KRKXX3ElALWOOfpIvv+db9Lc1ATAE/nt7/7ARz/+KT792S+wfv0GACaJCB/50Ad43Wtfhed5ADwV7//gRzjimBOY9NxzXsj27TsA+Hc75pijuPvOW/jbhX9m5YrliAj33vcAjQ0NdHZ1ArAvs2fP4qc/+j533HIDH/vIBwmCAID/lGuvu4GHHn6Yc1/0AkQEgEmVSoWh4WG6uroAeCqOP+5YXnzuCwHY29SpU/jwB9/P1KlTAJg0NjZOoVgE4L+BqnL77XdSV19Hc3MTIsIrXv5SojDiu9/7IcVSCYBaqspll1/Jn/58Pq9/3auZNnUqAE3NTaxYsYxLLr2cHTt2AlBLVbniyqtpa2tjyZJFADyRqVOn8NEPf4C//v2f/OGPfwHgyVBVbr7lVr76jW/x/LOfx/JlSwF4Mi697EqGh0doaW4GYFIUx/z8l7/m81/8CrXuuuseAJ5tuWyWH37vW9x/z+288+1vpa6ujoGBAR5+5FFWLF8GwL5kMhnOO/eF3H37Tfzzr+ezcsVyAP5dli1byoc/8F7mz5sLwKRMJkM+nwdgUhzH/PTnv+KrX/8m73nXOzjk4AMBeDLS6TRvfuPrWbxoIQB7O/64Y3nzG19POp0GIKGqDI+MUKlUAPh3GRwc5JFHH6O1tYVMJg3Av8uOnTu5+prrOPrII5g3dw4dHe3U6u7q4qUvPpfNm7fwwEMPAfBkXHrZlQwPj9DS3AzApCiO+fkvf83nv/gVat111z0A/LfLZDK86+1v5Zprr+P8C//Ki15wDr7nAZC4+577eNs73sN73/9hNm3azD8vvpS3veM9THr0sVUA7Evfnj5++KOf8aIXPJ+pU6YAUKupqZGf/fj79PR084pXv46dO3cBUGtwcJBvfed7POfM05k3dw4A+zIxMUFXVye5bBaAvd1+x5284EUvYfr06TzywN1s2bCaxGMP38dhhx7Chz/4frZsWE2tb379KwDsrVQq8b4PfIQ3veUdvO0tb+Lzn/0Uvu8DkDjowAP4yhc/zw9++BP+cv6FADybDMCTdd99DzA4NMQ5Zz8PEQFgb8uWLWXO7FlcfMllRHEMQFgNufW2O7j8yqvYlxtvuplyuQzAv9t99z3A4NAQ55z9PEQEgL0tW7aUObNncfEllxHFMQBP5B//uJhHH1tFuVzmF7/6DVEUAZA45OCDuO6ay7njlhuYdOVl/2ThgvkAuGRgYJBLLruC559zFvX19QBM+twXvsTZLzyPWq9+/ZvY09cHwOM59pij+ObXvsxvf/Vz2tvbAKg1ZUoPP/vJD/nohz9INpMF4N+hv3+An/78l9x1z7384+JLmbNgKQcddjTveu8HGBsb5y1vfiNXXvZPFi9ayJVXXcMf/vQXvvHVL3HAASv47Oe/yPj4OAD/i9raWnndq1/J737/R378059TLJUYHx/nu9//Ef/4x8W8+Y2vp76+HoBNmzZz7AmnctIpZ7J9xw4AXvD8s/E8j7e9492sWr2GOI5RVXbs2MlHP/4p7rvvfl720heTTqcBeCoOO/QQjjn6SD700Y9zy623E8UxW7Zu430f/DCeZzj3hS8AIHHnXXez8uDDefHLXsX4+DgAS5YsYsniRXzy05/n7nvuI45jhkdG+PgnP8O9993Pm97wWnzfByARRRGf/fyX+NFPfs66deu5/Y67+OXPfsxnP/0J6urqAHg6MpkMZz/vOZx5+mkcf+wxTDrphOM594XPp7mpCYDH86nPfoEDDzmS7//wxwA8XSeeeDxHHXk473n/h/ju93/Erl27KZZK7Nq1mx//5Oe86a1v57DDDuH4444BYFK1WqW/f4C+vn4m3XnX3fz6t7/nec8/l02bt/D6176GdDoNwNFHHcGHP/R+vvv9H/HaN7yZu++5j76+fhL33f8Ab3nbu/j6N7/DB97/Xk4+8QQAEvX19bz9bW/m3vse4BWvfj1333MfY2PjJO6+5z5e+4a3cMONN/PmN76e+vp6AJ6I7/u8421voaO9jUKhAECt/oEBrr7mWi6/8iom/fDHP+XEU8/ku9//ER/+0Ps5/bRTAHgi9953P57vc8CKFQBMyudynHbKyWzZuo3rrr+Bnu5u5s2dA0AtVSWKYwASqsrPf/lriqUSjz72GH/9+z9RVQASZz/vOdxxyw3UuvAvf6C1tRWASevXb6C9o51bbrmNH//0F6hVAGrddfc9LFl+EDPnLmLSG970NgD+12QyGc5+3nM48/TTOP7YY5h00gnHc+4Ln09zUxMA/06+59HS3IyIADA4OMjf//FPjjj8MJqbmgB4It3dXXR3dQHwn3Lf/Q/w8U99hre++U0sXbIYgFrlcoXBwSGm9HQD8GSoKrt39xLFMQBP1urVazjmhJM56ZQz2b5jBwBPV1gNufW2O7j8yqvYlxtvuplyuQyAKgwPD9PX18+ktevW849/XsKrXvsGfv3b3/OiFzyfObNnAzB/3ly+9IXPcslll/Oi817GNddeR19fP4m169bz0Y9/ine8+32c+6IX8NpXvxKAhO95vOVNb2BkdISXv+p1XHnVNQyPjFAoFFi9eg3veu8H+PVvf89rXv1Kpk6ZAsC/csrJJ/LC55/Nnr4+AGqF1ZBbb7uDy6+8iknnX/hXXvqK1/Cq176RA1au5GMf+SC+7wPwr6xbv4Gf/+JXLF2ymK9+/Zv09w8AkMhmM/z2Vz/jjltuoNbLX/YSAP4d6urqyGWzACSuu+4GCoUCBx10IABPxPd9Fi1aiO/7APy7zJ83l/POfSEAT2RiYoIPfeTjfPXr3+RjH/kgb37j6xARAP6VcrlM7549ADwVN99yKwccfAQvftmrGB8fB+Dpqlar9PcP0NfXz6Q777qbX//29zzv+eeyafMWXv/a15BOpwFI3HvvfVx+5VU8ngcfehiAp+K++x5gcGiIc85+HiICwN6WLVvKnNmzuPiSy4jiGIAnsm79Bn7+i1+xdMlivvr1b9LfPwBAIpvN8Ntf/Yw7brmBWi9/2UsA+F8we/YsFi6Yj4iwcdNm4jgG4Jtf/wpbNqzmiZx84gkATNrd28uPfvwzVq9Zw46dO/nqlz/PK1/+UkQEgL3V19fztS9/kfPOfRGdnR0ATIqiiG9867vE1vLGN7wWEQFgX3p7e8mk04gIAJOKpRKf+dwXefmrXseJJx7Pj3/4Xerr6wF4urLZLC958Yu48C9/4J1vfyu+7wNQ6/TTTuE3v/o5Z5/1XACeTQbgySiXy/ztHxezZPEi5s2dA8C+tDQ385wzT+emm29h48ZNAERxzFe//k3e9o73sC8f++RnGBsbB+DfqVwu87d/XMySxYuYN3cOAPvS0tzMc848nZtuvoWNGzcB8HgeeuhhvvqNb/H2t76Jn/34B1x+5VW8/V3vZfuOHQC4bG933HkXxWKRE084DoBa3/z6V7jjlhuodek//kpPTzcA+1IsFvGMxxGHH8bQ0DB9ff3sS2NDA4nBwUHiKAbg2VaulLn0sitYtHAhH3z/e/nT73/Nw/ffzZ233khPTzcrVy5nxvTp3HHn3Xz4Y5/ghc8/m3POfh6f+/Qn2bVrN1/6yteJogiAf+XVr3oFX/7i59jbYYccDMD+8JIXn8vHP/ZhvvWd77N42YEsO+BQfv7LX/O1r36J0087BYBENpelvb2N1tYWctksANOnTeNPv/s16XSaM5/3fOYsWMqseYs5+viTeeihR/jdb37BySeeAMBTlclk+ObXvsKBK1fyyte8nrkLlnL8SacxNjbOz3/6Q6ZM6QEg0djQQFNjI11dnQRBAEBzUxM//N63aWtr5byXvoI5C5ZywMFHcO99D/CzH/+AFSuWAzDpkssu5/Irr+KPv/0lV13+T170gnN413s/wD/+eQlRFAHwdDQ01PPhD76fL3/xc+zt05/8GFOnTgHg8cyaOQOAe+69j2KpBMDTkc/l+OmPf8CrXvEyvvv9H3LksSeyeNmBHHnsiXz9W9/hxee+iJ/+6PvU19cDMOmBBx/i+JNO49Ajj2XSS17+ar745a+xcMF8rrj0Hxx91BEAJESEN7zuNfzxd79i1+5eznvpKzj0yGNJvPC8l7Fu/QZ+9P3v8OY3vg4RAWDSKSedyJ//8BsmCgXOe+krWH7goSTOe+kr6Ovv5w+//SWnn3YKAE/GlCk9fOyjH8IYA0CtTZs28973f5i3veM9TPrZL37FkUcczvVXX84bX/9aRASAxxPFMUPDw5z3whfQ1tYKQK3XvfZVvPjcF/KPf17C8885i/r6egAmlYolisUinR0dACSuvOoa/vCnv/Cpj3+Ub3z1S3z1a9/kM5/7IiPDIwA8GVEcc8ddd/OCc87m5z/9Iffddz8DAwP09fUTRREAxxx1JHfffjP78pMffY9cNgvApMMOOZgvf/FzJM4843QAHg+qWGsB2JdXv+oVfPmLn+Ozn/4E8+bNBeDxWGtRqwA8kYaGej78wffz5S9+jr19+pMfY+rUKQDsLY5jBgcH6evrZ2/Dw8PY2DI8PExfXz+PZ2xsHIBaIyOjvOf9H2ZkdJTXvfbViAgA/y1UlWuuu55XvPp1nHn6abzhda9GRACo9fAjj7Jl61YWLlwAwOOx1mJjy3XX38g5L3wxL3/16xgdGQHgyWpqbqKtrY3ePXvYuHETAE9XFMd89evf5G3veA/78rFPfoaxsXEAyuUyr3rtGzn0yGOZdNqZZ/Ge93+IPXv6+P53v8lHP/wBRASAxOmnncIVl/6DdDrNG9/yDg498lgSp515Fldfez2f/fQn+PxnP4Xv+wBMWrJ4Ef/86wW0tDTzlre/iwMOPoIlKw7mjOc9n9tuv5PvfuvrvPH1r0FEAPhXfN/nXe98G3PmzAagVhTHfPXr3+Rt73gPkz7+yc8QxzG/+vlP+NXPf0x9fT0A/8r4+Dif/fwXmTt3Nj/78feZM3s2L3rxy7nl1tuxsQVgf1FVLrviSj79uS/yype/jPnz5gLwv2B4ZITv//DHHHz4Mdxw48387te/4A2vew0iAsDjsTZmfHycn/7sFxx57El87wc/BuCpaGtro6GhnvUbNrJjx04Anq4HHnyI4086jUOPPJZJL3n5q/nil7/GwgXzueLSf3D0UUcAMOknP/slb3vHe3g8v//DnwB4ssrlMn/7x8UsWbyIeXPnALAvLc3NPOfM07np5lvYuHETAI9nfHycz37+i8ydO5uf/fj7zJk9mxe9+OXccuvt2NgC8L9sZGSUD37k4/T3D/CpT3yUr3/z25x4ypn86c/ns7u3lziOAXgyBgcHecOb3gbA617zat75nvezY8dOWltbAHg8U6b08NY3vwHf9wFIRFHEV7/+LS6/8iq+9bUv093VBcC+DAwM8uDDj7Bi+TIAJpVKZd7xrvfyhz/9ha9+6fMkctksAE+XWmV4eJhZM2cyfdo0+vr62Zf+/gHmz5tLqVRmdHQMgGeLAXgyMpkMv/v1z/nHX8+nvr4egMfznne9g4fvv5sF8+dx8oknsGXDap7I7TdfT0dHOyefeAKrH3mAZUuXAPCvLFu6hNWPPMDJJ54AwL7kcznO/9Pv+ObXv0Imk+F3v/45//jr+dTX1wPweN7zrnfw8P13s2D+PAD25b77H+CVr30DB6xcyStf/lKmTp3CX/7wWwCOOf4U/vr3f3Lf/Q/wwQ99jI9+/FPs7Utf+ToDA4MA/H9XKBb5w5/+wiknncjUKVMAeDybt2zl8iuvIlEoFMikMwDs7fs//DGHHnksT9YZz3s+e/r6ANiXMAz5xa9+w0c//ikSn/7cF+jt3UN3VycAT2Ta1Klc8o+L+PlPfsBb3vR6Dj/sUBoa6gGYdP0NN/HGt7yNk044gU9+4qP4vs+UKT18+IPv569//ye/+NVvUVUAau3p6+PIY0/k0COPZdeu3bzhTW9j5txF7O2vf/8niZlzF/Hjn/4CgH15/wc/wsy5i6j117//k8TMuYuodeSxJ9LX1w/AE/E8j9e++pU89tC93H37zdx75608+uA9vOCcsxARABLdXV1ceek/uOziv9Ha2gpAYtasmfz9or/w2MP3cfftN5N44N47uPG6KznyiMMREQCejqamRn74/W/z8P13c/ftN/PAvXdwxaX/YO6cOQBMWrRoIfffczs/+eH3yGQyACSmTp3C3y78Mw/ffzd3334z9911K9dfczmHHXoIAJN27+7lu9/7Ia96xctZvnwZmUyGz376E7zjbW/hAx/+GHMXLuPAQ4/iiGNOYF9OPu25bNu+HYCn6rIrruSjH/8UX/vGtyiVSmSzGQAmvfH1r+U73/waXZ2d5LJZAJ6uXDbLpz7xUdateoh777yVu2+/mXvvvJV1qx7iM5/6OHV1dQBM+ubXv8KWDavZlw1rHuFXP/8J8+bOAaCWiHDkEYdz3VWX8fD9d3P37TeTePj+u7np+qs44/RTEREA9nbYoYdw3VWX8fD9d3P37TeTePj+u7nuqss48ojDEREAEsuWLmH1Iw9w8oknALAvp5x0IpvWPcY3v/4VABLf/PpX2LJhNXt76L67+MZXv8Ts2bMA+Fd8z+NlLzmP1732Vdx9z3389W//YPWaNQSBD4Cq8vNf/hrP9zn1lJMASKfTtLQ0c+Ff/8b7P/RRRkfHaG9vA+CSSy/nne9+H+e+6AWcftoprFixnL9e8CcefOhhjjruJO66+x6uuuY63v/Bj/DRj3+KvX3/hz+mWCqxe/duHnroEY44/DCWL1vKZZf8jdNOPYXXv+mtzF24jMTxJ5/O2S88j30583nP553veT/FUgmAV77iZSQAEm998xs4/0+/I5/LARCGIb/41W/46Mc/ReIDH/4Y993/AI0N9QBMamio50uf/wxLlywGIJ/Lcf6ffsdb3/wGABK7d/fyuS9+mY9+/FMkPvO5L1KulMlmMwA8XZddcSUf/fin+No3vkWpVCKbzQAwODjE855/LoceeSx7e9Vr38ievj5e9do3cuiRx/J4Pvv5LwKQKJfLXHDhXzn6+JPZsHEjv/nlz5g5YzoA/ykdHe3cfvP1fPPrXwFgb/39A7zl7e/iTW95B69+5cv5/Gc/he/7rFmzlo998jN89OOfIvG2d7yH177hzRxy8EEsXrQQgH2J45i//u0f7Onr489/uYCzz3oul/7zr7S2tgLwZHV3dfG3C/7M0UcdQWtrKwBPx8knnsCWDat5IrfffD0dHe2cfOIJbNmwmsdz9RWX8Nwzz8DzPABqzZs7h79f9Bcee/g+7r79ZhIP3HsH9911K69+5cvxfR+Avc2aNZO/X/QXHnv4Pu6+/WYSD9x7B/fddStnPe85eJ4HQCKfy3H+n37HN7/+FQD2pburi+uuuozbb76ejo52AE4+8QS2bFjN3jaseYQL//IHTjzhODzPA+BfGR4Z4Y1veQerV6/lEx/7CC0tLXz+s5/iZS89j9e+4c286a3voFQq87kvfJmPfvxT7Mu9990PwLNt06bNvOkt7+Ad73ofr331K3n3O9+GiADwn3LyiSewZcNqTj7xBACejDvuvItXvPp1HHDwEfzwxz/j7W99EzffcDXHHH0kIgLA49nT18ff/3EJq1av4ZZbb+cH3/0mn//MJwF4KpYsXsSl//wrC+bPo7W1FYCn45tf/wpbNqxmXzaseYRf/fwnzJs7B4DEsqVLWP3IA2zZsJon8s2vfwWAvb31zW/g9puvp6OjHYBJmUyG3/365/zjr+dTX18PwON5z7vewcP3382C+fMA2JfhkRHe+JZ3sHr1Wj7xsY/Q0tLC5z/7KV720vN47RvezJve+g5KpTKf+8KX+ejHP8W+3Hvf/QD8N9q8eQsvOO+lrN+wkZ//9Ie85lWv4J47buEVL38Jv/j1bzni6BOYs2ApKw46jCOOOYHEy1/1Wj768U/x8le9liOOOYEXv+xVDA0PE8Ux3/ruDygWi3z/O9/k3e98G9/82lf4+Kc+y4IlKznimBP4V77ytW8AUC6X+dRnv8Cvf/M7vvLFz7NixXIAJoVhyC9+9Rs++vFPkXjZK18DwAknHAfApGw2w7e+/lXuuu1GFi1ayNKVBzNz7iJqLVl+EHfdfQ9f/fo3mTl3EXt78cteRaFYBCAxOjbKq177Rg498lierPd/8CMAPFsMgMueifnz5vLOt7+VH3z3m9TX1wPQ3t7GT3/0fR57+D7++dfz+d53vsG8eXMA2Ftrawv19XUA/Kdk0hmm9PTgeQaAZ6Khvo729jZEBIAnElZDDj3kYF71ypchIgAkPM8wpaeHTDoDQGJsdJRvfOu7/PTnv+TkE09gxfKlAEwSEdrb2/ji5z7Nlg2rebLuu+tWDjn4IDLpDAB7C4KAMIy48eZbSDz40MO87KUv5qQTjwfgmWptaeZVr3g5X/7iZ8llswAkTj/tFH70g+8wd+5sRASAWo0NDXzp85/hRz/4Dk/WKSefAMC+fPqTH+fu22/mybjk7xfS2toCwJORTqfp6Ginra0V3/cBeCryuRwdHe0kmpuaEBEAng0NDfV0dLTT3NSEiADwVDQ01NPR0U5rayue5wFQq76+jpe+5Dxe9tLzEBEAMpkMb3nT61nz6ANcfcUlfOFzn+KTH/8I+/LZT3+Cnu5uAESE9vY2GurrAPhX6vJ5brz5FsbHJ/jal7/InNmzAZg0MjLK+Rf+lVNOPgmAZ4Pv+7S1tdLR0U5bWyu+7wPw79DQUE9HRzuJhoZ6AJ6MhoZ6OjraSTQ01APw32zHzp384pe/4eznPZcEgLWWxYsW8pEPvZ/uri4AfM/jQ+9/L8cefRTTpk3lW9/4Cl2dnQAceMBKPvmJj/LZT30c3/cBmDVrJv/82wU8fP/d/OWPv+XLX/gsbW1tAOyto6ODXDZLd1cX73/vu1iyZBEA3V1d/PD732bDmke4/ebr+cmPvscnP/4R3vOud3DSiSdw/LHHsLdjjj6KXDYLwMoVy0kA7EsQBHR2dACQaGps5APvezfnnHMWAJMymQzHH3csXZ2dAOxLQ2MDDfUNACQWLpjP1778RebMng3AJBGhvb2Nhvo6AP6VunyeG2++hfHxCb725S8yZ/ZsAFpbW7jk7xdy9+0383R9+pMfByDh+z6PPraKF73gHK654hIWL1oIwH+TTCZNS3Mzf/zdr/jwB9+P7/sA1NfX89iq1dx48y0kNm/dyrve8Ta++62vk8lkANgXz/N459vfyq03Xsudt93I617zKnLZLABPhapy0823ICLMnj0LgP8F+VyOjo52Es1NTYgIAP9KPpejo6OdRHNTEyICwH+bpsZGzn3RC/jD737F8mVLAfB9nze/8fWsefQBbrj2Sn724x9w1vOeA8DeMpkMXZ2dADzbxsfHGR0b5Y+/+xUf+8gH8X0fgP9GmXSGKT09eJ6hqbGR+vp6fvGzH/Hog/fwzre/lbq6OgD+lc6ODn78w+/yyAN38/eL/sKRRxyO53kAPBVxHPPPiy9l3tw5tLS2AOCyvTU1NnLui17AH373K5YvWwqA7/u8+Y2vZ82jD3DDtVfysx//gLOe9xwA9pbJZOjq7ATgP8XzDFN6esikMwA8kWnTpvKOt72Ff/71fObOmQNAXV0db3z9a7n+6svZsOYRbr/5er759a/wyY9/hPNe9AKmT5sGwPRp0zj+2GM48YTjyOdyCDB/3ly+/MXPMWVKDyLCSScez4P33sHfLvwzn/z4R3jPu97BSSeewPHHHsO+HH7YoQAkspkMP/vJDznj9FMBqBUEAdOmTuXBhx/httvv5LBDD+EPv/0l3V1dANRqamqktbWVRQsXcMsN13L37TfzVPzkR98jl80CEAQBS5cs4crL/smWDat5sv7w218xpacHzzMAPFMGwGXPRH19PW98/Wupr68HoFY+l2PFiuWcefppvPfd7+TLX/wce3vzG19POp0G4D/l6KOO4MK//IHW1lYAnomXv+wl/OC73yKXzQLwRJqaGnn/e9/F3DlzAJjU2trKhX/5A0cfdQQAiRUrlnP91Zdzxy038M2vf4X6+noAJuWyWX7w3W/x8pe9BIAnq7W1lQv/8geOPuoIAPblrW9+A3fccgOTvvDZT1FfXw/A09HR0c7tN1/PySeewIoVy/nohz9AJpMBoNbJJ55AAmDSsqVLuOOWGzjk4IM4/rhjOfP003iy5s6ZA8Ckjo52br/5ek4+8QQaGurp6GjnyWhtbcXzPABc9mTU1dXx5je+nu6uLgBq+b7P/HlzOfP003g8Rx15OL7vA5DLZvnBd7/Fy1/2EgD+leOOPYY7brmBf/z1fE495SREBIBEFMd86atfZ+mSxZx80gkAuOy/2QvOOYubb7iaz3/2U7S3twHgeR4veuHzOeWkEwGYNGvWTD7zqY/zhc9+ioMPOhCAxJQpPbz6lS/H930AajU01HP4YYfyvOeeyUc//AG+/MXPsbcXn/tCAHzf5+yznktzUxMAk3zfp6enm5NPPIEzTz+NF5/7Qr7w2U/x5S9+jr29+NwXAvBkPe+5Z/LlL36OSW97y5vIZbMAPBX5XI73vOvtfPmLn2PSqaechIgAMCmXzfKD736Ll7/sJQD8K8cdewx33HID//jr+Zx6ykmICACe59Ha2kpHRztPV0NDPQAJ3/f53Gc+yWc+9XHq6uoA2Je3vvkNnP+n35HP5QD4T6qvr+fLX/wcRx5xOCICQGLKlB7++dfzueOWG0hcccnfedc73kpdXR0AT6S9vY2pU6cgIgDsraOjndtvvp63vvkNAOzLI48+xo9+8jM++uEPks/lAHDZfwsR4YXPP5vFixYCUMv3fWbNnMGpp5zEK1/+Ur78xc+xt09/8mNMnToFgCdy8okncPvN19PR0Q7Ak7FixXIu+PMfOPKIwxERAPbW0dHO7Tdfz8knngDA/nL0UUdw4V/+QGtrK4sWLeTHP/guJ594Ar7vA/BUzJs7h/r6egD25eQTT2D1Iw+wbOkSAPblmmuv57rrb+Q9734HvucB4LK9iQgvfP7ZLF60EIBavu8za+YMTj3lJF758pfy5S9+jr19+pMfY+rUKQD8p7S2tnLhX/7A0UcdAcAT8X2fF5xzFnV1dQDszfd9enq6OfnEEzjz9NN477vfyZe/+DlqvfmNryedTuN5Hq9+5cs5/LBDAZjk+z7Lly3lzNNP48XnvpAvfPZTfPmLn2Nfjj/uWAAymQyf/PhHOPGE4wDYl9NOPZkrLvk7N99wNZ//7Kfo7uoC4PH4vk9bWysdHe08Fc1NTYgIAAsXzOfCv/yBhQvmA/BkHX3UEVz4lz/Q2toKwDNlAFzmMpe5zGUu8j2PL3/hs3zsIx/E930AXOYyl7nMJcuWLuGyi//G4kULAXCZy1z2n3TaqSfz1wv+RHdXFwAuc5nL/hcZAJe5zGUuc5mrPM9DRABwmctc5jLXiAie5wHgMpe57D9NRPA8DwCXucxl/6sMgMtc5jKXucxlLnOZy1zmMpe5zGUuc5nLXPZMGQCXucxlLnOZy1zmMpe5zGUuc5nLXOYyl7nsmTIALnOZy1zmMpe5zGUuc5nLXOYyl7nMZS5z2TNlAFzmMpe5zGUuc5nLXOYyl7nMZS5zmctc5rJnygC4zGUuc5nLXOYyl7nMZS5zmctc5jKXucxlz5QBcJnLXOYyl7nMZS5zmctc5jKXucxlLnOZy54pA+Ayl7nMZS5zmctc5jKXucxlLnOZy1zmMpc9UwbAZS5zmctc5jKXucxlLnOZy1zmMpe5zGUue6YMgMtc5jKXucxlLnOZy1zmMpe5zGUuc5nLXPZMGQCXucxlLnOZy1zmMpe5zGUuc5nLXOYyl7nsmTIALnOZy1zmMpe5zGUuc5nLXOYyl7nMZS5z2TNlAFz2RKIoYmh4GIC9FYpFhkdGUFUAnorePXu4/oabKJZKALjMZS5zmctc5jKXucxlLnOZy1zmMpf9rzIAT1WlUuGnP/8lH/34p3iybrzpZgD+HW686WY++vFP8URuvOlmAJ6K1WvWcvpzzub+Bx4EoNbvfv8n3vK2d1EslQB4Kv5y/oV853s/IKyGALjMZS5zmctc5jKXucxlLnOZy1zmMpf9rzIAT1VsLY88+hg33nwL/8o/L76UP59/IRs2bgLg36VYKnHR3/7Bjp07AUjs2LmTi/72D4qlEg89/Cgf/fin2Jef/vyXVCoVAGpdd/0NdHV2Ui6X+ejHP0Wty6+4kvXrN/Dpz36Bj378U0w6/8K/AvB4BgYGueSyKzjxhONobGwA4Nm0Zu067rzrbqI4BuDJKpZK/P2fF/PRj3+KxM9/+Wv6+voBeKZ27+7lez/4MR/9+Kf4zOe+yH33P0AcxwA8GX19/XzvBz/mox//FF/+6jdYv2EjqgqAy1zmMpe5zGUuc5nLXOYyl7nMZS7bXwzAU5XLZvnBd7/FHbfcwBP55te+TCaT4czTT+PF574QgH+H4487lo9/5EO0t7fx6le9gi9/8XMkXv2qV9De3sbHP/IhDjrwAC7869/558WXcuPNtzDpnxdfyp133Q1AreGREW648WZOPOE4mpqaAHiqPv/Fr3DEMSdQ69Qzz2Ljxk38+re/54hjTuCJfP6LXwHgyYjjmAsu/CvPPfuFfPu7P6BSqQDwZGzYuJHTzzyb93/wozzw4ENs2ryFb3/n+xx57IlcedU1ADwdqspvf/9HjjruJP74p79QLJW4/Y47eeF5L+Od734/4+PjADyR62+4ieNOOpVf/OrXDI+McM1113PqGc/jF7/6DaoKgMtc5jKXucxlLnOZy1zmMpe5zGUu2x8MwLMtiiJ+8rNf8qrXvpHXvuaVfO8736C+vh6A/eXoo47g7Oc9h7e/7c3cccsNTHrec8+ko72ddDoNwKQbb7qZXbt3c/ZZz2PxooV8+Yufo9aZZ5zOvHlz+eynP8GXv/g5Jr343BcCkJg/fx7HH3sMkw495GDGx8eZPXsWZ55+GscfewxPZP78eQA8kTiOuf6Gm3jeOS/iY5/4NMYYAJ6sQrHIxz/5WVpamrnrtpu48rJ/cv6ffsf999zOC59/Np/53BfZvmMHAE/VPffez5e/+g0+8L53c/st1/Pdb32dq6+4hN//5hfccNNN/PLXvwXg8eze3cvnvvAlznruc7j79pv5yQ+/x3VXXcaHP/h+vvq1b3LrbXcA4DKXucxlLnOZy1zmMpe5zGUuc5nL9gcD8Gxav2EjLzzvZfzgRz/hpz/6Pu9421vwfR+A/4R7772Py6+8isS9994HwKTZs2exbv0GVBWAYqnEjp07mTdvLgCTBgcH+fFPfk4QBORzOQDWrF3H6c85myOOOYHE93/wI+659z5OOuVMjjjmBBJ//NNfAJj04nNfyJe/+DkmHX/cMaRSKb77ra/z5S9+jn/lxee+EIAnMjg4xCc/8znS6TR//+v5HLByBQBP1gMPPMR99z/Ae9/9Dtrb2wBIZDIZXvTC5zMwMMDadesBeKr++re/M2VKD+e96IV4ngdA4ogjDuf4447lnnvvo1gqAbAvV197HcVSibe+5U1kMhkARITXvOrlHHnkEVxw0V+J4hgAl7nMZS5zmctc5jKXucxlLnOZy1z2n2YAni19ff28+nVvpLm5mWuuvISTTjweEQHgP+XP51/I57/4FRJ/Pv9CACbNmT2bXbt2UywWARgbG2PXrt0sXLAAgISqcv6Ff2Xd+g0ATArDkP6BQV71ipfzyY9/hG98/cv84Hvf4lOf/Cgf+sB7yWazjI1PALAvO3bs5Nvf+QEvPveFLF2yGIBEX18/Rx57ItdefwMAT1VLSzOX/OMi/n7RX5g9exYAT8WUKT38+AffYcXy5QDUSqVS+EEAwFNVKBbZsnUbS5csprW1BYBJvueRy2aJohhVBWBvlUqFG2+6mYMOPICpU6cAMCmTyXDE4Ydxzz330d/fD4DLXOYyl7nMZS5zmctc5jKXucxlLvtPMwDPtsMOPYTuri4A/tO++fWvcMctN5D45te/AsCkGdOnMTAwwO7eXgC2b9+Btcr06VMBSDz08CP84pe/4bnPOQOAWqlUwNFHHcGZp59GrVNPOZn2tjYA9qVcLvPpz32BTCbN29/6JkQEgGeD7/u0NDcD8HTMmjmDU04+iaamRgAmxXHMlVdfQ1NjIwvmzwPgqchls/zkR9/j85/5FCICwKThkRHWrF1HR0c76XQagL2Nj0+wceNmZs+ahe95ANSaN28Oo2OjDAwMAuAyl7nMZS5zmctc5jKXucxlLnOZy/7TDMCTpaoMj4zQ19fPvgwODhJHMcVikb6+fvalUCwCsD/09PRQX1/Po4+uAuC22+9g9uyZdHZ0ABCGIT/88c847dSTec4ZpwNQa2xsnFe/7k0cccwJ1DrplDO55977ANhbHMf86je/48677uFrX/kira2tAPw3Ghsb56tf/yYf+ugnOPGUM7n6muv47re/zrSpUwF4KkSE5qYmGhrqAZgUxzF//ssFrF27jvNe9EJ8zwNgb9Zaojiirq4OgL11dnQAsKevDwCXucxlLnOZy1zmMpe5zGUuc5nLXPafZgCerGKpxFve9i4OPfJY9uWM5z2fPX19fP+HP+bQI49lX373+z8B8O8yOjpGX18/idHRMQAmNTY2cOIJx3HdDTcyPDLCjTfdwqGHHEI6nQYgCAJe95pX8rGPfJAgFQBQq76uju9886v8868XUOsvf/odK5YvA6CWqvLzX/6Gr33j2zQ2NtDT3c2q1Wv46Mc/xaQvfuVr9PcP8Nvf/YGPfvxTTPrpz39JpVIB4D8tjiLK5TLDwyNMTBRQVQCeqWKpxIc/9km+/s3v8OEPvZ+jjzoCAJe5zGUuc5nLXOYyl7nMZS5zmctc9r/IADxZ+VyO8//0O7ZsWM2+3H37zfT0dPPhD76fLRtWsy9vffMbAPh3ef8HP8KhRx5L4v0f/AgAtY495mjuu/8B/vKXC9m+YycnnnAcAJOOOPww6uvrAXgmoijiu9//IV/9+jdZsWI5AImhoWFuvPkWJt1x512EYcjDjzzKjTffwqRHHn2M2FoA/lMaGur58Affzze//hVuv+V63vC6V/P2d72Xe+69H4Abb7qZj378UzyRn/78l1QqFQBqrVmzlued8yIuu/wKfvaTH/CG170GEQHg6SiXy0RRjO95ALjMZS5zmctc5jKXucxlLnOZy1zmsv80A/D/yS9+9iO2bFhN4hc/+xEAtZYvW8oBK1bwtW9+myOPOIw5c2YD8GSMT0zwnvd/mLNfeB61XvKyV/HQw48AMGn9+g38+S8X8plPfZx3vO3NACSOPuoI7rjlBiZd+o+/0tPTzTe//hXuuOUGJv3gu98il80C8O80NjbO8MgIqgrAJM/zOO9FL6SjvZ3Lr7gSgJ07d3HjzbfwRB559DFiawFIqCp//fs/ee45L6Krs4Prr7mCU046EREB4PGk02naWlvZsmULAHsbHBwilUrR2dEBgMtc5jKXucxlLnOZy1zmMpe5zGUu+08zAP/fWbUUCgVUFd/3OeOMUwF4wTln43seAE9GQ0M9v/3Vz7jjlhuodd01l3PIwQcBMGnRooVccdk/eNUrXoaIAPDf6Itf/iqvfu0bGRsbB6BWEAQ0NTVSKpUAePnLXsIdt9zAE/nBd79FLpsFQFX56c9/xQc+9FHe8bY389tf/Zzuri4A/pWGhnrmz5/Hlq3bKBSLANS686676enuorOrEwCXucxlLnOZy1zmMpe5zGUuc5nLXPafZgD2p0qlwvDICKoKwLMhiiI2b9nKgw8+zK5duznymBN53RvfSrFUYnBwkO99/0eoKn/4058pl8sAPBnFYpHv//DHfPTjn6LWpz/7Bdav3wBArZbmZkQEgP8WY2PjVCoVABJHH3Ukq1at5uFHHgWg1tp161m9Zi0rli8D4Km69bY7+MY3v82HP/h+3v3Ot+P7PgD7EscxwyMjxHEMgIjwvOecwQMPPsT99z8IwKQdO3Zy/Q038ZwzT6eluRmASVu3bePLX/0Gn/ncF1m/YSMALnOZy1zmMpe5zGUuc5nLXOYyl7ns38EA7C/FUok3vfWdHHDwEVx62RUAPB0PPfQwP/jRT+jvH+Ad73ofcxcu44STT+cnP/05DQ31fO/b3+AnP/oe6VSKb3zru5TLFX75sx/z4EOP8Jvf/RFVBeD/uzvvupuVBx/Oi1/2KsbHxwE4/rhjOOywQ3j3ez/ApZdfQaVSIXHlVdfw7vd9gEMPOYjnPfdMAJ6KSqXCr37zWzLZLPV1ea646mouv/Iqat14082Uy2UAvvzVb3DAwUfw/R/+GIDEYYcewjFHH8mHPvpxbrn1dqI4ZsvWbbzvgx/G8wznvvAFAExat34Dr37tG2lra2XKlB7e+Oa3sW79BgBc5jKXucxlLnOZy1zmMpe5zGUuc9mzzQDsL6lUiqlTpwBw6223A/B0bN+5k5tvuZXnn3MWn/30J7jq8otZ+9iD/OTH36euro5DDzmY+ro6fvCjn3DhRX/jox/+ACedeDxf+Oyn+O73f8CVV10DwL+Sy+V459vfype/+DlqffbTn2DevLkA/DdrbGigqbGRrq5OgiAAoL6+nu988+sccfhhvONd72PBkpUk3vL2d3HgypV855tfp76+HoCnYnR0jLXr1jMxMcHHP/VZ3vaO97C3j33yM4yNjQPQ092NMYbOzk4AEplMhm9+7SscuHIlr3zN65m7YCnHn3QaY2Pj/PynP2TKlB4AJm3atJmDDjyAN77+tSSec+YZ3HzLrQC4zGUuc5nLXOYyl7nMZS5zmctc5rJnmwF4usIw5Be/+g0f/finSHz6c1+gt3cP3V2dAPwrvufxxc99mre/9c3MnDkTgKfjuWeewY3XXcXXvvwFXnzuC1kwfx7pdBqARBiGfPXr3+IHP/wJX/nS5zn9tFMAOOXkE3nB88/hIx//JA899DAAe3v40UdZtOwAnnfOi9i9u5fnnfMiZs5dRK0lyw/irrvv4atf/yYz5y7i2utvAGBvff39HHnsicycu4hJhx55LLt27eYNb3obM+cuotb7P/gRAJ6sfC7H+X/6HYl8LgdArUWLFnL/Pbfzkx9+j0wmA0Civb2NH37/2zz28H3cffvNJB57+D5++P1v097eBsBT1dHRzu03X8+WDat5PLfffD0dHe0AvO61r2LTusd46YvPBWBSU1MjP/z+t3n4/ru5+/abeeDeO7ji0n8wd84cAGrV1dWxa3cvIyOjJO5/4EHmzZ0DgMtc5jKXucxlLnOZy1zmMpe5zGUue7YZgKcrCALCMOLGm28h8eBDD/Oyl76Yk048HoAnY/OWrdx8y60cfdQRAPw7eL5Hd1cX3/3ON3jhC85BRADwfZ/PfurjvOVNb6StrQ2AvU2fNo3vffsb/OgH3+HJWrpkMQB7a21t4ZK/X8jdt9/Mk/HpT34cgP+UfC5HR0c7iXwuB8B/i4aGejo62mluakJEANjb4YcdwlFHHs6Bhx5JYuXK5Rx15BEAuMxlLnOZy1zmMpe5zGUuc5nLXOayZ5sBeCbe+uY3cMctNzDpC5/9FPX19QD8K4VCgU995nO86IXPZ+mSxQA8m04+8QRuv/l6ujo7ed1rX8VzzjgdEQFgku/7vPXNb2DKlB4AJp184gncfvP1zJ83l1NOPokzTz+NJ6ursxOASSefeAK333w93V1dtLa20tHRzpPR0FAPgMueCt/3ecfb3sKmdY+R+PAH3ofv+wC4zGUuc5nLXOYyl7nMZS5zmctc5rJnmwHYX/L5PL/+5c949StfjogA4DKXucxlLnOZy1zmMpe5zGUuc5nLXOay/zUGYH/yPQ8Al7nMZS5zmctc5jKXucxlLnOZy1zmMpf9rzIALnOZy1zmMpe5zGUuc5nLXOYyl7nMZS5z2TNlAFzmMpe5zGUuc5nLXOYyl7nMZS5zmctc5rJnygC4zGUuc5nLXOYyl7nMZS5zmctc5jKXucxlz5QBcJnLXOYyl7nMZS5zmctc5jKXucxlLnOZy54pA+Ayl7nMZS5zmctc5jKXucxlLnOZy1zmMpc9U/8HI1krfnu+Ut4AAAAASUVORK5CYII=;" vertex="1" parent="1">
          <mxGeometry x="980" y="333" width="991" height="251.41" as="geometry" />
        </mxCell>
      </root>
    </mxGraphModel>
  </diagram>
</mxfile>
